SplineFontDB: 3.0
FontName: Glegoo-Bold
FullName: Glegoo Bold
FamilyName: Glegoo
Weight: Bold
Copyright: Copyright (c) 2011, Eduardo Tunni (http://www.tipo.net.ar), Copyright 2011-13 Lohit Fonts Project contributors (http://fedorahosted.org/lohit)
Version: 2.0.1
FONDName: Glegoo
ItalicAngle: 0
UnderlinePosition: 0
UnderlineWidth: 0
Ascent: 800
Descent: 200
UFOAscent: 1052
UFODescent: -227
LayerCount: 2
Layer: 0 0 "Back"  1
Layer: 1 0 "Fore"  0
FSType: 0
OS2Version: 0
OS2_WeightWidthSlopeOnly: 0
OS2_UseTypoMetrics: 0
CreationTime: 1407151040
ModificationTime: 1407178341
PfmFamily: 17
TTFWeight: 700
TTFWidth: 5
LineGap: 0
VLineGap: 0
Panose: 0 0 0 0 0 0 0 0 0 0
OS2TypoAscent: 0
OS2TypoAOffset: 1
OS2TypoDescent: 0
OS2TypoDOffset: 1
OS2TypoLinegap: 0
OS2WinAscent: 0
OS2WinAOffset: 1
OS2WinDescent: 0
OS2WinDOffset: 1
HheadAscent: 0
HheadAOffset: 1
HheadDescent: 0
HheadDOffset: 1
OS2SubXSize: 700
OS2SubYSize: 650
OS2SubXOff: 0
OS2SubYOff: 140
OS2SupXSize: 700
OS2SupYSize: 650
OS2SupXOff: 0
OS2SupYOff: 477
OS2StrikeYSize: 50
OS2StrikeYPos: 250
OS2Vendor: 'TIPO'
OS2CodePages: 20000093.00000000
OS2UnicodeRanges: a00080af.5000204b.00000000.00000000
Lookup: 4 0 0 "'haln' Halant Forms lookup 0"  {"'haln' Halant Forms lookup 0 subtable"  } ['haln' ('DFLT' <'dflt' > 'dev2' <'MAR ' 'NEP ' 'dflt' > 'deva' <'MAR ' 'NEP ' 'dflt' > ) ]
Lookup: 1 0 0 "'locl' Localized Forms lookup 1"  {"'locl' Localized Forms lookup 1 subtable"  } ['locl' ('dev2' <'MAR ' > 'deva' <'MAR ' > ) ]
Lookup: 4 0 0 "'locl' Localized Forms lookup 2"  {"'locl' Localized Forms lookup 2 subtable"  } ['locl' ('dev2' <'MAR ' > 'deva' <'MAR ' > ) ]
Lookup: 1 0 0 "'locl' Localized Forms lookup 3"  {"'locl' Localized Forms lookup 3 subtable"  } ['locl' ('dev2' <'NEP ' > 'deva' <'NEP ' > ) ]
Lookup: 4 0 0 "'locl' Localized Forms lookup 4"  {"'locl' Localized Forms lookup 4 subtable"  } ['locl' ('dev2' <'NEP ' > 'deva' <'NEP ' > ) ]

StartChar: .notdef
Encoding: 65537 -1 1
Width: 1040
VWidth: 0
Flags: W
PickledData: "(dp1
S'org.robofab.postScriptHintData'
p2
(dp3
S'vHints'
p4
((I130
I65
t(I846
I64
ttp5
sS'hHints'
p6
((I0
I65
t(I846
I64
ttp7
ssS'org.robofab.fontlab.mark'
p8
I26
s."
LayerCount: 2
Fore
SplineSet
195 65 m 257
 846 65 l 257
 846 846 l 257
 195 846 l 257
 195 65 l 257
130 0 m 257
 130 910 l 257
 910 910 l 257
 910 0 l 257
 130 0 l 257
EndSplineSet
Validated: 1
EndChar

StartChar: A
Encoding: 65 65 2
Width: 669
VWidth: 0
Flags: W
PickledData: "(dp1
S'org.robofab.postScriptHintData'
p2
(dp3
S'hHints'
p4
((I0
I68
t(I224
I81
t(I730
I-20
ttp5
ssS'org.robofab.fontlab.maskData'
p6
((dp7
S'method'
p8
S'beginPath'
p9
s(dp10
S'segmentType'
p11
S'curve'
p12
sS'smooth'
p13
I01
sg8
S'addPoint'
p14
sS'pt'
p15
(I239
I550
tp16
s(dp17
g8
S'addPoint'
p18
sg15
(I239
I531
tp19
s(dp20
g8
S'addPoint'
p21
sg15
(I254
I516
tp22
s(dp23
g11
S'curve'
p24
sg13
I01
sg8
S'addPoint'
p25
sg15
(I273
I516
tp26
s(dp27
g8
S'addPoint'
p28
sg15
(I292
I516
tp29
s(dp30
g8
S'addPoint'
p31
sg15
(I308
I531
tp32
s(dp33
g11
S'curve'
p34
sg13
I01
sg8
S'addPoint'
p35
sg15
(I308
I550
tp36
s(dp37
g8
S'addPoint'
p38
sg15
(I308
I569
tp39
s(dp40
g8
S'addPoint'
p41
sg15
(I292
I585
tp42
s(dp43
g11
S'curve'
p44
sg13
I01
sg8
S'addPoint'
p45
sg15
(I273
I585
tp46
s(dp47
g8
S'addPoint'
p48
sg15
(I254
I585
tp49
s(dp50
g8
S'addPoint'
p51
sg15
(I239
I569
tp52
s(dp53
g8
S'endPath'
p54
s(dp55
g8
S'beginPath'
p56
s(dp57
g11
S'curve'
p58
sg13
I01
sg8
S'addPoint'
p59
sg15
(I141
I255
tp60
s(dp61
g8
S'addPoint'
p62
sg15
(I141
I236
tp63
s(dp64
g8
S'addPoint'
p65
sg15
(I156
I221
tp66
s(dp67
g11
S'curve'
p68
sg13
I01
sg8
S'addPoint'
p69
sg15
(I175
I221
tp70
s(dp71
g8
S'addPoint'
p72
sg15
(I194
I221
tp73
s(dp74
g8
S'addPoint'
p75
sg15
(I210
I236
tp76
s(dp77
g11
S'curve'
p78
sg13
I01
sg8
S'addPoint'
p79
sg15
(I210
I255
tp80
s(dp81
g8
S'addPoint'
p82
sg15
(I210
I274
tp83
s(dp84
g8
S'addPoint'
p85
sg15
(I194
I290
tp86
s(dp87
g11
S'curve'
p88
sg13
I01
sg8
S'addPoint'
p89
sg15
(I175
I290
tp90
s(dp91
g8
S'addPoint'
p92
sg15
(I156
I290
tp93
s(dp94
g8
S'addPoint'
p95
sg15
(I141
I274
tp96
s(dp97
g8
S'endPath'
p98
s(dp99
g8
S'beginPath'
p100
s(dp101
g11
S'curve'
p102
sg13
I01
sg8
S'addPoint'
p103
sg15
(I252
I425
tp104
s(dp105
g8
S'addPoint'
p106
sg15
(I252
I387
tp107
s(dp108
g8
S'addPoint'
p109
sg15
(I282
I357
tp110
s(dp111
g11
S'curve'
p112
sg13
I01
sg8
S'addPoint'
p113
sg15
(I320
I357
tp114
s(dp115
g8
S'addPoint'
p116
sg15
(I358
I357
tp117
s(dp118
g8
S'addPoint'
p119
sg15
(I388
I387
tp120
s(dp121
g11
S'curve'
p122
sg13
I01
sg8
S'addPoint'
p123
sg15
(I388
I425
tp124
s(dp125
g8
S'addPoint'
p126
sg15
(I388
I463
tp127
s(dp128
g8
S'addPoint'
p129
sg15
(I358
I493
tp130
s(dp131
g11
S'curve'
p132
sg13
I01
sg8
S'addPoint'
p133
sg15
(I320
I493
tp134
s(dp135
g8
S'addPoint'
p136
sg15
(I282
I493
tp137
s(dp138
g8
S'addPoint'
p139
sg15
(I252
I463
tp140
s(dp141
g8
S'endPath'
p142
stp143
sS'org.robofab.fontlab.mark'
p144
I144
s."
LayerCount: 2
Fore
SplineSet
266 730 m 257
 49 68 l 257
 3 68 l 257
 3 0 l 257
 210 0 l 257
 210 68 l 257
 150 68 l 257
 200 224 l 257
 467 224 l 257
 518 68 l 257
 458 68 l 257
 458 0 l 257
 666 0 l 257
 666 68 l 257
 619 68 l 257
 402 730 l 257
 266 730 l 257
334 637 m 257
 442 305 l 257
 227 305 l 257
 334 637 l 257
EndSplineSet
Validated: 9
EndChar

StartChar: AE
Encoding: 198 198 3
Width: 974
VWidth: 0
Flags: W
PickledData: "(dp1
S'org.robofab.postScriptHintData'
p2
(dp3
S'replaceTable'
p4
((dp5
S'index'
p6
I0
sS'type'
p7
I1
s(dp8
g6
I1
sg7
I1
s(dp9
g6
I0
sg7
I2
s(dp10
g6
I2
sg7
I1
s(dp11
g6
I12
sg7
I255
s(dp12
g6
I3
sg7
I1
s(dp13
g6
I0
sg7
I2
s(dp14
g6
I1
sg7
I1
s(dp15
g6
I2
sg7
I1
s(dp16
g6
I25
sg7
I255
s(dp17
g6
I0
sg7
I1
s(dp18
g6
I2
sg7
I1
s(dp19
g6
I0
sg7
I2
s(dp20
g6
I1
sg7
I1
stp21
sS'vHints'
p22
((I465
I103
ttp23
sS'hHints'
p24
((I0
I68
t(I330
I82
t(I649
I81
t(I0
I81
ttp25
ssS'org.robofab.fontlab.mark'
p26
I144
s."
LayerCount: 2
Fore
SplineSet
3 0 m 257
 210 0 l 257
 210 68 l 257
 153 68 l 257
 252 330 l 257
 465 330 l 257
 465 68 l 257
 405 68 l 257
 405 0 l 257
 918 0 l 257
 918 177 l 257
 843 177 l 257
 843 81 l 257
 568 81 l 257
 568 330 l 257
 834 330 l 257
 834 412 l 257
 568 412 l 257
 568 649 l 257
 823 649 l 257
 823 556 l 257
 898 556 l 257
 898 730 l 257
 823 730 l 257
 306 730 l 257
 53 68 l 257
 3 68 l 257
 3 0 l 257
465 649 m 257
 465 412 l 257
 283 412 l 257
 373 649 l 257
 465 649 l 257
EndSplineSet
Validated: 9
EndChar

StartChar: AEacute
Encoding: 508 508 4
Width: 974
VWidth: 0
Flags: W
PickledData: "(dp1
S'org.robofab.postScriptHintData'
p2
(dp3
S'replaceTable'
p4
((dp5
S'index'
p6
I0
sS'type'
p7
I1
s(dp8
g6
I1
sg7
I1
s(dp9
g6
I0
sg7
I2
s(dp10
g6
I2
sg7
I1
s(dp11
g6
I4
sg7
I1
s(dp12
g6
I12
sg7
I255
s(dp13
g6
I3
sg7
I1
s(dp14
g6
I0
sg7
I2
s(dp15
g6
I1
sg7
I1
s(dp16
g6
I2
sg7
I1
s(dp17
g6
I4
sg7
I1
s(dp18
g6
I24
sg7
I255
s(dp19
g6
I0
sg7
I1
s(dp20
g6
I2
sg7
I1
s(dp21
g6
I0
sg7
I2
s(dp22
g6
I1
sg7
I1
s(dp23
g6
I4
sg7
I1
stp24
sS'vHints'
p25
((I465
I103
ttp26
sS'hHints'
p27
((I0
I68
t(I330
I82
t(I649
I81
t(I0
I81
t(I984
I-20
ttp28
ssS'org.robofab.fontlab.mark'
p29
I80
s."
LayerCount: 2
Fore
SplineSet
3 0 m 257
 210 0 l 257
 210 68 l 257
 153 68 l 257
 252 330 l 257
 465 330 l 257
 465 68 l 257
 405 68 l 257
 405 0 l 257
 918 0 l 257
 918 177 l 257
 843 177 l 257
 843 81 l 257
 568 81 l 257
 568 330 l 257
 834 330 l 257
 834 412 l 257
 568 412 l 257
 568 649 l 257
 823 649 l 257
 823 556 l 257
 898 556 l 257
 898 730 l 257
 306 730 l 257
 53 68 l 257
 3 68 l 257
 3 0 l 257
465 649 m 257
 465 412 l 257
 283 412 l 257
 373 649 l 257
 465 649 l 257
515 780 m 257
 705 910 l 257
 649 984 l 257
 472 837 l 257
 515 780 l 257
EndSplineSet
Validated: 9
EndChar

StartChar: Aacute
Encoding: 193 193 5
Width: 669
VWidth: 0
Flags: W
PickledData: "(dp1
S'org.robofab.postScriptHintData'
p2
(dp3
S'hHints'
p4
((I0
I68
t(I224
I81
t(I730
I-20
t(I984
I-20
ttp5
ssS'org.robofab.fontlab.mark'
p6
I144
s."
LayerCount: 2
Fore
SplineSet
266 730 m 257
 49 68 l 257
 3 68 l 257
 3 0 l 257
 210 0 l 257
 210 68 l 257
 150 68 l 257
 200 224 l 257
 467 224 l 257
 518 68 l 257
 458 68 l 257
 458 0 l 257
 666 0 l 257
 666 68 l 257
 619 68 l 257
 402 730 l 257
 266 730 l 257
334 637 m 257
 442 305 l 257
 227 305 l 257
 334 637 l 257
263 780 m 257
 453 910 l 257
 397 984 l 257
 220 837 l 257
 263 780 l 257
EndSplineSet
Validated: 9
EndChar

StartChar: Abreve
Encoding: 258 258 6
Width: 669
VWidth: 0
Flags: W
PickledData: "(dp1
S'org.robofab.postScriptHintData'
p2
(dp3
S'replaceTable'
p4
((dp5
S'index'
p6
I2
sS'type'
p7
I1
s(dp8
g6
I0
sg7
I1
s(dp9
g6
I1
sg7
I1
s(dp10
g6
I5
sg7
I1
s(dp11
g6
I1
sg7
I255
s(dp12
g6
I3
sg7
I1
s(dp13
g6
I0
sg7
I1
s(dp14
g6
I1
sg7
I1
s(dp15
g6
I5
sg7
I1
s(dp16
g6
I2
sg7
I255
s(dp17
g6
I2
sg7
I1
s(dp18
g6
I1
sg7
I1
s(dp19
g6
I5
sg7
I1
s(dp20
g6
I0
sg7
I1
stp21
sS'hHints'
p22
((I0
I68
t(I224
I81
t(I798
I143
t(I798
I71
t(I68
I156
t(I730
I-20
ttp23
ssS'org.robofab.fontlab.mark'
p24
I80
s."
LayerCount: 2
Fore
SplineSet
266 730 m 257
 49 68 l 257
 3 68 l 257
 3 0 l 257
 210 0 l 257
 210 68 l 257
 150 68 l 257
 200 224 l 257
 467 224 l 257
 518 68 l 257
 458 68 l 257
 458 0 l 257
 666 0 l 257
 666 68 l 257
 619 68 l 257
 402 730 l 257
 266 730 l 257
334 637 m 257
 442 305 l 257
 227 305 l 257
 334 637 l 257
466 941 m 257
 466 868 452 798 334 798 c 256
 217 798 203 868 203 941 c 257
 267 941 l 257
 267 904 271 869 334 869 c 256
 397 869 401 904 401 941 c 257
 466 941 l 257
EndSplineSet
Validated: 9
EndChar

StartChar: Acircumflex
Encoding: 194 194 7
Width: 669
VWidth: 0
Flags: W
PickledData: "(dp1
S'org.robofab.postScriptHintData'
p2
(dp3
S'hHints'
p4
((I0
I68
t(I224
I81
t(I730
I-20
t(I979
I-20
ttp5
ssS'org.robofab.fontlab.mark'
p6
I144
s."
LayerCount: 2
Fore
SplineSet
266 730 m 257
 49 68 l 257
 3 68 l 257
 3 0 l 257
 210 0 l 257
 210 68 l 257
 150 68 l 257
 200 224 l 257
 467 224 l 257
 518 68 l 257
 458 68 l 257
 458 0 l 257
 666 0 l 257
 666 68 l 257
 619 68 l 257
 402 730 l 257
 266 730 l 257
334 637 m 257
 442 305 l 257
 227 305 l 257
 334 637 l 257
226 782 m 257
 334 880 l 257
 443 782 l 257
 489 828 l 257
 357 979 l 257
 312 979 l 257
 180 828 l 257
 226 782 l 257
EndSplineSet
Validated: 9
EndChar

StartChar: Adieresis
Encoding: 196 196 8
Width: 669
VWidth: 0
Flags: W
PickledData: "(dp1
S'org.robofab.postScriptHintData'
p2
(dp3
S'vHints'
p4
((I171
I111
t(I385
I111
ttp5
sS'hHints'
p6
((I0
I68
t(I224
I81
t(I812
I135
t(I68
I156
t(I730
I-20
ttp7
ssS'org.robofab.fontlab.mark'
p8
I144
s."
LayerCount: 2
Fore
SplineSet
266 730 m 257
 49 68 l 257
 3 68 l 257
 3 0 l 257
 210 0 l 257
 210 68 l 257
 150 68 l 257
 200 224 l 257
 467 224 l 257
 518 68 l 257
 458 68 l 257
 458 0 l 257
 666 0 l 257
 666 68 l 257
 619 68 l 257
 402 730 l 257
 266 730 l 257
334 637 m 257
 442 305 l 257
 227 305 l 257
 334 637 l 257
226 812 m 256
 174 812 171 847 171 879 c 256
 171 911 174 947 226 947 c 256
 279 947 282 911 282 879 c 256
 282 847 279 812 226 812 c 256
439 812 m 256
 388 812 385 847 385 879 c 256
 385 911 388 947 439 947 c 256
 493 947 496 911 496 879 c 256
 496 847 493 812 439 812 c 256
EndSplineSet
Validated: 9
EndChar

StartChar: Agrave
Encoding: 192 192 9
Width: 669
VWidth: 0
Flags: W
PickledData: "(dp1
S'org.robofab.postScriptHintData'
p2
(dp3
S'hHints'
p4
((I0
I68
t(I224
I81
t(I984
I-20
t(I730
I-20
ttp5
ssS'org.robofab.fontlab.mark'
p6
I144
s."
LayerCount: 2
Fore
SplineSet
266 730 m 257
 49 68 l 257
 3 68 l 257
 3 0 l 257
 210 0 l 257
 210 68 l 257
 150 68 l 257
 200 224 l 257
 467 224 l 257
 518 68 l 257
 458 68 l 257
 458 0 l 257
 666 0 l 257
 666 68 l 257
 619 68 l 257
 402 730 l 257
 266 730 l 257
334 637 m 257
 442 305 l 257
 227 305 l 257
 334 637 l 257
405 780 m 257
 215 910 l 257
 271 984 l 257
 448 837 l 257
 405 780 l 257
EndSplineSet
Validated: 9
EndChar

StartChar: Amacron
Encoding: 256 256 10
Width: 669
VWidth: 0
Flags: W
PickledData: "(dp1
S'org.robofab.postScriptHintData'
p2
(dp3
S'hHints'
p4
((I0
I68
t(I224
I81
t(I840
I81
t(I730
I-20
ttp5
ssS'org.robofab.fontlab.mark'
p6
I80
s."
LayerCount: 2
Fore
SplineSet
266 730 m 257
 49 68 l 257
 3 68 l 257
 3 0 l 257
 210 0 l 257
 210 68 l 257
 150 68 l 257
 200 224 l 257
 467 224 l 257
 518 68 l 257
 458 68 l 257
 458 0 l 257
 666 0 l 257
 666 68 l 257
 619 68 l 257
 402 730 l 257
 266 730 l 257
334 637 m 257
 442 305 l 257
 227 305 l 257
 334 637 l 257
203 840 m 257
 465 840 l 257
 465 921 l 257
 203 921 l 257
 203 840 l 257
EndSplineSet
Validated: 9
EndChar

StartChar: Aogonek
Encoding: 260 260 11
Width: 669
VWidth: 0
Flags: W
PickledData: "(dp1
S'org.robofab.postScriptHintData'
p2
(dp3
S'vHints'
p4
((I463
I73
ttp5
sS'hHints'
p6
((I-232
I64
t(I0
I68
t(I224
I81
t(I730
I-20
ttp7
ssS'org.robofab.fontlab.mark'
p8
I80
s."
LayerCount: 2
Fore
SplineSet
661 -108 m 257
 644 -145 614 -168 583 -168 c 256
 552 -168 536 -149 536 -121 c 256
 536 -95 542 -79 583 -53 c 258
 665 0 l 257
 666 0 l 257
 666 68 l 257
 619 68 l 257
 402 730 l 257
 266 730 l 257
 49 68 l 257
 3 68 l 257
 3 0 l 257
 210 0 l 257
 210 68 l 257
 150 68 l 257
 200 224 l 257
 467 224 l 257
 518 68 l 257
 458 68 l 257
 458 0 l 257
 565 0 l 257
 548 -9 l 258
 480 -44 463 -80 463 -131 c 256
 463 -195 500 -232 573 -232 c 256
 632 -232 683 -196 711 -141 c 257
 661 -108 l 257
334 637 m 257
 442 305 l 257
 227 305 l 257
 334 637 l 257
EndSplineSet
Validated: 9
EndChar

StartChar: Aring
Encoding: 197 197 12
Width: 669
VWidth: 0
Flags: W
PickledData: "(dp1
S'org.robofab.postScriptHintData'
p2
(dp3
S'vHints'
p4
((I233
I62
t(I373
I62
ttp5
sS'hHints'
p6
((I0
I68
t(I224
I81
t(I780
I53
t(I934
I53
t(I730
I-20
ttp7
ssS'org.robofab.fontlab.mark'
p8
I144
s."
LayerCount: 2
Fore
SplineSet
266 730 m 257
 49 68 l 257
 3 68 l 257
 3 0 l 257
 210 0 l 257
 210 68 l 257
 150 68 l 257
 200 224 l 257
 467 224 l 257
 518 68 l 257
 458 68 l 257
 458 0 l 257
 666 0 l 257
 666 68 l 257
 619 68 l 257
 402 730 l 257
 266 730 l 257
334 637 m 257
 442 305 l 257
 227 305 l 257
 334 637 l 257
333 833 m 256
 297 833 295 860 295 883 c 256
 295 907 297 934 333 934 c 256
 371 934 373 907 373 883 c 256
 373 860 371 833 333 833 c 256
333 780 m 256
 429 780 435 834 435 883 c 256
 435 932 429 987 333 987 c 256
 239 987 233 932 233 883 c 256
 233 834 239 780 333 780 c 256
EndSplineSet
Validated: 9
EndChar

StartChar: Aringacute
Encoding: 506 506 13
Width: 669
VWidth: 0
Flags: W
PickledData: "(dp1
S'org.robofab.postScriptHintData'
p2
(dp3
S'vHints'
p4
((I234
I62
t(I374
I62
ttp5
sS'hHints'
p6
((I0
I68
t(I224
I81
t(I780
I53
t(I934
I53
t(I730
I-20
t(I1066
I-20
ttp7
ssS'org.robofab.fontlab.mark'
p8
I80
s."
LayerCount: 2
Fore
SplineSet
266 730 m 257
 49 68 l 257
 3 68 l 257
 3 0 l 257
 210 0 l 257
 210 68 l 257
 150 68 l 257
 200 224 l 257
 467 224 l 257
 518 68 l 257
 458 68 l 257
 458 0 l 257
 666 0 l 257
 666 68 l 257
 619 68 l 257
 402 730 l 257
 266 730 l 257
334 780 m 256
 430 780 436 834 436 883 c 256
 436 907 434 932 421 952 c 257
 494 1015 l 257
 432 1066 l 257
 370 984 l 257
 359 986 347 987 334 987 c 256
 240 987 234 932 234 883 c 256
 234 834 240 780 334 780 c 256
334 637 m 257
 442 305 l 257
 227 305 l 257
 334 637 l 257
334 833 m 256
 298 833 296 860 296 883 c 256
 296 907 298 934 334 934 c 256
 372 934 374 907 374 883 c 256
 374 860 372 833 334 833 c 256
EndSplineSet
Validated: 9
EndChar

StartChar: Atilde
Encoding: 195 195 14
Width: 669
VWidth: 0
Flags: W
PickledData: "(dp1
S'org.robofab.postScriptHintData'
p2
(dp3
S'replaceTable'
p4
((dp5
S'index'
p6
I5
sS'type'
p7
I1
s(dp8
g6
I0
sg7
I1
s(dp9
g6
I1
sg7
I1
s(dp10
g6
I2
sg7
I1
s(dp11
g6
I6
sg7
I1
s(dp12
g6
I23
sg7
I255
s(dp13
g6
I4
sg7
I1
s(dp14
g6
I0
sg7
I1
s(dp15
g6
I1
sg7
I1
s(dp16
g6
I5
sg7
I1
s(dp17
g6
I27
sg7
I255
s(dp18
g6
I2
sg7
I1
s(dp19
g6
I0
sg7
I1
s(dp20
g6
I1
sg7
I1
s(dp21
g6
I5
sg7
I1
s(dp22
g6
I6
sg7
I1
stp23
sS'hHints'
p24
((I0
I68
t(I224
I81
t(I827
I81
t(I863
I45
t(I863
I81
t(I730
I-20
t(I952
I-20
ttp25
ssS'org.robofab.fontlab.mark'
p26
I144
s."
LayerCount: 2
Fore
SplineSet
266 730 m 257
 49 68 l 257
 3 68 l 257
 3 0 l 257
 210 0 l 257
 210 68 l 257
 150 68 l 257
 200 224 l 257
 467 224 l 257
 518 68 l 257
 458 68 l 257
 458 0 l 257
 666 0 l 257
 666 68 l 257
 619 68 l 257
 402 730 l 257
 266 730 l 257
334 637 m 257
 442 305 l 257
 227 305 l 257
 334 637 l 257
407 827 m 256
 449 827 481 853 503 932 c 257
 441 952 l 257
 431 922 420 908 396 908 c 256
 366 908 307 944 261 944 c 256
 219 944 187 918 165 839 c 257
 228 819 l 257
 238 849 249 863 273 863 c 256
 303 863 361 827 407 827 c 256
EndSplineSet
Validated: 9
EndChar

StartChar: B
Encoding: 66 66 15
Width: 645
VWidth: 0
Flags: W
PickledData: "(dp1
S'org.robofab.postScriptHintData'
p2
(dp3
S'replaceTable'
p4
((dp5
S'index'
p6
I0
sS'type'
p7
I1
s(dp8
g6
I2
sg7
I2
s(dp9
g6
I1
sg7
I1
s(dp10
g6
I2
sg7
I1
s(dp11
g6
I0
sg7
I2
s(dp12
g6
I3
sg7
I255
s(dp13
g6
I1
sg7
I2
s(dp14
g6
I2
sg7
I1
s(dp15
g6
I0
sg7
I2
s(dp16
g6
I0
sg7
I1
s(dp17
g6
I1
sg7
I1
s(dp18
g6
I14
sg7
I255
s(dp19
g6
I2
sg7
I2
s(dp20
g6
I0
sg7
I1
s(dp21
g6
I0
sg7
I2
s(dp22
g6
I1
sg7
I1
s(dp23
g6
I2
sg7
I1
s(dp24
g6
I19
sg7
I255
s(dp25
g6
I1
sg7
I2
s(dp26
g6
I1
sg7
I1
s(dp27
g6
I0
sg7
I2
s(dp28
g6
I0
sg7
I1
s(dp29
g6
I2
sg7
I1
stp30
sS'vHints'
p31
((I126
I103
t(I459
I103
t(I495
I103
ttp32
sS'hHints'
p33
((I0
I81
t(I332
I82
t(I649
I81
ttp34
ssS'org.robofab.fontlab.mark'
p35
I144
s."
LayerCount: 2
Fore
SplineSet
372 0 m 258
 572 0 598 93 598 195 c 256
 598 278 581 353 467 378 c 257
 548 409 562 473 562 543 c 256
 562 640 536 730 336 730 c 258
 66 730 l 257
 66 662 l 257
 126 662 l 257
 126 68 l 257
 66 68 l 257
 66 0 l 257
 372 0 l 258
229 81 m 257
 229 332 l 257
 369 332 l 258
 474 332 495 282 495 205 c 256
 495 131 474 81 369 81 c 258
 229 81 l 257
229 414 m 257
 229 649 l 257
 334 649 l 258
 438 649 459 603 459 531 c 256
 459 460 438 414 334 414 c 258
 229 414 l 257
EndSplineSet
Validated: 9
EndChar

StartChar: C
Encoding: 67 67 16
Width: 627
VWidth: 0
Flags: W
PickledData: "(dp1
S'org.robofab.postScriptHintData'
p2
(dp3
S'replaceTable'
p4
((dp5
S'index'
p6
I2
sS'type'
p7
I1
s(dp8
g6
I0
sg7
I1
s(dp9
g6
I0
sg7
I2
s(dp10
g6
I1
sg7
I2
s(dp11
g6
I2
sg7
I255
s(dp12
g6
I1
sg7
I1
s(dp13
g6
I0
sg7
I2
s(dp14
g6
I0
sg7
I1
s(dp15
g6
I1
sg7
I2
s(dp16
g6
I12
sg7
I255
s(dp17
g6
I2
sg7
I1
s(dp18
g6
I1
sg7
I2
s(dp19
g6
I0
sg7
I1
s(dp20
g6
I0
sg7
I2
stp21
sS'vHints'
p22
((I52
I103
t(I501
I73
ttp23
sS'hHints'
p24
((I-14
I84
t(I662
I82
t(I730
I-20
ttp25
ssS'org.robofab.fontlab.maskData'
p26
((dp27
S'method'
p28
S'beginPath'
p29
s(dp30
S'segmentType'
p31
S'curve'
p32
sS'smooth'
p33
I01
sg28
S'addPoint'
p34
sS'pt'
p35
(I108
I631
tp36
s(dp37
g28
S'addPoint'
p38
sg35
(I108
I611
tp39
s(dp40
g28
S'addPoint'
p41
sg35
(I124
I595
tp42
s(dp43
g31
S'curve'
p44
sg33
I01
sg28
S'addPoint'
p45
sg35
(I144
I595
tp46
s(dp47
g28
S'addPoint'
p48
sg35
(I164
I595
tp49
s(dp50
g28
S'addPoint'
p51
sg35
(I180
I611
tp52
s(dp53
g31
S'curve'
p54
sg33
I01
sg28
S'addPoint'
p55
sg35
(I180
I631
tp56
s(dp57
g28
S'addPoint'
p58
sg35
(I180
I651
tp59
s(dp60
g28
S'addPoint'
p61
sg35
(I164
I667
tp62
s(dp63
g31
S'curve'
p64
sg33
I01
sg28
S'addPoint'
p65
sg35
(I144
I667
tp66
s(dp67
g28
S'addPoint'
p68
sg35
(I124
I667
tp69
s(dp70
g28
S'addPoint'
p71
sg35
(I108
I651
tp72
s(dp73
g28
S'endPath'
p74
s(dp75
g28
S'beginPath'
p76
s(dp77
g31
S'curve'
p78
sg33
I01
sg28
S'addPoint'
p79
sg35
(I108
I302
tp80
s(dp81
g28
S'addPoint'
p82
sg35
(I108
I282
tp83
s(dp84
g28
S'addPoint'
p85
sg35
(I124
I266
tp86
s(dp87
g31
S'curve'
p88
sg33
I01
sg28
S'addPoint'
p89
sg35
(I144
I266
tp90
s(dp91
g28
S'addPoint'
p92
sg35
(I164
I266
tp93
s(dp94
g28
S'addPoint'
p95
sg35
(I180
I282
tp96
s(dp97
g31
S'curve'
p98
sg33
I01
sg28
S'addPoint'
p99
sg35
(I180
I302
tp100
s(dp101
g28
S'addPoint'
p102
sg35
(I180
I322
tp103
s(dp104
g28
S'addPoint'
p105
sg35
(I164
I338
tp106
s(dp107
g31
S'curve'
p108
sg33
I01
sg28
S'addPoint'
p109
sg35
(I144
I338
tp110
s(dp111
g28
S'addPoint'
p112
sg35
(I124
I338
tp113
s(dp114
g28
S'addPoint'
p115
sg35
(I108
I322
tp116
s(dp117
g28
S'endPath'
p118
stp119
sS'org.robofab.fontlab.mark'
p120
I144
s."
LayerCount: 2
Fore
SplineSet
500 730 m 257
 500 667 l 257
 467 715 413 744 328 744 c 256
 90 744 52 606 52 365 c 256
 52 126 83 -14 338 -14 c 256
 530 -14 564 84 574 227 c 257
 490 231 l 257
 487 138 460 70 338 70 c 256
 167 70 155 175 155 365 c 256
 155 555 177 662 334 662 c 256
 449 662 494 606 501 494 c 257
 574 494 l 257
 574 730 l 257
 500 730 l 257
EndSplineSet
Validated: 9
EndChar

StartChar: C.001
Encoding: 65538 -1 17
Width: 627
VWidth: 0
Flags: W
PickledData: "(dp1
S'org.robofab.postScriptHintData'
p2
(dp3
S'vHints'
p4
((I52
I103
t(I490
I84
ttp5
sS'hHints'
p6
((I-14
I84
t(I660
I84
ttp7
ssS'org.robofab.fontlab.maskData'
p8
((dp9
S'method'
p10
S'beginPath'
p11
s(dp12
S'segmentType'
p13
S'line'
p14
sS'smooth'
p15
I00
sg10
S'addPoint'
p16
sS'pt'
p17
(I344
I271
tp18
s(dp19
g10
S'addPoint'
p20
sg17
(I466
I271
tp21
s(dp22
g10
S'addPoint'
p23
sg17
(I493
I293
tp24
s(dp25
g13
S'curve'
p26
sg15
I00
sg10
S'addPoint'
p27
sg17
(I495
I312
tp28
s(dp29
g13
S'line'
p30
sg15
I00
sg10
S'addPoint'
p31
sg17
(I579
I312
tp32
s(dp33
g10
S'addPoint'
p34
sg17
(I570
I295
tp35
s(dp36
g10
S'addPoint'
p37
sg17
(I535
I282
tp38
s(dp39
g13
S'curve'
p40
sg15
I00
sg10
S'addPoint'
p41
sg17
(I344
I282
tp42
s(dp43
g10
S'endPath'
p44
stp45
sS'org.robofab.fontlab.mark'
p46
I80
s."
LayerCount: 2
Fore
SplineSet
572 533 m 257
 559 668 500 744 338 744 c 256
 100 744 52 606 52 365 c 256
 52 126 89 -14 338 -14 c 256
 520 -14 564 84 574 227 c 257
 490 231 l 257
 487 138 450 70 338 70 c 256
 173 70 155 175 155 365 c 256
 155 555 183 660 338 660 c 256
 437 660 477 619 487 527 c 257
 572 533 l 257
EndSplineSet
Validated: 9
EndChar

StartChar: Cacute
Encoding: 262 262 18
Width: 627
VWidth: 0
Flags: W
PickledData: "(dp1
S'org.robofab.postScriptHintData'
p2
(dp3
S'replaceTable'
p4
((dp5
S'index'
p6
I2
sS'type'
p7
I1
s(dp8
g6
I0
sg7
I1
s(dp9
g6
I3
sg7
I1
s(dp10
g6
I0
sg7
I2
s(dp11
g6
I1
sg7
I2
s(dp12
g6
I2
sg7
I255
s(dp13
g6
I1
sg7
I1
s(dp14
g6
I0
sg7
I2
s(dp15
g6
I0
sg7
I1
s(dp16
g6
I1
sg7
I2
s(dp17
g6
I3
sg7
I1
s(dp18
g6
I12
sg7
I255
s(dp19
g6
I2
sg7
I1
s(dp20
g6
I1
sg7
I2
s(dp21
g6
I3
sg7
I1
s(dp22
g6
I0
sg7
I1
s(dp23
g6
I0
sg7
I2
stp24
sS'vHints'
p25
((I52
I103
t(I501
I73
ttp26
sS'hHints'
p27
((I-14
I84
t(I662
I82
t(I730
I-20
t(I984
I-20
ttp28
ssS'org.robofab.fontlab.mark'
p29
I80
s."
LayerCount: 2
Fore
SplineSet
500 730 m 257
 500 667 l 257
 467 715 413 744 328 744 c 256
 90 744 52 606 52 365 c 256
 52 126 83 -14 338 -14 c 256
 530 -14 564 84 574 227 c 257
 490 231 l 257
 487 138 460 70 338 70 c 256
 167 70 155 175 155 365 c 256
 155 555 177 662 334 662 c 256
 449 662 494 606 501 494 c 257
 574 494 l 257
 574 730 l 257
 500 730 l 257
280 780 m 257
 470 910 l 257
 414 984 l 257
 237 837 l 257
 280 780 l 257
EndSplineSet
Validated: 9
EndChar

StartChar: Ccaron
Encoding: 268 268 19
Width: 627
VWidth: 0
Flags: W
PickledData: "(dp1
S'org.robofab.postScriptHintData'
p2
(dp3
S'replaceTable'
p4
((dp5
S'index'
p6
I3
sS'type'
p7
I1
s(dp8
g6
I0
sg7
I1
s(dp9
g6
I2
sg7
I1
s(dp10
g6
I0
sg7
I2
s(dp11
g6
I1
sg7
I2
s(dp12
g6
I2
sg7
I255
s(dp13
g6
I1
sg7
I1
s(dp14
g6
I0
sg7
I2
s(dp15
g6
I0
sg7
I1
s(dp16
g6
I1
sg7
I2
s(dp17
g6
I2
sg7
I1
s(dp18
g6
I12
sg7
I255
s(dp19
g6
I3
sg7
I1
s(dp20
g6
I1
sg7
I2
s(dp21
g6
I2
sg7
I1
s(dp22
g6
I0
sg7
I1
s(dp23
g6
I0
sg7
I2
stp24
sS'vHints'
p25
((I52
I103
t(I501
I73
ttp26
sS'hHints'
p27
((I-14
I84
t(I662
I82
t(I985
I-20
t(I730
I-20
ttp28
ssS'org.robofab.fontlab.mark'
p29
I80
s."
LayerCount: 2
Fore
SplineSet
500 730 m 257
 500 667 l 257
 467 715 413 744 328 744 c 256
 90 744 52 606 52 365 c 256
 52 126 83 -14 338 -14 c 256
 530 -14 564 84 574 227 c 257
 490 231 l 257
 487 138 460 70 338 70 c 256
 167 70 155 175 155 365 c 256
 155 555 177 662 334 662 c 256
 449 662 494 606 501 494 c 257
 574 494 l 257
 574 730 l 257
 500 730 l 257
442 985 m 257
 334 887 l 257
 225 985 l 257
 179 939 l 257
 311 788 l 257
 356 788 l 257
 488 939 l 257
 442 985 l 257
EndSplineSet
Validated: 9
EndChar

StartChar: Ccedilla
Encoding: 199 199 20
Width: 636
VWidth: 0
Flags: W
PickledData: "(dp1
S'org.robofab.postScriptHintData'
p2
(dp3
S'replaceTable'
p4
((dp5
S'index'
p6
I0
sS'type'
p7
I1
s(dp8
g6
I1
sg7
I2
s(dp9
g6
I3
sg7
I1
s(dp10
g6
I2
sg7
I1
s(dp11
g6
I0
sg7
I2
s(dp12
g6
I2
sg7
I2
s(dp13
g6
I5
sg7
I255
s(dp14
g6
I1
sg7
I1
s(dp15
g6
I2
sg7
I2
s(dp16
g6
I0
sg7
I2
s(dp17
g6
I2
sg7
I1
s(dp18
g6
I0
sg7
I1
s(dp19
g6
I1
sg7
I2
s(dp20
g6
I13
sg7
I255
s(dp21
g6
I4
sg7
I1
s(dp22
g6
I2
sg7
I2
s(dp23
g6
I0
sg7
I1
s(dp24
g6
I1
sg7
I1
s(dp25
g6
I0
sg7
I2
s(dp26
g6
I1
sg7
I2
s(dp27
g6
I16
sg7
I255
s(dp28
g6
I2
sg7
I1
s(dp29
g6
I0
sg7
I2
s(dp30
g6
I1
sg7
I2
s(dp31
g6
I0
sg7
I1
s(dp32
g6
I1
sg7
I1
s(dp33
g6
I2
sg7
I2
stp34
sS'vHints'
p35
((I61
I103
t(I356
I68
t(I510
I73
ttp36
sS'hHints'
p37
((I-241
I62
t(I-14
I84
t(I662
I82
t(I8
I-21
t(I730
I-20
ttp38
ssS'org.robofab.fontlab.mark'
p39
I144
s."
LayerCount: 2
Fore
SplineSet
209 -138 m 257
 209 -196 231 -241 316 -241 c 256
 402 -241 424 -200 424 -141 c 256
 424 -66 384 -48 328 -45 c 257
 333 -13 l 257
 338 -13 342 -14 347 -14 c 256
 539 -14 573 84 583 227 c 257
 499 231 l 257
 496 138 469 70 347 70 c 256
 176 70 164 175 164 365 c 256
 164 555 186 662 343 662 c 256
 458 662 503 606 510 494 c 257
 583 494 l 257
 583 730 l 257
 509 730 l 257
 509 667 l 257
 476 715 422 744 337 744 c 256
 99 744 61 606 61 365 c 256
 61 151 86 16 273 -9 c 257
 260 -84 l 257
 314 -94 l 258
 346 -100 356 -112 356 -138 c 256
 356 -160 353 -179 318 -179 c 256
 284 -179 281 -161 281 -138 c 257
 209 -138 l 257
EndSplineSet
Validated: 9
EndChar

StartChar: Ccircumflex
Encoding: 264 264 21
Width: 627
VWidth: 0
Flags: W
PickledData: "(dp1
S'org.robofab.postScriptHintData'
p2
(dp3
S'replaceTable'
p4
((dp5
S'index'
p6
I2
sS'type'
p7
I1
s(dp8
g6
I0
sg7
I1
s(dp9
g6
I3
sg7
I1
s(dp10
g6
I0
sg7
I2
s(dp11
g6
I1
sg7
I2
s(dp12
g6
I2
sg7
I255
s(dp13
g6
I1
sg7
I1
s(dp14
g6
I0
sg7
I2
s(dp15
g6
I0
sg7
I1
s(dp16
g6
I1
sg7
I2
s(dp17
g6
I3
sg7
I1
s(dp18
g6
I12
sg7
I255
s(dp19
g6
I2
sg7
I1
s(dp20
g6
I1
sg7
I2
s(dp21
g6
I3
sg7
I1
s(dp22
g6
I0
sg7
I1
s(dp23
g6
I0
sg7
I2
stp24
sS'vHints'
p25
((I52
I103
t(I501
I73
ttp26
sS'hHints'
p27
((I-14
I84
t(I662
I82
t(I730
I-20
t(I979
I-20
ttp28
ssS'org.robofab.fontlab.mark'
p29
I80
s."
LayerCount: 2
Fore
SplineSet
500 730 m 257
 500 667 l 257
 467 715 413 744 328 744 c 256
 90 744 52 606 52 365 c 256
 52 126 83 -14 338 -14 c 256
 530 -14 564 84 574 227 c 257
 490 231 l 257
 487 138 460 70 338 70 c 256
 167 70 155 175 155 365 c 256
 155 555 177 662 334 662 c 256
 449 662 494 606 501 494 c 257
 574 494 l 257
 574 730 l 257
 500 730 l 257
225 782 m 257
 333 880 l 257
 442 782 l 257
 488 828 l 257
 356 979 l 257
 311 979 l 257
 179 828 l 257
 225 782 l 257
EndSplineSet
Validated: 9
EndChar

StartChar: Cdotaccent
Encoding: 266 266 22
Width: 627
VWidth: 0
Flags: W
PickledData: "(dp1
S'org.robofab.postScriptHintData'
p2
(dp3
S'replaceTable'
p4
((dp5
S'index'
p6
I3
sS'type'
p7
I1
s(dp8
g6
I0
sg7
I1
s(dp9
g6
I2
sg7
I1
s(dp10
g6
I0
sg7
I2
s(dp11
g6
I1
sg7
I2
s(dp12
g6
I2
sg7
I2
s(dp13
g6
I2
sg7
I255
s(dp14
g6
I1
sg7
I1
s(dp15
g6
I0
sg7
I2
s(dp16
g6
I0
sg7
I1
s(dp17
g6
I2
sg7
I2
s(dp18
g6
I2
sg7
I1
s(dp19
g6
I1
sg7
I2
s(dp20
g6
I12
sg7
I255
s(dp21
g6
I3
sg7
I1
s(dp22
g6
I2
sg7
I2
s(dp23
g6
I2
sg7
I1
s(dp24
g6
I1
sg7
I2
s(dp25
g6
I0
sg7
I1
s(dp26
g6
I0
sg7
I2
stp27
sS'vHints'
p28
((I52
I103
t(I269
I128
t(I501
I73
ttp29
sS'hHints'
p30
((I-14
I84
t(I662
I82
t(I806
I155
t(I730
I-20
ttp31
ssS'org.robofab.fontlab.mark'
p32
I80
s."
LayerCount: 2
Fore
SplineSet
500 730 m 257
 500 667 l 257
 467 715 413 744 328 744 c 256
 90 744 52 606 52 365 c 256
 52 126 83 -14 338 -14 c 256
 530 -14 564 84 574 227 c 257
 490 231 l 257
 487 138 460 70 338 70 c 256
 167 70 155 175 155 365 c 256
 155 555 177 662 334 662 c 256
 449 662 494 606 501 494 c 257
 574 494 l 257
 574 730 l 257
 500 730 l 257
332 806 m 256
 393 806 397 848 397 883 c 256
 397 919 393 961 332 961 c 256
 273 961 269 919 269 883 c 256
 269 848 273 806 332 806 c 256
EndSplineSet
Validated: 9
EndChar

StartChar: D
Encoding: 68 68 23
Width: 696
VWidth: 0
Flags: W
PickledData: "(dp1
S'org.robofab.postScriptHintData'
p2
(dp3
S'vHints'
p4
((I126
I103
t(I540
I104
ttp5
sS'hHints'
p6
((I0
I81
t(I649
I81
ttp7
ssS'org.robofab.fontlab.maskData'
p8
((dp9
S'method'
p10
S'beginPath'
p11
s(dp12
S'segmentType'
p13
S'line'
p14
sS'smooth'
p15
I00
sg10
S'addPoint'
p16
sS'pt'
p17
(I134
I730
tp18
s(dp19
g13
S'line'
p20
sg15
I00
sg10
S'addPoint'
p21
sg17
(I134
I0
tp22
s(dp23
g13
S'line'
p24
sg15
I00
sg10
S'addPoint'
p25
sg17
(I206
I0
tp26
s(dp27
g13
S'line'
p28
sg15
I00
sg10
S'addPoint'
p29
sg17
(I206
I730
tp30
s(dp31
g10
S'endPath'
p32
s(dp33
g10
S'beginPath'
p34
s(dp35
g13
S'line'
p36
sg15
I00
sg10
S'addPoint'
p37
sg17
(I206
I730
tp38
s(dp39
g13
S'line'
p40
sg15
I00
sg10
S'addPoint'
p41
sg17
(I206
I668
tp42
s(dp43
g13
S'line'
p44
sg15
I01
sg10
S'addPoint'
p45
sg17
(I359
I668
tp46
s(dp47
g10
S'addPoint'
p48
sg17
(I549
I668
tp49
s(dp50
g10
S'addPoint'
p51
sg17
(I570
I553
tp52
s(dp53
g13
S'curve'
p54
sg15
I01
sg10
S'addPoint'
p55
sg17
(I570
I365
tp56
s(dp57
g10
S'addPoint'
p58
sg17
(I570
I177
tp59
s(dp60
g10
S'addPoint'
p61
sg17
(I549
I62
tp62
s(dp63
g13
S'curve'
p64
sg15
I01
sg10
S'addPoint'
p65
sg17
(I359
I62
tp66
s(dp67
g13
S'line'
p68
sg15
I00
sg10
S'addPoint'
p69
sg17
(I206
I62
tp70
s(dp71
g13
S'line'
p72
sg15
I00
sg10
S'addPoint'
p73
sg17
(I206
I0
tp74
s(dp75
g13
S'line'
p76
sg15
I01
sg10
S'addPoint'
p77
sg17
(I359
I0
tp78
s(dp79
g10
S'addPoint'
p80
sg17
(I614
I0
tp81
s(dp82
g10
S'addPoint'
p83
sg17
(I642
I137
tp84
s(dp85
g13
S'curve'
p86
sg15
I01
sg10
S'addPoint'
p87
sg17
(I642
I365
tp88
s(dp89
g10
S'addPoint'
p90
sg17
(I642
I591
tp91
s(dp92
g10
S'addPoint'
p93
sg17
(I614
I730
tp94
s(dp95
g13
S'curve'
p96
sg15
I01
sg10
S'addPoint'
p97
sg17
(I359
I730
tp98
s(dp99
g10
S'endPath'
p100
stp101
sS'org.robofab.fontlab.mark'
p102
I144
s."
LayerCount: 2
Fore
SplineSet
229 730 m 257
 66 730 l 257
 66 662 l 257
 126 662 l 257
 126 68 l 257
 66 68 l 257
 66 0 l 257
 355 0 l 258
 615 0 644 137 644 365 c 256
 644 591 615 730 355 730 c 258
 229 730 l 257
346 649 m 258
 521 649 540 539 540 365 c 256
 540 191 521 81 346 81 c 258
 229 81 l 257
 229 649 l 257
 346 649 l 258
EndSplineSet
Validated: 9
EndChar

StartChar: Dcaron
Encoding: 270 270 24
Width: 696
VWidth: 0
Flags: W
PickledData: "(dp1
S'org.robofab.postScriptHintData'
p2
(dp3
S'vHints'
p4
((I126
I103
t(I540
I104
ttp5
sS'hHints'
p6
((I0
I81
t(I649
I81
t(I985
I-20
ttp7
ssS'org.robofab.fontlab.mark'
p8
I80
s."
LayerCount: 2
Fore
SplineSet
229 730 m 257
 66 730 l 257
 66 662 l 257
 126 662 l 257
 126 68 l 257
 66 68 l 257
 66 0 l 257
 355 0 l 258
 615 0 644 137 644 365 c 256
 644 591 615 730 355 730 c 258
 229 730 l 257
346 649 m 258
 521 649 540 539 540 365 c 256
 540 191 521 81 346 81 c 258
 229 81 l 257
 229 649 l 257
 346 649 l 258
457 985 m 257
 349 887 l 257
 240 985 l 257
 194 939 l 257
 326 788 l 257
 371 788 l 257
 503 939 l 257
 457 985 l 257
EndSplineSet
Validated: 9
EndChar

StartChar: Dcroat
Encoding: 272 272 25
Width: 696
VWidth: 0
Flags: W
PickledData: "(dp1
S'org.robofab.postScriptHintData'
p2
(dp3
S'vHints'
p4
((I126
I103
t(I540
I104
ttp5
sS'hHints'
p6
((I0
I81
t(I325
I76
t(I649
I81
ttp7
ssS'org.robofab.fontlab.maskData'
p8
((dp9
S'method'
p10
S'beginPath'
p11
s(dp12
S'segmentType'
p13
S'line'
p14
sS'smooth'
p15
I00
sg10
S'addPoint'
p16
sS'pt'
p17
(I134
I730
tp18
s(dp19
g13
S'line'
p20
sg15
I00
sg10
S'addPoint'
p21
sg17
(I134
I0
tp22
s(dp23
g13
S'line'
p24
sg15
I00
sg10
S'addPoint'
p25
sg17
(I206
I0
tp26
s(dp27
g13
S'line'
p28
sg15
I00
sg10
S'addPoint'
p29
sg17
(I206
I730
tp30
s(dp31
g10
S'endPath'
p32
s(dp33
g10
S'beginPath'
p34
s(dp35
g13
S'line'
p36
sg15
I00
sg10
S'addPoint'
p37
sg17
(I206
I730
tp38
s(dp39
g13
S'line'
p40
sg15
I00
sg10
S'addPoint'
p41
sg17
(I206
I668
tp42
s(dp43
g13
S'line'
p44
sg15
I01
sg10
S'addPoint'
p45
sg17
(I359
I668
tp46
s(dp47
g10
S'addPoint'
p48
sg17
(I549
I668
tp49
s(dp50
g10
S'addPoint'
p51
sg17
(I570
I553
tp52
s(dp53
g13
S'curve'
p54
sg15
I01
sg10
S'addPoint'
p55
sg17
(I570
I365
tp56
s(dp57
g10
S'addPoint'
p58
sg17
(I570
I177
tp59
s(dp60
g10
S'addPoint'
p61
sg17
(I549
I62
tp62
s(dp63
g13
S'curve'
p64
sg15
I01
sg10
S'addPoint'
p65
sg17
(I359
I62
tp66
s(dp67
g13
S'line'
p68
sg15
I00
sg10
S'addPoint'
p69
sg17
(I206
I62
tp70
s(dp71
g13
S'line'
p72
sg15
I00
sg10
S'addPoint'
p73
sg17
(I206
I0
tp74
s(dp75
g13
S'line'
p76
sg15
I01
sg10
S'addPoint'
p77
sg17
(I359
I0
tp78
s(dp79
g10
S'addPoint'
p80
sg17
(I614
I0
tp81
s(dp82
g10
S'addPoint'
p83
sg17
(I642
I137
tp84
s(dp85
g13
S'curve'
p86
sg15
I01
sg10
S'addPoint'
p87
sg17
(I642
I365
tp88
s(dp89
g10
S'addPoint'
p90
sg17
(I642
I591
tp91
s(dp92
g10
S'addPoint'
p93
sg17
(I614
I730
tp94
s(dp95
g13
S'curve'
p96
sg15
I01
sg10
S'addPoint'
p97
sg17
(I359
I730
tp98
s(dp99
g10
S'endPath'
p100
stp101
sS'org.robofab.fontlab.mark'
p102
I80
s."
LayerCount: 2
Fore
SplineSet
66 662 m 257
 126 662 l 257
 126 401 l 257
 66 401 l 257
 66 325 l 257
 126 325 l 257
 126 68 l 257
 66 68 l 257
 66 0 l 257
 355 0 l 258
 615 0 644 137 644 365 c 256
 644 591 615 730 355 730 c 258
 66 730 l 257
 66 662 l 257
346 649 m 258
 521 649 540 539 540 365 c 256
 540 191 521 81 346 81 c 258
 229 81 l 257
 229 325 l 257
 418 325 l 257
 418 401 l 257
 229 401 l 257
 229 649 l 257
 346 649 l 258
EndSplineSet
Validated: 9
EndChar

StartChar: Delta
Encoding: 8710 8710 26
Width: 572
VWidth: 0
Flags: W
PickledData: "(dp1
S'org.robofab.postScriptHintData'
p2
(dp3
S'hHints'
p4
((I0
I68
t(I670
I-20
ttp5
ssS'org.robofab.fontlab.mark'
p6
I80
s."
LayerCount: 2
Fore
SplineSet
230 670 m 257
 -12 0 l 257
 584 0 l 257
 342 670 l 257
 230 670 l 257
286 556 m 257
 457 68 l 257
 114 68 l 257
 286 556 l 257
EndSplineSet
Validated: 9
EndChar

StartChar: E
Encoding: 69 69 27
Width: 636
VWidth: 0
Flags: W
PickledData: "(dp1
S'org.robofab.postScriptHintData'
p2
(dp3
S'vHints'
p4
((I126
I103
ttp5
sS'hHints'
p6
((I0
I81
t(I330
I82
t(I649
I81
ttp7
ssS'org.robofab.fontlab.maskData'
p8
((dp9
S'method'
p10
S'beginPath'
p11
s(dp12
S'segmentType'
p13
S'line'
p14
sS'smooth'
p15
I00
sg10
S'addPoint'
p16
sS'pt'
p17
(I126
I646
tp18
s(dp19
g13
S'line'
p20
sg15
I00
sg10
S'addPoint'
p21
sg17
(I518
I646
tp22
s(dp23
g13
S'line'
p24
sg15
I00
sg10
S'addPoint'
p25
sg17
(I518
I730
tp26
s(dp27
g13
S'line'
p28
sg15
I00
sg10
S'addPoint'
p29
sg17
(I126
I730
tp30
s(dp31
g10
S'endPath'
p32
s(dp33
g10
S'beginPath'
p34
s(dp35
g13
S'line'
p36
sg15
I00
sg10
S'addPoint'
p37
sg17
(I126
I646
tp38
s(dp39
g13
S'line'
p40
sg15
I00
sg10
S'addPoint'
p41
sg17
(I126
I0
tp42
s(dp43
g13
S'line'
p44
sg15
I00
sg10
S'addPoint'
p45
sg17
(I229
I0
tp46
s(dp47
g13
S'line'
p48
sg15
I00
sg10
S'addPoint'
p49
sg17
(I229
I646
tp50
s(dp51
g10
S'endPath'
p52
s(dp53
g10
S'beginPath'
p54
s(dp55
g13
S'line'
p56
sg15
I00
sg10
S'addPoint'
p57
sg17
(I126
I0
tp58
s(dp59
g13
S'line'
p60
sg15
I00
sg10
S'addPoint'
p61
sg17
(I538
I0
tp62
s(dp63
g13
S'line'
p64
sg15
I00
sg10
S'addPoint'
p65
sg17
(I538
I83
tp66
s(dp67
g13
S'line'
p68
sg15
I00
sg10
S'addPoint'
p69
sg17
(I126
I83
tp70
s(dp71
g10
S'endPath'
p72
s(dp73
g10
S'beginPath'
p74
s(dp75
g13
S'line'
p76
sg15
I00
sg10
S'addPoint'
p77
sg17
(I130
I329
tp78
s(dp79
g13
S'line'
p80
sg15
I00
sg10
S'addPoint'
p81
sg17
(I506
I329
tp82
s(dp83
g13
S'line'
p84
sg15
I00
sg10
S'addPoint'
p85
sg17
(I506
I413
tp86
s(dp87
g13
S'line'
p88
sg15
I00
sg10
S'addPoint'
p89
sg17
(I130
I413
tp90
s(dp91
g10
S'endPath'
p92
s(dp93
g10
S'beginPath'
p94
s(dp95
g13
S'line'
p96
sg15
I00
sg10
S'addPoint'
p97
sg17
(I66
I654
tp98
s(dp99
g13
S'line'
p100
sg15
I00
sg10
S'addPoint'
p101
sg17
(I166
I654
tp102
s(dp103
g13
S'line'
p104
sg15
I00
sg10
S'addPoint'
p105
sg17
(I166
I730
tp106
s(dp107
g13
S'line'
p108
sg15
I00
sg10
S'addPoint'
p109
sg17
(I66
I730
tp110
s(dp111
g10
S'endPath'
p112
s(dp113
g10
S'beginPath'
p114
s(dp115
g13
S'line'
p116
sg15
I00
sg10
S'addPoint'
p117
sg17
(I66
I0
tp118
s(dp119
g13
S'line'
p120
sg15
I00
sg10
S'addPoint'
p121
sg17
(I166
I0
tp122
s(dp123
g13
S'line'
p124
sg15
I00
sg10
S'addPoint'
p125
sg17
(I166
I75
tp126
s(dp127
g13
S'line'
p128
sg15
I00
sg10
S'addPoint'
p129
sg17
(I66
I75
tp130
s(dp131
g10
S'endPath'
p132
s(dp133
g10
S'beginPath'
p134
s(dp135
g13
S'line'
p136
sg15
I00
sg10
S'addPoint'
p137
sg17
(I559
I556
tp138
s(dp139
g13
S'line'
p140
sg15
I00
sg10
S'addPoint'
p141
sg17
(I559
I730
tp142
s(dp143
g13
S'line'
p144
sg15
I00
sg10
S'addPoint'
p145
sg17
(I484
I730
tp146
s(dp147
g13
S'line'
p148
sg15
I00
sg10
S'addPoint'
p149
sg17
(I484
I556
tp150
s(dp151
g10
S'endPath'
p152
s(dp153
g10
S'beginPath'
p154
s(dp155
g13
S'line'
p156
sg15
I00
sg10
S'addPoint'
p157
sg17
(I579
I0
tp158
s(dp159
g13
S'line'
p160
sg15
I00
sg10
S'addPoint'
p161
sg17
(I579
I177
tp162
s(dp163
g13
S'line'
p164
sg15
I00
sg10
S'addPoint'
p165
sg17
(I504
I177
tp166
s(dp167
g13
S'line'
p168
sg15
I00
sg10
S'addPoint'
p169
sg17
(I504
I0
tp170
s(dp171
g10
S'endPath'
p172
s(dp173
g10
S'beginPath'
p174
s(dp175
g13
S'line'
p176
sg15
I00
sg10
S'addPoint'
p177
sg17
(I506
I275
tp178
s(dp179
g13
S'line'
p180
sg15
I00
sg10
S'addPoint'
p181
sg17
(I506
I467
tp182
s(dp183
g13
S'line'
p184
sg15
I00
sg10
S'addPoint'
p185
sg17
(I430
I467
tp186
s(dp187
g13
S'line'
p188
sg15
I00
sg10
S'addPoint'
p189
sg17
(I430
I275
tp190
s(dp191
g10
S'endPath'
p192
s(dp193
g10
S'beginPath'
p194
s(dp195
g13
S'line'
p196
sg15
I00
sg10
S'addPoint'
p197
sg17
(I506
I275
tp198
s(dp199
g13
S'line'
p200
sg15
I00
sg10
S'addPoint'
p201
sg17
(I506
I467
tp202
s(dp203
g13
S'line'
p204
sg15
I00
sg10
S'addPoint'
p205
sg17
(I430
I467
tp206
s(dp207
g13
S'line'
p208
sg15
I00
sg10
S'addPoint'
p209
sg17
(I430
I275
tp210
s(dp211
g10
S'endPath'
p212
stp213
sS'org.robofab.fontlab.mark'
p214
I144
s."
LayerCount: 2
Fore
SplineSet
66 0 m 257
 579 0 l 257
 579 177 l 257
 504 177 l 257
 504 81 l 257
 229 81 l 257
 229 330 l 257
 495 330 l 257
 495 412 l 257
 229 412 l 257
 229 649 l 257
 484 649 l 257
 484 556 l 257
 559 556 l 257
 559 730 l 257
 66 730 l 257
 66 662 l 257
 126 662 l 257
 126 68 l 257
 66 68 l 257
 66 0 l 257
EndSplineSet
Validated: 9
EndChar

StartChar: Eacute
Encoding: 201 201 28
Width: 636
VWidth: 0
Flags: W
PickledData: "(dp1
S'org.robofab.postScriptHintData'
p2
(dp3
S'vHints'
p4
((I126
I103
ttp5
sS'hHints'
p6
((I0
I81
t(I330
I82
t(I649
I81
t(I984
I-20
ttp7
ssS'org.robofab.fontlab.mark'
p8
I144
s."
LayerCount: 2
Fore
SplineSet
66 0 m 257
 579 0 l 257
 579 177 l 257
 504 177 l 257
 504 81 l 257
 229 81 l 257
 229 330 l 257
 495 330 l 257
 495 412 l 257
 229 412 l 257
 229 649 l 257
 484 649 l 257
 484 556 l 257
 559 556 l 257
 559 730 l 257
 66 730 l 257
 66 662 l 257
 126 662 l 257
 126 68 l 257
 66 68 l 257
 66 0 l 257
250 780 m 257
 440 910 l 257
 384 984 l 257
 207 837 l 257
 250 780 l 257
EndSplineSet
Validated: 9
EndChar

StartChar: Ebreve
Encoding: 276 276 29
Width: 636
VWidth: 0
Flags: W
PickledData: "(dp1
S'org.robofab.postScriptHintData'
p2
(dp3
S'replaceTable'
p4
((dp5
S'index'
p6
I3
sS'type'
p7
I1
s(dp8
g6
I0
sg7
I1
s(dp9
g6
I1
sg7
I1
s(dp10
g6
I2
sg7
I1
s(dp11
g6
I0
sg7
I2
s(dp12
g6
I1
sg7
I255
s(dp13
g6
I4
sg7
I1
s(dp14
g6
I0
sg7
I1
s(dp15
g6
I1
sg7
I1
s(dp16
g6
I2
sg7
I1
s(dp17
g6
I0
sg7
I2
s(dp18
g6
I2
sg7
I255
s(dp19
g6
I3
sg7
I1
s(dp20
g6
I2
sg7
I1
s(dp21
g6
I0
sg7
I2
s(dp22
g6
I1
sg7
I1
s(dp23
g6
I0
sg7
I1
stp24
sS'vHints'
p25
((I126
I103
ttp26
sS'hHints'
p27
((I0
I81
t(I330
I82
t(I649
I81
t(I798
I143
t(I798
I71
ttp28
ssS'org.robofab.fontlab.mark'
p29
I80
s."
LayerCount: 2
Fore
SplineSet
66 662 m 257
 126 662 l 257
 126 649 l 257
 126 68 l 257
 66 68 l 257
 66 0 l 257
 579 0 l 257
 579 177 l 257
 504 177 l 257
 504 81 l 257
 229 81 l 257
 229 330 l 257
 495 330 l 257
 495 412 l 257
 229 412 l 257
 229 649 l 257
 484 649 l 257
 484 556 l 257
 559 556 l 257
 559 730 l 257
 66 730 l 257
 66 662 l 257
450 941 m 257
 450 868 436 798 318 798 c 256
 201 798 187 868 187 941 c 257
 251 941 l 257
 251 904 255 869 318 869 c 256
 381 869 385 904 385 941 c 257
 450 941 l 257
EndSplineSet
Validated: 9
EndChar

StartChar: Ecaron
Encoding: 282 282 30
Width: 636
VWidth: 0
Flags: W
PickledData: "(dp1
S'org.robofab.postScriptHintData'
p2
(dp3
S'vHints'
p4
((I126
I103
ttp5
sS'hHints'
p6
((I0
I81
t(I330
I82
t(I649
I81
t(I985
I-20
ttp7
ssS'org.robofab.fontlab.mark'
p8
I80
s."
LayerCount: 2
Fore
SplineSet
66 0 m 257
 579 0 l 257
 579 177 l 257
 504 177 l 257
 504 81 l 257
 229 81 l 257
 229 330 l 257
 495 330 l 257
 495 412 l 257
 229 412 l 257
 229 649 l 257
 484 649 l 257
 484 556 l 257
 559 556 l 257
 559 730 l 257
 66 730 l 257
 66 662 l 257
 126 662 l 257
 126 68 l 257
 66 68 l 257
 66 0 l 257
443 985 m 257
 335 887 l 257
 226 985 l 257
 180 939 l 257
 312 788 l 257
 357 788 l 257
 489 939 l 257
 443 985 l 257
EndSplineSet
Validated: 9
EndChar

StartChar: Ecircumflex
Encoding: 202 202 31
Width: 636
VWidth: 0
Flags: W
PickledData: "(dp1
S'org.robofab.postScriptHintData'
p2
(dp3
S'vHints'
p4
((I126
I103
ttp5
sS'hHints'
p6
((I0
I81
t(I330
I82
t(I649
I81
t(I979
I-20
ttp7
ssS'org.robofab.fontlab.mark'
p8
I144
s."
LayerCount: 2
Fore
SplineSet
66 662 m 257
 126 662 l 257
 126 649 l 257
 126 68 l 257
 66 68 l 257
 66 0 l 257
 579 0 l 257
 579 177 l 257
 504 177 l 257
 504 81 l 257
 229 81 l 257
 229 330 l 257
 495 330 l 257
 495 412 l 257
 229 412 l 257
 229 649 l 257
 484 649 l 257
 484 556 l 257
 559 556 l 257
 559 730 l 257
 66 730 l 257
 66 662 l 257
213 782 m 257
 321 880 l 257
 430 782 l 257
 476 828 l 257
 344 979 l 257
 299 979 l 257
 167 828 l 257
 213 782 l 257
EndSplineSet
Validated: 9
EndChar

StartChar: Edieresis
Encoding: 203 203 32
Width: 636
VWidth: 0
Flags: W
PickledData: "(dp1
S'org.robofab.postScriptHintData'
p2
(dp3
S'vHints'
p4
((I126
I103
t(I270
I103
t(I484
I75
ttp5
sS'hHints'
p6
((I0
I81
t(I330
I82
t(I649
I81
t(I812
I135
ttp7
ssS'org.robofab.fontlab.mark'
p8
I144
s."
LayerCount: 2
Fore
SplineSet
66 662 m 257
 126 662 l 257
 126 68 l 257
 66 68 l 257
 66 0 l 257
 579 0 l 257
 579 177 l 257
 504 177 l 257
 504 81 l 257
 229 81 l 257
 229 330 l 257
 495 330 l 257
 495 412 l 257
 229 412 l 257
 229 649 l 257
 484 649 l 257
 484 556 l 257
 559 556 l 257
 559 730 l 257
 66 730 l 257
 66 662 l 257
214 812 m 256
 162 812 159 847 159 879 c 256
 159 911 162 947 214 947 c 256
 267 947 270 911 270 879 c 256
 270 847 267 812 214 812 c 256
427 812 m 256
 376 812 373 847 373 879 c 256
 373 911 376 947 427 947 c 256
 481 947 484 911 484 879 c 256
 484 847 481 812 427 812 c 256
EndSplineSet
Validated: 9
EndChar

StartChar: Edotaccent
Encoding: 278 278 33
Width: 636
VWidth: 0
Flags: W
PickledData: "(dp1
S'org.robofab.postScriptHintData'
p2
(dp3
S'vHints'
p4
((I126
I103
t(I264
I128
ttp5
sS'hHints'
p6
((I0
I81
t(I330
I82
t(I649
I81
t(I806
I155
ttp7
ssS'org.robofab.fontlab.mark'
p8
I80
s."
LayerCount: 2
Fore
SplineSet
66 662 m 257
 126 662 l 257
 126 649 l 257
 126 68 l 257
 66 68 l 257
 66 0 l 257
 579 0 l 257
 579 177 l 257
 504 177 l 257
 504 81 l 257
 229 81 l 257
 229 330 l 257
 495 330 l 257
 495 412 l 257
 229 412 l 257
 229 649 l 257
 484 649 l 257
 484 556 l 257
 559 556 l 257
 559 730 l 257
 66 730 l 257
 66 662 l 257
327 806 m 256
 388 806 392 848 392 883 c 256
 392 919 388 961 327 961 c 256
 268 961 264 919 264 883 c 256
 264 848 268 806 327 806 c 256
EndSplineSet
Validated: 9
EndChar

StartChar: Egrave
Encoding: 200 200 34
Width: 636
VWidth: 0
Flags: W
PickledData: "(dp1
S'org.robofab.postScriptHintData'
p2
(dp3
S'vHints'
p4
((I126
I103
ttp5
sS'hHints'
p6
((I0
I81
t(I330
I82
t(I649
I81
t(I984
I-20
ttp7
ssS'org.robofab.fontlab.mark'
p8
I144
s."
LayerCount: 2
Fore
SplineSet
66 0 m 257
 579 0 l 257
 579 177 l 257
 504 177 l 257
 504 81 l 257
 229 81 l 257
 229 330 l 257
 495 330 l 257
 495 412 l 257
 229 412 l 257
 229 649 l 257
 484 649 l 257
 484 556 l 257
 559 556 l 257
 559 730 l 257
 66 730 l 257
 66 662 l 257
 126 662 l 257
 126 68 l 257
 66 68 l 257
 66 0 l 257
393 780 m 257
 203 910 l 257
 259 984 l 257
 436 837 l 257
 393 780 l 257
EndSplineSet
Validated: 9
EndChar

StartChar: Emacron
Encoding: 274 274 35
Width: 636
VWidth: 0
Flags: W
PickledData: "(dp1
S'org.robofab.postScriptHintData'
p2
(dp3
S'vHints'
p4
((I126
I103
ttp5
sS'hHints'
p6
((I0
I81
t(I330
I82
t(I649
I81
t(I840
I81
ttp7
ssS'org.robofab.fontlab.mark'
p8
I80
s."
LayerCount: 2
Fore
SplineSet
66 0 m 257
 579 0 l 257
 579 177 l 257
 504 177 l 257
 504 81 l 257
 229 81 l 257
 229 330 l 257
 495 330 l 257
 495 412 l 257
 229 412 l 257
 229 649 l 257
 484 649 l 257
 484 556 l 257
 559 556 l 257
 559 730 l 257
 66 730 l 257
 66 662 l 257
 126 662 l 257
 126 68 l 257
 66 68 l 257
 66 0 l 257
187 840 m 257
 449 840 l 257
 449 921 l 257
 187 921 l 257
 187 840 l 257
EndSplineSet
Validated: 9
EndChar

StartChar: Eng
Encoding: 330 330 36
Width: 789
VWidth: 0
Flags: W
PickledData: "(dp1
S'org.robofab.postScriptHintData'
p2
(dp3
S'vHints'
p4
((I126
I103
t(I570
I103
ttp5
sS'hHints'
p6
((I0
I68
t(I662
I68
t(I-195
I-21
ttp7
ssS'org.robofab.fontlab.mark'
p8
I80
s."
LayerCount: 2
Fore
SplineSet
510 662 m 257
 570 662 l 257
 570 172 l 257
 237 730 l 257
 66 730 l 257
 66 662 l 257
 126 662 l 257
 126 68 l 257
 66 68 l 257
 66 0 l 257
 289 0 l 257
 289 68 l 257
 229 68 l 257
 229 557 l 257
 572 -16 l 257
 572 -48 l 258
 572 -108 562 -132 503 -137 c 258
 438 -142 l 257
 438 -216 l 257
 527 -216 l 258
 649 -216 673 -157 673 -60 c 258
 673 662 l 257
 733 662 l 257
 733 730 l 257
 510 730 l 257
 510 662 l 257
EndSplineSet
Validated: 9
EndChar

StartChar: Eogonek
Encoding: 280 280 37
Width: 636
VWidth: 0
Flags: W
PickledData: "(dp1
S'org.robofab.postScriptHintData'
p2
(dp3
S'vHints'
p4
((I126
I103
t(I377
I73
ttp5
sS'hHints'
p6
((I-232
I64
t(I0
I81
t(I330
I82
t(I649
I81
ttp7
ssS'org.robofab.fontlab.mark'
p8
I80
s."
LayerCount: 2
Fore
SplineSet
66 0 m 257
 479 0 l 257
 462 -9 l 258
 394 -44 377 -80 377 -131 c 256
 377 -195 414 -232 487 -232 c 256
 546 -232 597 -196 625 -141 c 257
 575 -108 l 257
 558 -145 528 -168 497 -168 c 256
 466 -168 450 -149 450 -121 c 256
 450 -95 456 -79 497 -53 c 258
 579 0 l 257
 579 177 l 257
 504 177 l 257
 504 81 l 257
 229 81 l 257
 229 330 l 257
 495 330 l 257
 495 412 l 257
 229 412 l 257
 229 649 l 257
 484 649 l 257
 484 556 l 257
 559 556 l 257
 559 730 l 257
 66 730 l 257
 66 662 l 257
 126 662 l 257
 126 68 l 257
 66 68 l 257
 66 0 l 257
EndSplineSet
Validated: 9
EndChar

StartChar: Eth
Encoding: 208 208 38
Width: 696
VWidth: 0
Flags: W
PickledData: "(dp1
S'org.robofab.postScriptHintData'
p2
(dp3
S'vHints'
p4
((I126
I103
t(I540
I104
ttp5
sS'hHints'
p6
((I0
I85
t(I325
I76
t(I645
I85
ttp7
ssS'org.robofab.fontlab.maskData'
p8
((dp9
S'method'
p10
S'beginPath'
p11
s(dp12
S'segmentType'
p13
S'line'
p14
sS'smooth'
p15
I00
sg10
S'addPoint'
p16
sS'pt'
p17
(I134
I730
tp18
s(dp19
g13
S'line'
p20
sg15
I00
sg10
S'addPoint'
p21
sg17
(I134
I0
tp22
s(dp23
g13
S'line'
p24
sg15
I00
sg10
S'addPoint'
p25
sg17
(I206
I0
tp26
s(dp27
g13
S'line'
p28
sg15
I00
sg10
S'addPoint'
p29
sg17
(I206
I730
tp30
s(dp31
g10
S'endPath'
p32
s(dp33
g10
S'beginPath'
p34
s(dp35
g13
S'line'
p36
sg15
I00
sg10
S'addPoint'
p37
sg17
(I206
I730
tp38
s(dp39
g13
S'line'
p40
sg15
I00
sg10
S'addPoint'
p41
sg17
(I206
I668
tp42
s(dp43
g13
S'line'
p44
sg15
I01
sg10
S'addPoint'
p45
sg17
(I359
I668
tp46
s(dp47
g10
S'addPoint'
p48
sg17
(I549
I668
tp49
s(dp50
g10
S'addPoint'
p51
sg17
(I570
I553
tp52
s(dp53
g13
S'curve'
p54
sg15
I01
sg10
S'addPoint'
p55
sg17
(I570
I365
tp56
s(dp57
g10
S'addPoint'
p58
sg17
(I570
I177
tp59
s(dp60
g10
S'addPoint'
p61
sg17
(I549
I62
tp62
s(dp63
g13
S'curve'
p64
sg15
I01
sg10
S'addPoint'
p65
sg17
(I359
I62
tp66
s(dp67
g13
S'line'
p68
sg15
I00
sg10
S'addPoint'
p69
sg17
(I206
I62
tp70
s(dp71
g13
S'line'
p72
sg15
I00
sg10
S'addPoint'
p73
sg17
(I206
I0
tp74
s(dp75
g13
S'line'
p76
sg15
I01
sg10
S'addPoint'
p77
sg17
(I359
I0
tp78
s(dp79
g10
S'addPoint'
p80
sg17
(I614
I0
tp81
s(dp82
g10
S'addPoint'
p83
sg17
(I642
I137
tp84
s(dp85
g13
S'curve'
p86
sg15
I01
sg10
S'addPoint'
p87
sg17
(I642
I365
tp88
s(dp89
g10
S'addPoint'
p90
sg17
(I642
I591
tp91
s(dp92
g10
S'addPoint'
p93
sg17
(I614
I730
tp94
s(dp95
g13
S'curve'
p96
sg15
I01
sg10
S'addPoint'
p97
sg17
(I359
I730
tp98
s(dp99
g10
S'endPath'
p100
stp101
sS'org.robofab.fontlab.mark'
p102
I144
s."
LayerCount: 2
Fore
SplineSet
229 730 m 257
 66 730 l 257
 66 654 l 257
 126 654 l 257
 126 401 l 257
 66 401 l 257
 66 325 l 257
 126 325 l 257
 126 75 l 257
 66 75 l 257
 66 0 l 257
 355 0 l 258
 615 0 644 137 644 365 c 256
 644 591 615 730 355 730 c 258
 229 730 l 257
346 645 m 258
 521 645 540 539 540 365 c 256
 540 191 521 85 346 85 c 258
 229 85 l 257
 229 325 l 257
 418 325 l 257
 418 401 l 257
 229 401 l 257
 229 645 l 257
 346 645 l 258
EndSplineSet
Validated: 9
EndChar

StartChar: Euro
Encoding: 8364 8364 39
Width: 588
VWidth: 0
Flags: W
PickledData: "(dp1
S'org.robofab.postScriptHintData'
p2
(dp3
S'vHints'
p4
((I102
I100
t(I465
I90
ttp5
sS'hHints'
p6
((I-14
I82
t(I229
I70
t(I371
I70
t(I602
I82
ttp7
ssS'org.robofab.fontlab.mark'
p8
I80
s."
LayerCount: 2
Fore
SplineSet
39 371 m 257
 99 371 l 257
 99 335 l 257
 99 299 l 257
 39 299 l 257
 39 229 l 257
 102 229 l 257
 113 79 159 -14 341 -14 c 256
 498 -14 553 51 555 160 c 257
 466 167 l 257
 466 101 420 68 341 68 c 256
 239 68 210 123 202 229 c 257
 397 229 l 257
 397 299 l 257
 200 299 l 257
 200 335 l 257
 200 371 l 257
 397 371 l 257
 397 441 l 257
 202 441 l 257
 210 546 239 602 341 602 c 256
 419 602 465 569 465 505 c 257
 555 512 l 257
 552 619 497 684 342 684 c 256
 160 684 113 590 102 441 c 257
 39 441 l 257
 39 371 l 257
EndSplineSet
Validated: 9
EndChar

StartChar: F
Encoding: 70 70 40
Width: 572
VWidth: 0
Flags: W
PickledData: "(dp1
S'org.robofab.postScriptHintData'
p2
(dp3
S'vHints'
p4
((I126
I103
ttp5
sS'hHints'
p6
((I0
I69
t(I330
I82
t(I649
I81
ttp7
ssS'org.robofab.fontlab.maskData'
p8
((dp9
S'method'
p10
S'beginPath'
p11
s(dp12
S'segmentType'
p13
S'line'
p14
sS'smooth'
p15
I00
sg10
S'addPoint'
p16
sS'pt'
p17
(I362
I700
tp18
s(dp19
g13
S'line'
p20
sg15
I01
sg10
S'addPoint'
p21
sg17
(I362
I168
tp22
s(dp23
g10
S'addPoint'
p24
sg17
(I362
I17
tp25
s(dp26
g10
S'addPoint'
p27
sg17
(I395
I-14
tp28
s(dp29
g13
S'curve'
p30
sg15
I00
sg10
S'addPoint'
p31
sg17
(I395
I-14
tp32
s(dp33
g13
S'line'
p34
sg15
I00
sg10
S'addPoint'
p35
sg17
(I443
I0
tp36
s(dp37
g10
S'addPoint'
p38
sg17
(I443
I0
tp39
s(dp40
g10
S'addPoint'
p41
sg17
(I432
I41
tp42
s(dp43
g13
S'curve'
p44
sg15
I01
sg10
S'addPoint'
p45
sg17
(I432
I168
tp46
s(dp47
g13
S'line'
p48
sg15
I00
sg10
S'addPoint'
p49
sg17
(I432
I700
tp50
s(dp51
g10
S'endPath'
p52
s(dp53
g10
S'beginPath'
p54
s(dp55
g13
S'line'
p56
sg15
I00
sg10
S'addPoint'
p57
sg17
(I294
I512
tp58
s(dp59
g13
S'line'
p60
sg15
I00
sg10
S'addPoint'
p61
sg17
(I533
I512
tp62
s(dp63
g13
S'line'
p64
sg15
I00
sg10
S'addPoint'
p65
sg17
(I533
I572
tp66
s(dp67
g13
S'line'
p68
sg15
I00
sg10
S'addPoint'
p69
sg17
(I294
I572
tp70
s(dp71
g10
S'endPath'
p72
s(dp73
g10
S'beginPath'
p74
s(dp75
g13
S'line'
p76
sg15
I00
sg10
S'addPoint'
p77
sg17
(I541
I52
tp78
s(dp79
g10
S'addPoint'
p80
sg17
(I519
I47
tp81
s(dp82
g10
S'addPoint'
p83
sg17
(I501
I44
tp84
s(dp85
g13
S'curve'
p86
sg15
I01
sg10
S'addPoint'
p87
sg17
(I486
I44
tp88
s(dp89
g10
S'addPoint'
p90
sg17
(I447
I44
tp91
s(dp92
g10
S'addPoint'
p93
sg17
(I432
I66
tp94
s(dp95
g13
S'curve'
p96
sg15
I01
sg10
S'addPoint'
p97
sg17
(I432
I128
tp98
s(dp99
g13
S'line'
p100
sg15
I00
sg10
S'addPoint'
p101
sg17
(I432
I700
tp102
s(dp103
g13
S'line'
p104
sg15
I00
sg10
S'addPoint'
p105
sg17
(I362
I700
tp106
s(dp107
g13
S'line'
p108
sg15
I01
sg10
S'addPoint'
p109
sg17
(I362
I125
tp110
s(dp111
g10
S'addPoint'
p112
sg17
(I362
I55
tp113
s(dp114
g10
S'addPoint'
p115
sg17
(I370
I-14
tp116
s(dp117
g13
S'curve'
p118
sg15
I01
sg10
S'addPoint'
p119
sg17
(I464
I-14
tp120
s(dp121
g10
S'addPoint'
p122
sg17
(I487
I-14
tp123
s(dp124
g10
S'addPoint'
p125
sg17
(I516
I-10
tp126
s(dp127
g13
S'curve'
p128
sg15
I00
sg10
S'addPoint'
p129
sg17
(I552
I0
tp130
s(dp131
g10
S'endPath'
p132
s(dp133
g10
S'beginPath'
p134
s(dp135
g13
S'line'
p136
sg15
I00
sg10
S'addPoint'
p137
sg17
(I486
I281
tp138
s(dp139
g13
S'line'
p140
sg15
I00
sg10
S'addPoint'
p141
sg17
(I486
I475
tp142
s(dp143
g13
S'line'
p144
sg15
I00
sg10
S'addPoint'
p145
sg17
(I410
I475
tp146
s(dp147
g13
S'line'
p148
sg15
I00
sg10
S'addPoint'
p149
sg17
(I410
I281
tp150
s(dp151
g10
S'endPath'
p152
stp153
sS'org.robofab.fontlab.mark'
p154
I144
s."
LayerCount: 2
Fore
SplineSet
66 662 m 257
 126 662 l 257
 126 649 l 257
 126 69 l 257
 66 69 l 257
 66 0 l 257
 309 0 l 257
 309 69 l 257
 229 69 l 257
 229 330 l 257
 475 330 l 257
 475 412 l 257
 229 412 l 257
 229 649 l 257
 464 649 l 257
 464 556 l 257
 539 556 l 257
 539 730 l 257
 66 730 l 257
 66 662 l 257
EndSplineSet
Validated: 9
EndChar

StartChar: G
Encoding: 71 71 41
Width: 681
VWidth: 0
Flags: W
PickledData: "(dp1
S'org.robofab.postScriptHintData'
p2
(dp3
S'replaceTable'
p4
((dp5
S'index'
p6
I1
sS'type'
p7
I1
s(dp8
g6
I0
sg7
I1
s(dp9
g6
I0
sg7
I2
s(dp10
g6
I2
sg7
I1
s(dp11
g6
I1
sg7
I2
s(dp12
g6
I8
sg7
I255
s(dp13
g6
I3
sg7
I1
s(dp14
g6
I0
sg7
I1
s(dp15
g6
I1
sg7
I1
s(dp16
g6
I0
sg7
I2
s(dp17
g6
I1
sg7
I2
s(dp18
g6
I11
sg7
I255
s(dp19
g6
I2
sg7
I1
s(dp20
g6
I0
sg7
I2
s(dp21
g6
I0
sg7
I1
s(dp22
g6
I1
sg7
I1
s(dp23
g6
I1
sg7
I2
s(dp24
g6
I15
sg7
I255
s(dp25
g6
I4
sg7
I1
s(dp26
g6
I1
sg7
I2
s(dp27
g6
I1
sg7
I1
s(dp28
g6
I2
sg7
I1
s(dp29
g6
I0
sg7
I2
stp30
sS'vHints'
p31
((I52
I103
t(I504
I81
ttp32
sS'hHints'
p33
((I-14
I84
t(I301
I68
t(I662
I82
t(I730
I-20
t(I21
I-21
ttp34
ssS'org.robofab.fontlab.maskData'
p35
((dp36
S'method'
p37
S'beginPath'
p38
s(dp39
S'segmentType'
p40
S'line'
p41
sS'smooth'
p42
I00
sg37
S'addPoint'
p43
sS'pt'
p44
(I531
I0
tp45
s(dp46
g40
S'line'
p47
sg42
I00
sg37
S'addPoint'
p48
sg44
(I592
I0
tp49
s(dp50
g40
S'line'
p51
sg42
I00
sg37
S'addPoint'
p52
sg44
(I592
I369
tp53
s(dp54
g40
S'line'
p55
sg42
I00
sg37
S'addPoint'
p56
sg44
(I495
I369
tp57
s(dp58
g40
S'line'
p59
sg42
I00
sg37
S'addPoint'
p60
sg44
(I495
I151
tp61
s(dp62
g37
S'endPath'
p63
s(dp64
g37
S'beginPath'
p65
s(dp66
g40
S'curve'
p67
sg42
I01
sg37
S'addPoint'
p68
sg44
(I327
I-14
tp69
s(dp70
g37
S'addPoint'
p71
sg44
(I525
I-14
tp72
s(dp73
g37
S'addPoint'
p74
sg44
(I551
I124
tp75
s(dp76
g40
S'curve'
p77
sg42
I00
sg37
S'addPoint'
p78
sg44
(I561
I268
tp79
s(dp80
g40
S'line'
p81
sg42
I00
sg37
S'addPoint'
p82
sg44
(I496
I231
tp83
s(dp84
g37
S'addPoint'
p85
sg44
(I493
I139
tp86
s(dp87
g37
S'addPoint'
p88
sg44
(I453
I71
tp89
s(dp90
g40
S'curve'
p91
sg42
I01
sg37
S'addPoint'
p92
sg44
(I332
I71
tp93
s(dp94
g37
S'addPoint'
p95
sg44
(I164
I71
tp96
s(dp97
g37
S'addPoint'
p98
sg44
(I155
I184
tp99
s(dp100
g40
S'curve'
p101
sg42
I01
sg37
S'addPoint'
p102
sg44
(I155
I365
tp103
s(dp104
g37
S'addPoint'
p105
sg44
(I155
I550
tp106
s(dp107
g37
S'addPoint'
p108
sg44
(I173
I661
tp109
s(dp110
g40
S'curve'
p111
sg42
I01
sg37
S'addPoint'
p112
sg44
(I342
I661
tp113
s(dp114
g37
S'addPoint'
p115
sg44
(I464
I661
tp116
s(dp117
g37
S'addPoint'
p118
sg44
(I500
I594
tp119
s(dp120
g40
S'curve'
p121
sg42
I00
sg37
S'addPoint'
p122
sg44
(I507
I494
tp123
s(dp124
g40
S'line'
p125
sg42
I00
sg37
S'addPoint'
p126
sg44
(I546
I494
tp127
s(dp128
g37
S'addPoint'
p129
sg44
(I546
I643
tp130
s(dp131
g37
S'addPoint'
p132
sg44
(I501
I744
tp133
s(dp134
g40
S'curve'
p135
sg42
I01
sg37
S'addPoint'
p136
sg44
(I337
I744
tp137
s(dp138
g37
S'addPoint'
p139
sg44
(I89
I744
tp140
s(dp141
g37
S'addPoint'
p142
sg44
(I52
I602
tp143
s(dp144
g40
S'curve'
p145
sg42
I01
sg37
S'addPoint'
p146
sg44
(I52
I365
tp147
s(dp148
g37
S'addPoint'
p149
sg44
(I52
I130
tp150
s(dp151
g37
S'addPoint'
p152
sg44
(I76
I-14
tp153
s(dp154
g37
S'endPath'
p155
s(dp156
g37
S'beginPath'
p157
s(dp158
g40
S'line'
p159
sg42
I00
sg37
S'addPoint'
p160
sg44
(I503
I730
tp161
s(dp162
g40
S'line'
p163
sg42
I00
sg37
S'addPoint'
p164
sg44
(I508
I494
tp165
s(dp166
g40
S'line'
p167
sg42
I00
sg37
S'addPoint'
p168
sg44
(I583
I494
tp169
s(dp170
g40
S'line'
p171
sg42
I00
sg37
S'addPoint'
p172
sg44
(I583
I730
tp173
s(dp174
g37
S'endPath'
p175
s(dp176
g37
S'beginPath'
p177
s(dp178
g40
S'line'
p179
sg42
I00
sg37
S'addPoint'
p180
sg44
(I408
I293
tp181
s(dp182
g40
S'line'
p183
sg42
I00
sg37
S'addPoint'
p184
sg44
(I632
I293
tp185
s(dp186
g40
S'line'
p187
sg42
I00
sg37
S'addPoint'
p188
sg44
(I632
I369
tp189
s(dp190
g40
S'line'
p191
sg42
I00
sg37
S'addPoint'
p192
sg44
(I408
I369
tp193
s(dp194
g37
S'endPath'
p195
stp196
sS'org.robofab.fontlab.mark'
p197
I144
s."
LayerCount: 2
Fore
SplineSet
382 301 m 257
 495 301 l 257
 495 212 l 257
 487 124 444 70 332 70 c 256
 168 70 155 174 155 365 c 256
 155 550 173 662 342 662 c 256
 464 662 497 594 504 494 c 257
 578 494 l 257
 578 730 l 257
 503 730 l 257
 503 666 l 257
 473 715 420 744 337 744 c 256
 89 744 52 602 52 365 c 256
 52 130 76 -14 327 -14 c 256
 423 -14 481 23 515 74 c 257
 531 0 l 257
 585 0 l 257
 585 369 l 257
 382 369 l 257
 382 301 l 257
EndSplineSet
Validated: 9
EndChar

StartChar: Gbreve
Encoding: 286 286 42
Width: 681
VWidth: 0
Flags: W
PickledData: "(dp1
S'org.robofab.postScriptHintData'
p2
(dp3
S'replaceTable'
p4
((dp5
S'index'
p6
I3
sS'type'
p7
I1
s(dp8
g6
I0
sg7
I1
s(dp9
g6
I1
sg7
I1
s(dp10
g6
I2
sg7
I1
s(dp11
g6
I0
sg7
I2
s(dp12
g6
I1
sg7
I2
s(dp13
g6
I1
sg7
I255
s(dp14
g6
I4
sg7
I1
s(dp15
g6
I0
sg7
I1
s(dp16
g6
I1
sg7
I1
s(dp17
g6
I2
sg7
I1
s(dp18
g6
I0
sg7
I2
s(dp19
g6
I1
sg7
I2
s(dp20
g6
I2
sg7
I255
s(dp21
g6
I3
sg7
I1
s(dp22
g6
I1
sg7
I1
s(dp23
g6
I1
sg7
I2
s(dp24
g6
I5
sg7
I1
s(dp25
g6
I2
sg7
I1
s(dp26
g6
I0
sg7
I2
s(dp27
g6
I11
sg7
I255
s(dp28
g6
I0
sg7
I1
s(dp29
g6
I0
sg7
I2
s(dp30
g6
I2
sg7
I1
s(dp31
g6
I1
sg7
I1
s(dp32
g6
I3
sg7
I1
s(dp33
g6
I1
sg7
I2
s(dp34
g6
I15
sg7
I255
s(dp35
g6
I6
sg7
I1
s(dp36
g6
I1
sg7
I2
s(dp37
g6
I0
sg7
I1
s(dp38
g6
I1
sg7
I1
s(dp39
g6
I3
sg7
I1
s(dp40
g6
I0
sg7
I2
s(dp41
g6
I19
sg7
I255
s(dp42
g6
I2
sg7
I1
s(dp43
g6
I0
sg7
I2
s(dp44
g6
I0
sg7
I1
s(dp45
g6
I1
sg7
I1
s(dp46
g6
I3
sg7
I1
s(dp47
g6
I1
sg7
I2
stp48
sS'vHints'
p49
((I52
I103
t(I504
I81
ttp50
sS'hHints'
p51
((I-14
I84
t(I301
I68
t(I662
I82
t(I798
I143
t(I798
I71
t(I21
I-21
t(I730
I-20
ttp52
ssS'org.robofab.fontlab.mark'
p53
I80
s."
LayerCount: 2
Fore
SplineSet
382 301 m 257
 495 301 l 257
 495 212 l 257
 487 124 444 70 332 70 c 256
 168 70 155 174 155 365 c 256
 155 550 173 662 342 662 c 256
 464 662 497 594 504 494 c 257
 578 494 l 257
 578 730 l 257
 503 730 l 257
 503 666 l 257
 473 715 420 744 337 744 c 256
 89 744 52 602 52 365 c 256
 52 130 76 -14 327 -14 c 256
 423 -14 481 23 515 74 c 257
 531 0 l 257
 585 0 l 257
 585 369 l 257
 382 369 l 257
 382 301 l 257
467 941 m 257
 467 868 453 798 335 798 c 256
 218 798 204 868 204 941 c 257
 268 941 l 257
 268 904 272 869 335 869 c 256
 398 869 402 904 402 941 c 257
 467 941 l 257
EndSplineSet
Validated: 9
EndChar

StartChar: Gcircumflex
Encoding: 284 284 43
Width: 681
VWidth: 0
Flags: W
PickledData: "(dp1
S'org.robofab.postScriptHintData'
p2
(dp3
S'replaceTable'
p4
((dp5
S'index'
p6
I1
sS'type'
p7
I1
s(dp8
g6
I0
sg7
I1
s(dp9
g6
I0
sg7
I2
s(dp10
g6
I2
sg7
I1
s(dp11
g6
I1
sg7
I2
s(dp12
g6
I5
sg7
I1
s(dp13
g6
I8
sg7
I255
s(dp14
g6
I3
sg7
I1
s(dp15
g6
I0
sg7
I1
s(dp16
g6
I1
sg7
I1
s(dp17
g6
I5
sg7
I1
s(dp18
g6
I0
sg7
I2
s(dp19
g6
I1
sg7
I2
s(dp20
g6
I11
sg7
I255
s(dp21
g6
I2
sg7
I1
s(dp22
g6
I0
sg7
I2
s(dp23
g6
I0
sg7
I1
s(dp24
g6
I1
sg7
I1
s(dp25
g6
I5
sg7
I1
s(dp26
g6
I1
sg7
I2
s(dp27
g6
I15
sg7
I255
s(dp28
g6
I4
sg7
I1
s(dp29
g6
I1
sg7
I2
s(dp30
g6
I1
sg7
I1
s(dp31
g6
I5
sg7
I1
s(dp32
g6
I2
sg7
I1
s(dp33
g6
I0
sg7
I2
stp34
sS'vHints'
p35
((I52
I103
t(I504
I81
ttp36
sS'hHints'
p37
((I-14
I84
t(I301
I68
t(I662
I82
t(I730
I-20
t(I21
I-21
t(I979
I-20
ttp38
ssS'org.robofab.fontlab.mark'
p39
I80
s."
LayerCount: 2
Fore
SplineSet
382 301 m 257
 495 301 l 257
 495 212 l 257
 487 124 444 70 332 70 c 256
 168 70 155 174 155 365 c 256
 155 550 173 662 342 662 c 256
 464 662 497 594 504 494 c 257
 578 494 l 257
 578 730 l 257
 503 730 l 257
 503 666 l 257
 473 715 420 744 337 744 c 256
 89 744 52 602 52 365 c 256
 52 130 76 -14 327 -14 c 256
 423 -14 481 23 515 74 c 257
 531 0 l 257
 585 0 l 257
 585 369 l 257
 382 369 l 257
 382 301 l 257
229 782 m 257
 337 880 l 257
 446 782 l 257
 492 828 l 257
 360 979 l 257
 315 979 l 257
 183 828 l 257
 229 782 l 257
EndSplineSet
Validated: 9
EndChar

StartChar: Gdotaccent
Encoding: 288 288 44
Width: 681
VWidth: 0
Flags: W
PickledData: "(dp1
S'org.robofab.postScriptHintData'
p2
(dp3
S'replaceTable'
p4
((dp5
S'index'
p6
I1
sS'type'
p7
I1
s(dp8
g6
I0
sg7
I1
s(dp9
g6
I0
sg7
I2
s(dp10
g6
I2
sg7
I1
s(dp11
g6
I2
sg7
I2
s(dp12
g6
I3
sg7
I1
s(dp13
g6
I1
sg7
I2
s(dp14
g6
I8
sg7
I255
s(dp15
g6
I4
sg7
I1
s(dp16
g6
I0
sg7
I1
s(dp17
g6
I1
sg7
I1
s(dp18
g6
I3
sg7
I1
s(dp19
g6
I0
sg7
I2
s(dp20
g6
I1
sg7
I2
s(dp21
g6
I2
sg7
I2
s(dp22
g6
I11
sg7
I255
s(dp23
g6
I2
sg7
I1
s(dp24
g6
I0
sg7
I2
s(dp25
g6
I0
sg7
I1
s(dp26
g6
I1
sg7
I1
s(dp27
g6
I3
sg7
I1
s(dp28
g6
I1
sg7
I2
s(dp29
g6
I2
sg7
I2
s(dp30
g6
I15
sg7
I255
s(dp31
g6
I5
sg7
I1
s(dp32
g6
I2
sg7
I2
s(dp33
g6
I1
sg7
I1
s(dp34
g6
I3
sg7
I1
s(dp35
g6
I1
sg7
I2
s(dp36
g6
I2
sg7
I1
s(dp37
g6
I0
sg7
I2
stp38
sS'vHints'
p39
((I52
I103
t(I277
I128
t(I504
I81
ttp40
sS'hHints'
p41
((I-14
I84
t(I301
I68
t(I662
I82
t(I806
I155
t(I730
I-20
t(I21
I-21
ttp42
ssS'org.robofab.fontlab.mark'
p43
I80
s."
LayerCount: 2
Fore
SplineSet
382 301 m 257
 495 301 l 257
 495 212 l 257
 487 124 444 70 332 70 c 256
 168 70 155 174 155 365 c 256
 155 550 173 662 342 662 c 256
 464 662 497 594 504 494 c 257
 578 494 l 257
 578 730 l 257
 503 730 l 257
 503 666 l 257
 473 715 420 744 337 744 c 256
 89 744 52 602 52 365 c 256
 52 130 76 -14 327 -14 c 256
 423 -14 481 23 515 74 c 257
 531 0 l 257
 585 0 l 257
 585 369 l 257
 382 369 l 257
 382 301 l 257
340 806 m 256
 401 806 405 848 405 883 c 256
 405 919 401 961 340 961 c 256
 281 961 277 919 277 883 c 256
 277 848 281 806 340 806 c 256
EndSplineSet
Validated: 9
EndChar

StartChar: H
Encoding: 72 72 45
Width: 775
VWidth: 0
Flags: W
PickledData: "(dp1
S'org.robofab.postScriptHintData'
p2
(dp3
S'vHints'
p4
((I126
I103
t(I546
I103
ttp5
sS'hHints'
p6
((I0
I68
t(I324
I82
t(I662
I68
ttp7
ssS'org.robofab.fontlab.mark'
p8
I144
s."
LayerCount: 2
Fore
SplineSet
486 0 m 257
 709 0 l 257
 709 68 l 257
 649 68 l 257
 649 662 l 257
 709 662 l 257
 709 730 l 257
 486 730 l 257
 486 662 l 257
 546 662 l 257
 546 406 l 257
 229 406 l 257
 229 662 l 257
 289 662 l 257
 289 730 l 257
 66 730 l 257
 66 662 l 257
 126 662 l 257
 126 68 l 257
 66 68 l 257
 66 0 l 257
 289 0 l 257
 289 68 l 257
 229 68 l 257
 229 324 l 257
 546 324 l 257
 546 68 l 257
 486 68 l 257
 486 0 l 257
EndSplineSet
Validated: 9
EndChar

StartChar: Hbar
Encoding: 294 294 46
Width: 775
VWidth: 0
Flags: W
PickledData: "(dp1
S'org.robofab.postScriptHintData'
p2
(dp3
S'vHints'
p4
((I126
I103
t(I546
I103
ttp5
sS'hHints'
p6
((I0
I68
t(I324
I82
t(I498
I68
t(I662
I68
ttp7
ssS'org.robofab.fontlab.mark'
p8
I80
s."
LayerCount: 2
Fore
SplineSet
66 662 m 257
 126 662 l 257
 126 566 l 257
 30 566 l 257
 30 498 l 257
 126 498 l 257
 126 68 l 257
 66 68 l 257
 66 0 l 257
 289 0 l 257
 289 68 l 257
 229 68 l 257
 229 324 l 257
 546 324 l 257
 546 68 l 257
 486 68 l 257
 486 0 l 257
 709 0 l 257
 709 68 l 257
 649 68 l 257
 649 498 l 257
 746 498 l 257
 746 566 l 257
 649 566 l 257
 649 662 l 257
 709 662 l 257
 709 730 l 257
 486 730 l 257
 486 662 l 257
 546 662 l 257
 546 566 l 257
 229 566 l 257
 229 662 l 257
 289 662 l 257
 289 730 l 257
 66 730 l 257
 66 662 l 257
229 498 m 257
 546 498 l 257
 546 406 l 257
 229 406 l 257
 229 498 l 257
EndSplineSet
Validated: 9
EndChar

StartChar: Hcircumflex
Encoding: 292 292 47
Width: 775
VWidth: 0
Flags: W
PickledData: "(dp1
S'org.robofab.postScriptHintData'
p2
(dp3
S'vHints'
p4
((I126
I103
t(I546
I103
ttp5
sS'hHints'
p6
((I0
I68
t(I324
I82
t(I662
I68
t(I979
I-20
ttp7
ssS'org.robofab.fontlab.mark'
p8
I80
s."
LayerCount: 2
Fore
SplineSet
486 0 m 257
 709 0 l 257
 709 68 l 257
 649 68 l 257
 649 662 l 257
 709 662 l 257
 709 730 l 257
 486 730 l 257
 486 662 l 257
 546 662 l 257
 546 406 l 257
 229 406 l 257
 229 662 l 257
 289 662 l 257
 289 730 l 257
 66 730 l 257
 66 662 l 257
 126 662 l 257
 126 68 l 257
 66 68 l 257
 66 0 l 257
 289 0 l 257
 289 68 l 257
 229 68 l 257
 229 324 l 257
 546 324 l 257
 546 68 l 257
 486 68 l 257
 486 0 l 257
280 782 m 257
 388 880 l 257
 497 782 l 257
 543 828 l 257
 411 979 l 257
 366 979 l 257
 234 828 l 257
 280 782 l 257
EndSplineSet
Validated: 9
EndChar

StartChar: I
Encoding: 73 73 48
Width: 368
VWidth: 0
Flags: W
PickledData: "(dp1
S'org.robofab.postScriptHintData'
p2
(dp3
S'vHints'
p4
((I132
I103
ttp5
sS'hHints'
p6
((I0
I68
t(I662
I68
ttp7
ssS'org.robofab.fontlab.mark'
p8
I144
s."
LayerCount: 2
Fore
SplineSet
66 662 m 257
 132 662 l 257
 132 68 l 257
 66 68 l 257
 66 0 l 257
 301 0 l 257
 301 68 l 257
 235 68 l 257
 235 662 l 257
 301 662 l 257
 301 730 l 257
 66 730 l 257
 66 662 l 257
EndSplineSet
Validated: 9
EndChar

StartChar: IJ
Encoding: 306 306 49
Width: 856
VWidth: 0
Flags: W
PickledData: "(dp1
S'org.robofab.postScriptHintData'
p2
(dp3
S'replaceTable'
p4
((dp5
S'index'
p6
I2
sS'type'
p7
I1
s(dp8
g6
I2
sg7
I2
s(dp9
g6
I0
sg7
I1
s(dp10
g6
I1
sg7
I2
s(dp11
g6
I0
sg7
I2
s(dp12
g6
I16
sg7
I255
s(dp13
g6
I1
sg7
I1
s(dp14
g6
I0
sg7
I2
s(dp15
g6
I2
sg7
I1
s(dp16
g6
I1
sg7
I2
s(dp17
g6
I2
sg7
I2
stp18
sS'vHints'
p19
((I132
I103
t(I384
I89
t(I654
I103
ttp20
sS'hHints'
p21
((I-14
I84
t(I0
I70
t(I662
I68
ttp22
ssS'org.robofab.fontlab.mark'
p23
I80
s."
LayerCount: 2
Fore
SplineSet
574 662 m 257
 654 662 l 257
 654 183 l 258
 654 98 637 70 565 70 c 256
 493 70 473 103 473 195 c 257
 384 195 l 257
 384 81 390 -14 563 -14 c 256
 741 -14 757 76 757 183 c 258
 757 662 l 257
 817 662 l 257
 817 730 l 257
 574 730 l 257
 574 662 l 257
66 662 m 257
 132 662 l 257
 132 68 l 257
 66 68 l 257
 66 0 l 257
 301 0 l 257
 301 68 l 257
 235 68 l 257
 235 662 l 257
 301 662 l 257
 301 730 l 257
 66 730 l 257
 66 662 l 257
EndSplineSet
Validated: 9
EndChar

StartChar: Iacute
Encoding: 205 205 50
Width: 368
VWidth: 0
Flags: W
PickledData: "(dp1
S'org.robofab.postScriptHintData'
p2
(dp3
S'vHints'
p4
((I132
I103
ttp5
sS'hHints'
p6
((I0
I68
t(I662
I68
t(I984
I-20
ttp7
ssS'org.robofab.fontlab.mark'
p8
I144
s."
LayerCount: 2
Fore
SplineSet
66 662 m 257
 132 662 l 257
 132 68 l 257
 66 68 l 257
 66 0 l 257
 301 0 l 257
 301 68 l 257
 235 68 l 257
 235 662 l 257
 301 662 l 257
 301 730 l 257
 66 730 l 257
 66 662 l 257
133 780 m 257
 323 910 l 257
 267 984 l 257
 90 837 l 257
 133 780 l 257
EndSplineSet
Validated: 9
EndChar

StartChar: Ibreve
Encoding: 300 300 51
Width: 368
VWidth: 0
Flags: W
PickledData: "(dp1
S'org.robofab.postScriptHintData'
p2
(dp3
S'replaceTable'
p4
((dp5
S'index'
p6
I2
sS'type'
p7
I1
s(dp8
g6
I0
sg7
I1
s(dp9
g6
I1
sg7
I1
s(dp10
g6
I0
sg7
I2
s(dp11
g6
I1
sg7
I255
s(dp12
g6
I3
sg7
I1
s(dp13
g6
I0
sg7
I1
s(dp14
g6
I1
sg7
I1
s(dp15
g6
I0
sg7
I2
s(dp16
g6
I2
sg7
I255
s(dp17
g6
I2
sg7
I1
s(dp18
g6
I1
sg7
I1
s(dp19
g6
I0
sg7
I2
s(dp20
g6
I0
sg7
I1
stp21
sS'vHints'
p22
((I132
I103
ttp23
sS'hHints'
p24
((I0
I68
t(I662
I68
t(I798
I143
t(I798
I71
ttp25
ssS'org.robofab.fontlab.mark'
p26
I80
s."
LayerCount: 2
Fore
SplineSet
66 662 m 257
 132 662 l 257
 132 68 l 257
 66 68 l 257
 66 0 l 257
 301 0 l 257
 301 68 l 257
 235 68 l 257
 235 662 l 257
 301 662 l 257
 301 730 l 257
 66 730 l 257
 66 662 l 257
316 941 m 257
 316 868 302 798 184 798 c 256
 67 798 53 868 53 941 c 257
 117 941 l 257
 117 904 121 869 184 869 c 256
 247 869 251 904 251 941 c 257
 316 941 l 257
EndSplineSet
Validated: 9
EndChar

StartChar: Icircumflex
Encoding: 206 206 52
Width: 368
VWidth: 0
Flags: W
PickledData: "(dp1
S'org.robofab.postScriptHintData'
p2
(dp3
S'vHints'
p4
((I132
I103
ttp5
sS'hHints'
p6
((I0
I68
t(I662
I68
t(I979
I-20
ttp7
ssS'org.robofab.fontlab.mark'
p8
I144
s."
LayerCount: 2
Fore
SplineSet
66 662 m 257
 132 662 l 257
 132 68 l 257
 66 68 l 257
 66 0 l 257
 301 0 l 257
 301 68 l 257
 235 68 l 257
 235 662 l 257
 301 662 l 257
 301 730 l 257
 66 730 l 257
 66 662 l 257
76 782 m 257
 184 880 l 257
 293 782 l 257
 339 828 l 257
 207 979 l 257
 162 979 l 257
 30 828 l 257
 76 782 l 257
EndSplineSet
Validated: 9
EndChar

StartChar: Idieresis
Encoding: 207 207 53
Width: 368
VWidth: 0
Flags: W
PickledData: "(dp1
S'org.robofab.postScriptHintData'
p2
(dp3
S'vHints'
p4
((I21
I111
t(I235
I111
ttp5
sS'hHints'
p6
((I0
I68
t(I662
I68
t(I812
I135
ttp7
ssS'org.robofab.fontlab.mark'
p8
I144
s."
LayerCount: 2
Fore
SplineSet
66 662 m 257
 132 662 l 257
 132 68 l 257
 66 68 l 257
 66 0 l 257
 301 0 l 257
 301 68 l 257
 235 68 l 257
 235 662 l 257
 301 662 l 257
 301 730 l 257
 66 730 l 257
 66 662 l 257
76 812 m 256
 24 812 21 847 21 879 c 256
 21 911 24 947 76 947 c 256
 129 947 132 911 132 879 c 256
 132 847 129 812 76 812 c 256
289 812 m 256
 238 812 235 847 235 879 c 256
 235 911 238 947 289 947 c 256
 343 947 346 911 346 879 c 256
 346 847 343 812 289 812 c 256
EndSplineSet
Validated: 9
EndChar

StartChar: Idotaccent
Encoding: 304 304 54
Width: 368
VWidth: 0
Flags: W
PickledData: "(dp1
S'org.robofab.postScriptHintData'
p2
(dp3
S'replaceTable'
p4
((dp5
S'index'
p6
I1
sS'type'
p7
I1
s(dp8
g6
I1
sg7
I2
s(dp9
g6
I0
sg7
I1
s(dp10
g6
I2
sg7
I1
s(dp11
g6
I13
sg7
I255
s(dp12
g6
I0
sg7
I2
s(dp13
g6
I2
sg7
I1
s(dp14
g6
I0
sg7
I1
s(dp15
g6
I1
sg7
I1
stp16
sS'vHints'
p17
((I120
I128
t(I132
I103
ttp18
sS'hHints'
p19
((I0
I68
t(I662
I68
t(I806
I155
ttp20
ssS'org.robofab.fontlab.mark'
p21
I80
s."
LayerCount: 2
Fore
SplineSet
66 662 m 257
 132 662 l 257
 132 68 l 257
 66 68 l 257
 66 0 l 257
 301 0 l 257
 301 68 l 257
 235 68 l 257
 235 662 l 257
 301 662 l 257
 301 730 l 257
 66 730 l 257
 66 662 l 257
183 806 m 256
 244 806 248 848 248 883 c 256
 248 919 244 961 183 961 c 256
 124 961 120 919 120 883 c 256
 120 848 124 806 183 806 c 256
EndSplineSet
Validated: 9
EndChar

StartChar: Igrave
Encoding: 204 204 55
Width: 368
VWidth: 0
Flags: W
PickledData: "(dp1
S'org.robofab.postScriptHintData'
p2
(dp3
S'vHints'
p4
((I132
I103
ttp5
sS'hHints'
p6
((I0
I68
t(I662
I68
t(I984
I-20
ttp7
ssS'org.robofab.fontlab.mark'
p8
I144
s."
LayerCount: 2
Fore
SplineSet
66 662 m 257
 132 662 l 257
 132 68 l 257
 66 68 l 257
 66 0 l 257
 301 0 l 257
 301 68 l 257
 235 68 l 257
 235 662 l 257
 301 662 l 257
 301 730 l 257
 66 730 l 257
 66 662 l 257
255 780 m 257
 65 910 l 257
 121 984 l 257
 298 837 l 257
 255 780 l 257
EndSplineSet
Validated: 9
EndChar

StartChar: Imacron
Encoding: 298 298 56
Width: 368
VWidth: 0
Flags: W
PickledData: "(dp1
S'org.robofab.postScriptHintData'
p2
(dp3
S'vHints'
p4
((I132
I103
ttp5
sS'hHints'
p6
((I0
I68
t(I662
I68
t(I840
I81
ttp7
ssS'org.robofab.fontlab.mark'
p8
I80
s."
LayerCount: 2
Fore
SplineSet
66 662 m 257
 132 662 l 257
 132 68 l 257
 66 68 l 257
 66 0 l 257
 301 0 l 257
 301 68 l 257
 235 68 l 257
 235 662 l 257
 301 662 l 257
 301 730 l 257
 66 730 l 257
 66 662 l 257
53 840 m 257
 315 840 l 257
 315 921 l 257
 53 921 l 257
 53 840 l 257
EndSplineSet
Validated: 9
EndChar

StartChar: Iogonek
Encoding: 302 302 57
Width: 256
VWidth: 0
Flags: W
PickledData: "(dp1
S'org.robofab.postScriptHintData'
p2
(dp3
S'replaceTable'
p4
((dp5
S'index'
p6
I2
sS'type'
p7
I1
s(dp8
g6
I1
sg7
I2
s(dp9
g6
I1
sg7
I1
s(dp10
g6
I0
sg7
I1
s(dp11
g6
I7
sg7
I255
s(dp12
g6
I0
sg7
I2
s(dp13
g6
I0
sg7
I1
s(dp14
g6
I1
sg7
I1
s(dp15
g6
I2
sg7
I1
s(dp16
g6
I17
sg7
I255
s(dp17
g6
I1
sg7
I1
s(dp18
g6
I1
sg7
I2
s(dp19
g6
I2
sg7
I1
s(dp20
g6
I0
sg7
I1
stp21
sS'vHints'
p22
((I64
I73
t(I132
I103
ttp23
sS'hHints'
p24
((I-232
I64
t(I0
I68
t(I662
I68
ttp25
ssS'org.robofab.fontlab.mark'
p26
I80
s."
LayerCount: 2
Fore
SplineSet
66 662 m 257
 132 662 l 257
 132 68 l 257
 66 68 l 257
 66 0 l 257
 166 0 l 257
 149 -9 l 258
 81 -44 64 -80 64 -131 c 256
 64 -195 101 -232 174 -232 c 256
 233 -232 284 -196 312 -141 c 257
 262 -108 l 257
 245 -145 215 -168 184 -168 c 256
 153 -168 137 -149 137 -121 c 256
 137 -95 143 -79 184 -53 c 258
 266 0 l 257
 301 0 l 257
 301 68 l 257
 235 68 l 257
 235 662 l 257
 301 662 l 257
 301 730 l 257
 66 730 l 257
 66 662 l 257
EndSplineSet
Validated: 9
EndChar

StartChar: Itilde
Encoding: 296 296 58
Width: 368
VWidth: 0
Flags: W
PickledData: "(dp1
S'org.robofab.postScriptHintData'
p2
(dp3
S'replaceTable'
p4
((dp5
S'index'
p6
I1
sS'type'
p7
I1
s(dp8
g6
I0
sg7
I2
s(dp9
g6
I0
sg7
I1
s(dp10
g6
I2
sg7
I1
s(dp11
g6
I5
sg7
I1
s(dp12
g6
I16
sg7
I255
s(dp13
g6
I4
sg7
I1
s(dp14
g6
I0
sg7
I1
s(dp15
g6
I1
sg7
I1
s(dp16
g6
I0
sg7
I2
s(dp17
g6
I20
sg7
I255
s(dp18
g6
I2
sg7
I1
s(dp19
g6
I0
sg7
I1
s(dp20
g6
I1
sg7
I1
s(dp21
g6
I5
sg7
I1
s(dp22
g6
I0
sg7
I2
stp23
sS'vHints'
p24
((I132
I103
ttp25
sS'hHints'
p26
((I0
I68
t(I662
I68
t(I827
I81
t(I863
I45
t(I863
I81
t(I952
I-20
ttp27
ssS'org.robofab.fontlab.mark'
p28
I80
s."
LayerCount: 2
Fore
SplineSet
66 662 m 257
 132 662 l 257
 132 68 l 257
 66 68 l 257
 66 0 l 257
 301 0 l 257
 301 68 l 257
 235 68 l 257
 235 662 l 257
 301 662 l 257
 301 730 l 257
 66 730 l 257
 66 662 l 257
257 827 m 256
 299 827 331 853 353 932 c 257
 291 952 l 257
 281 922 270 908 246 908 c 256
 216 908 157 944 111 944 c 256
 69 944 37 918 15 839 c 257
 78 819 l 257
 88 849 99 863 123 863 c 256
 153 863 211 827 257 827 c 256
EndSplineSet
Validated: 9
EndChar

StartChar: J
Encoding: 74 74 59
Width: 489
VWidth: 0
Flags: W
PickledData: "(dp1
S'org.robofab.postScriptHintData'
p2
(dp3
S'vHints'
p4
((I16
I89
t(I286
I103
ttp5
sS'hHints'
p6
((I-14
I84
t(I662
I68
ttp7
ssS'org.robofab.fontlab.mark'
p8
I144
s."
LayerCount: 2
Fore
SplineSet
206 662 m 257
 286 662 l 257
 286 183 l 258
 286 98 269 70 197 70 c 256
 125 70 105 103 105 195 c 257
 16 195 l 257
 16 81 22 -14 195 -14 c 256
 373 -14 389 76 389 183 c 258
 389 662 l 257
 449 662 l 257
 449 730 l 257
 206 730 l 257
 206 662 l 257
EndSplineSet
Validated: 9
EndChar

StartChar: Jcircumflex
Encoding: 308 308 60
Width: 489
VWidth: 0
Flags: W
PickledData: "(dp1
S'org.robofab.postScriptHintData'
p2
(dp3
S'vHints'
p4
((I16
I89
t(I286
I103
ttp5
sS'hHints'
p6
((I-14
I84
t(I662
I68
t(I979
I-20
ttp7
ssS'org.robofab.fontlab.mark'
p8
I80
s."
LayerCount: 2
Fore
SplineSet
206 662 m 257
 286 662 l 257
 286 183 l 258
 286 98 269 70 197 70 c 256
 125 70 105 103 105 195 c 257
 16 195 l 257
 16 81 22 -14 195 -14 c 256
 373 -14 389 76 389 183 c 258
 389 662 l 257
 449 662 l 257
 449 730 l 257
 206 730 l 257
 206 662 l 257
216 782 m 257
 324 880 l 257
 433 782 l 257
 479 828 l 257
 347 979 l 257
 302 979 l 257
 170 828 l 257
 216 782 l 257
EndSplineSet
Validated: 9
EndChar

StartChar: K
Encoding: 75 75 61
Width: 660
VWidth: 0
Flags: W
PickledData: "(dp1
S'org.robofab.postScriptHintData'
p2
(dp3
S'vHints'
p4
((I126
I103
ttp5
sS'hHints'
p6
((I0
I68
t(I662
I68
ttp7
ssS'org.robofab.fontlab.mark'
p8
I144
s."
LayerCount: 2
Fore
SplineSet
423 0 m 257
 640 0 l 257
 640 68 l 257
 584 68 l 257
 386 368 l 257
 571 662 l 257
 626 662 l 257
 626 730 l 257
 409 730 l 257
 409 662 l 257
 463 662 l 257
 308 410 l 257
 229 410 l 257
 229 662 l 257
 281 662 l 257
 281 730 l 257
 66 730 l 257
 66 662 l 257
 126 662 l 257
 126 68 l 257
 66 68 l 257
 66 0 l 257
 285 0 l 257
 285 68 l 257
 229 68 l 257
 229 330 l 257
 302 330 l 257
 473 68 l 257
 423 68 l 257
 423 0 l 257
EndSplineSet
Validated: 9
EndChar

StartChar: L
Encoding: 76 76 62
Width: 526
VWidth: 0
Flags: W
PickledData: "(dp1
S'org.robofab.postScriptHintData'
p2
(dp3
S'vHints'
p4
((I126
I103
ttp5
sS'hHints'
p6
((I0
I81
t(I662
I68
ttp7
ssS'org.robofab.fontlab.mark'
p8
I144
s."
LayerCount: 2
Fore
SplineSet
66 662 m 257
 126 662 l 257
 126 68 l 257
 66 68 l 257
 66 0 l 257
 516 0 l 257
 516 177 l 257
 441 177 l 257
 441 81 l 257
 229 81 l 257
 229 662 l 257
 309 662 l 257
 309 730 l 257
 66 730 l 257
 66 662 l 257
EndSplineSet
Validated: 9
EndChar

StartChar: Lacute
Encoding: 313 313 63
Width: 526
VWidth: 0
Flags: W
PickledData: "(dp1
S'org.robofab.postScriptHintData'
p2
(dp3
S'vHints'
p4
((I126
I103
ttp5
sS'hHints'
p6
((I0
I81
t(I662
I68
t(I984
I-20
ttp7
ssS'org.robofab.fontlab.mark'
p8
I80
s."
LayerCount: 2
Fore
SplineSet
66 662 m 257
 126 662 l 257
 126 68 l 257
 66 68 l 257
 66 0 l 257
 516 0 l 257
 516 177 l 257
 441 177 l 257
 441 81 l 257
 229 81 l 257
 229 662 l 257
 309 662 l 257
 309 730 l 257
 66 730 l 257
 66 662 l 257
116 780 m 257
 306 910 l 257
 250 984 l 257
 73 837 l 257
 116 780 l 257
EndSplineSet
Validated: 9
EndChar

StartChar: Lcaron
Encoding: 317 317 64
Width: 526
VWidth: 0
Flags: W
PickledData: "(dp1
S'org.robofab.postScriptHintData'
p2
(dp3
S'replaceTable'
p4
((dp5
S'index'
p6
I1
sS'type'
p7
I1
s(dp8
g6
I0
sg7
I2
s(dp9
g6
I0
sg7
I1
s(dp10
g6
I1
sg7
I2
s(dp11
g6
I2
sg7
I1
s(dp12
g6
I15
sg7
I255
s(dp13
g6
I2
sg7
I2
s(dp14
g6
I2
sg7
I1
s(dp15
g6
I0
sg7
I1
s(dp16
g6
I1
sg7
I1
s(dp17
g6
I0
sg7
I2
s(dp18
g6
I20
sg7
I255
s(dp19
g6
I1
sg7
I2
s(dp20
g6
I0
sg7
I1
s(dp21
g6
I1
sg7
I1
s(dp22
g6
I2
sg7
I1
s(dp23
g6
I0
sg7
I2
stp24
sS'vHints'
p25
((I126
I103
t(I381
I105
t(I394
I92
ttp26
sS'hHints'
p27
((I0
I81
t(I662
I68
t(I784
I-20
ttp28
ssS'org.robofab.fontlab.mark'
p29
I80
s."
LayerCount: 2
Fore
SplineSet
66 662 m 257
 126 662 l 257
 126 68 l 257
 66 68 l 257
 66 0 l 257
 516 0 l 257
 516 177 l 257
 441 177 l 257
 441 81 l 257
 229 81 l 257
 229 662 l 257
 309 662 l 257
 309 730 l 257
 66 730 l 257
 66 662 l 257
381 728 m 256
 381 693 394 671 394 642 c 256
 394 612 379 591 363 572 c 257
 389 542 l 257
 437 580 486 643 486 725 c 256
 486 753 479 784 433 784 c 256
 389 784 381 753 381 728 c 256
EndSplineSet
Validated: 9
EndChar

StartChar: Ldot
Encoding: 319 319 65
Width: 526
VWidth: 0
Flags: W
PickledData: "(dp1
S'org.robofab.postScriptHintData'
p2
(dp3
S'vHints'
p4
((I126
I103
t(I316
I120
ttp5
sS'hHints'
p6
((I0
I81
t(I308
I140
t(I662
I68
ttp7
ssS'org.robofab.fontlab.mark'
p8
I80
s."
LayerCount: 2
Fore
SplineSet
66 662 m 257
 126 662 l 257
 126 68 l 257
 66 68 l 257
 66 0 l 257
 516 0 l 257
 516 177 l 257
 441 177 l 257
 441 81 l 257
 229 81 l 257
 229 662 l 257
 309 662 l 257
 309 730 l 257
 66 730 l 257
 66 662 l 257
375 308 m 256
 432 308 436 345 436 378 c 256
 436 411 432 448 375 448 c 256
 320 448 316 411 316 378 c 256
 316 345 320 308 375 308 c 256
EndSplineSet
Validated: 9
EndChar

StartChar: Lslash
Encoding: 321 321 66
Width: 526
VWidth: 0
Flags: W
PickledData: "(dp1
S'org.robofab.postScriptHintData'
p2
(dp3
S'vHints'
p4
((I126
I103
ttp5
sS'hHints'
p6
((I0
I81
t(I662
I68
ttp7
ssS'org.robofab.fontlab.mark'
p8
I80
s."
LayerCount: 2
Fore
SplineSet
66 662 m 257
 126 662 l 257
 126 394 l 257
 46 362 l 257
 46 291 l 257
 126 323 l 257
 126 68 l 257
 66 68 l 257
 66 0 l 257
 516 0 l 257
 516 177 l 257
 441 177 l 257
 441 81 l 257
 229 81 l 257
 229 364 l 257
 312 397 l 257
 312 468 l 257
 229 435 l 257
 229 662 l 257
 309 662 l 257
 309 730 l 257
 66 730 l 257
 66 662 l 257
EndSplineSet
Validated: 9
EndChar

StartChar: M
Encoding: 77 77 67
Width: 927
VWidth: 0
Flags: W
PickledData: "(dp1
S'org.robofab.postScriptHintData'
p2
(dp3
S'vHints'
p4
((I126
I103
t(I698
I103
ttp5
sS'hHints'
p6
((I0
I68
t(I662
I68
ttp7
ssS'org.robofab.fontlab.mark'
p8
I144
s."
LayerCount: 2
Fore
SplineSet
642 0 m 257
 861 0 l 257
 861 68 l 257
 801 68 l 257
 801 662 l 257
 861 662 l 257
 861 730 l 257
 656 730 l 257
 457 198 l 257
 272 730 l 257
 66 730 l 257
 66 662 l 257
 126 662 l 257
 126 68 l 257
 66 68 l 257
 66 0 l 257
 285 0 l 257
 285 68 l 257
 229 68 l 257
 229 573 l 257
 408 72 l 257
 504 72 l 257
 698 582 l 257
 698 68 l 257
 642 68 l 257
 642 0 l 257
EndSplineSet
Validated: 9
EndChar

StartChar: N
Encoding: 78 78 68
Width: 789
VWidth: 0
Flags: W
PickledData: "(dp1
S'org.robofab.postScriptHintData'
p2
(dp3
S'vHints'
p4
((I126
I103
t(I570
I103
ttp5
sS'hHints'
p6
((I0
I68
t(I662
I68
ttp7
ssS'org.robofab.fontlab.mark'
p8
I144
s."
LayerCount: 2
Fore
SplineSet
510 662 m 257
 570 662 l 257
 570 172 l 257
 237 730 l 257
 66 730 l 257
 66 662 l 257
 126 662 l 257
 126 68 l 257
 66 68 l 257
 66 0 l 257
 289 0 l 257
 289 68 l 257
 229 68 l 257
 229 557 l 257
 562 0 l 257
 673 0 l 257
 673 662 l 257
 733 662 l 257
 733 730 l 257
 510 730 l 257
 510 662 l 257
EndSplineSet
Validated: 9
EndChar

StartChar: Nacute
Encoding: 323 323 70
Width: 789
VWidth: 0
Flags: W
PickledData: "(dp1
S'org.robofab.postScriptHintData'
p2
(dp3
S'vHints'
p4
((I126
I103
t(I570
I103
ttp5
sS'hHints'
p6
((I0
I68
t(I662
I68
t(I984
I-20
ttp7
ssS'org.robofab.fontlab.mark'
p8
I80
s."
LayerCount: 2
Fore
SplineSet
510 662 m 257
 570 662 l 257
 570 172 l 257
 237 730 l 257
 66 730 l 257
 66 662 l 257
 126 662 l 257
 126 68 l 257
 66 68 l 257
 66 0 l 257
 289 0 l 257
 289 68 l 257
 229 68 l 257
 229 557 l 257
 562 0 l 257
 673 0 l 257
 673 662 l 257
 733 662 l 257
 733 730 l 257
 510 730 l 257
 510 662 l 257
348 780 m 257
 538 910 l 257
 482 984 l 257
 305 837 l 257
 348 780 l 257
EndSplineSet
Validated: 9
EndChar

StartChar: Ncaron
Encoding: 327 327 71
Width: 789
VWidth: 0
Flags: W
PickledData: "(dp1
S'org.robofab.postScriptHintData'
p2
(dp3
S'vHints'
p4
((I126
I103
t(I570
I103
ttp5
sS'hHints'
p6
((I0
I68
t(I662
I68
t(I985
I-20
ttp7
ssS'org.robofab.fontlab.mark'
p8
I80
s."
LayerCount: 2
Fore
SplineSet
510 662 m 257
 570 662 l 257
 570 172 l 257
 237 730 l 257
 66 730 l 257
 66 662 l 257
 126 662 l 257
 126 68 l 257
 66 68 l 257
 66 0 l 257
 289 0 l 257
 289 68 l 257
 229 68 l 257
 229 557 l 257
 562 0 l 257
 673 0 l 257
 673 662 l 257
 733 662 l 257
 733 730 l 257
 510 730 l 257
 510 662 l 257
504 985 m 257
 396 887 l 257
 287 985 l 257
 241 939 l 257
 373 788 l 257
 418 788 l 257
 550 939 l 257
 504 985 l 257
EndSplineSet
Validated: 9
EndChar

StartChar: Ntilde
Encoding: 209 209 72
Width: 789
VWidth: 0
Flags: W
PickledData: "(dp1
S'org.robofab.postScriptHintData'
p2
(dp3
S'replaceTable'
p4
((dp5
S'index'
p6
I1
sS'type'
p7
I1
s(dp8
g6
I1
sg7
I2
s(dp9
g6
I0
sg7
I2
s(dp10
g6
I0
sg7
I1
s(dp11
g6
I2
sg7
I1
s(dp12
g6
I5
sg7
I1
s(dp13
g6
I24
sg7
I255
s(dp14
g6
I4
sg7
I1
s(dp15
g6
I0
sg7
I1
s(dp16
g6
I1
sg7
I1
s(dp17
g6
I0
sg7
I2
s(dp18
g6
I1
sg7
I2
s(dp19
g6
I28
sg7
I255
s(dp20
g6
I2
sg7
I1
s(dp21
g6
I0
sg7
I1
s(dp22
g6
I1
sg7
I1
s(dp23
g6
I5
sg7
I1
s(dp24
g6
I0
sg7
I2
s(dp25
g6
I1
sg7
I2
stp26
sS'vHints'
p27
((I126
I103
t(I570
I103
ttp28
sS'hHints'
p29
((I0
I68
t(I662
I68
t(I827
I81
t(I863
I45
t(I863
I81
t(I952
I-20
ttp30
ssS'org.robofab.fontlab.mark'
p31
I144
s."
LayerCount: 2
Fore
SplineSet
510 662 m 257
 570 662 l 257
 570 172 l 257
 237 730 l 257
 66 730 l 257
 66 662 l 257
 126 662 l 257
 126 68 l 257
 66 68 l 257
 66 0 l 257
 289 0 l 257
 289 68 l 257
 229 68 l 257
 229 557 l 257
 562 0 l 257
 673 0 l 257
 673 662 l 257
 733 662 l 257
 733 730 l 257
 510 730 l 257
 510 662 l 257
478 827 m 256
 520 827 552 853 574 932 c 257
 512 952 l 257
 502 922 491 908 467 908 c 256
 437 908 378 944 332 944 c 256
 290 944 258 918 236 839 c 257
 299 819 l 257
 309 849 320 863 344 863 c 256
 374 863 432 827 478 827 c 256
EndSplineSet
Validated: 9
EndChar

StartChar: O
Encoding: 79 79 73
Width: 685
VWidth: 0
Flags: W
PickledData: "(dp1
S'org.robofab.postScriptHintData'
p2
(dp3
S'vHints'
p4
((I52
I103
t(I530
I103
ttp5
sS'hHints'
p6
((I-14
I84
t(I660
I84
ttp7
ssS'org.robofab.fontlab.mark'
p8
I144
s."
LayerCount: 2
Fore
SplineSet
342 -14 m 256
 603 -14 633 128 633 365 c 256
 633 600 603 744 342 744 c 256
 80 744 52 600 52 365 c 256
 52 128 80 -14 342 -14 c 256
342 70 m 256
 173 70 155 182 155 365 c 256
 155 548 173 660 342 660 c 256
 510 660 530 548 530 365 c 256
 530 182 510 70 342 70 c 256
EndSplineSet
Validated: 9
EndChar

StartChar: OE
Encoding: 338 338 74
Width: 1009
VWidth: 0
Flags: W
PickledData: "(dp1
S'org.robofab.postScriptHintData'
p2
(dp3
S'vHints'
p4
((I52
I103
t(I520
I103
ttp5
sS'hHints'
p6
((I0
I81
t(I330
I82
t(I647
I83
ttp7
ssS'org.robofab.fontlab.mark'
p8
I80
s."
LayerCount: 2
Fore
SplineSet
933 556 m 257
 933 730 l 257
 337 730 l 258
 80 730 52 591 52 365 c 256
 52 137 80 0 337 0 c 258
 953 0 l 257
 953 177 l 257
 877 177 l 257
 877 81 l 257
 565 81 l 257
 609 137 621 222 623 330 c 257
 869 330 l 257
 869 412 l 257
 622 412 l 257
 620 513 607 594 564 649 c 257
 857 649 l 257
 857 556 l 257
 933 556 l 257
337 83 m 256
 173 83 155 190 155 365 c 256
 155 540 173 647 337 647 c 256
 501 647 520 540 520 365 c 256
 520 190 501 83 337 83 c 256
EndSplineSet
Validated: 9
EndChar

StartChar: Oacute
Encoding: 211 211 75
Width: 685
VWidth: 0
Flags: W
PickledData: "(dp1
S'org.robofab.postScriptHintData'
p2
(dp3
S'vHints'
p4
((I52
I103
t(I530
I103
ttp5
sS'hHints'
p6
((I-14
I84
t(I660
I84
t(I984
I-20
ttp7
ssS'org.robofab.fontlab.mark'
p8
I144
s."
LayerCount: 2
Fore
SplineSet
342 -14 m 256
 603 -14 633 128 633 365 c 256
 633 600 603 744 342 744 c 256
 80 744 52 600 52 365 c 256
 52 128 80 -14 342 -14 c 256
342 70 m 256
 173 70 155 182 155 365 c 256
 155 548 173 660 342 660 c 256
 510 660 530 548 530 365 c 256
 530 182 510 70 342 70 c 256
291 780 m 257
 481 910 l 257
 425 984 l 257
 248 837 l 257
 291 780 l 257
EndSplineSet
Validated: 9
EndChar

StartChar: Obreve
Encoding: 334 334 76
Width: 685
VWidth: 0
Flags: W
PickledData: "(dp1
S'org.robofab.postScriptHintData'
p2
(dp3
S'replaceTable'
p4
((dp5
S'index'
p6
I2
sS'type'
p7
I1
s(dp8
g6
I0
sg7
I1
s(dp9
g6
I1
sg7
I1
s(dp10
g6
I0
sg7
I2
s(dp11
g6
I1
sg7
I2
s(dp12
g6
I1
sg7
I255
s(dp13
g6
I3
sg7
I1
s(dp14
g6
I0
sg7
I1
s(dp15
g6
I1
sg7
I1
s(dp16
g6
I0
sg7
I2
s(dp17
g6
I1
sg7
I2
s(dp18
g6
I2
sg7
I255
s(dp19
g6
I2
sg7
I1
s(dp20
g6
I1
sg7
I2
s(dp21
g6
I0
sg7
I1
s(dp22
g6
I1
sg7
I1
s(dp23
g6
I0
sg7
I2
s(dp24
g6
I7
sg7
I255
s(dp25
g6
I2
sg7
I2
s(dp26
g6
I1
sg7
I1
s(dp27
g6
I0
sg7
I2
s(dp28
g6
I0
sg7
I1
s(dp29
g6
I2
sg7
I1
stp30
sS'vHints'
p31
((I52
I103
t(I474
I159
t(I530
I103
ttp32
sS'hHints'
p33
((I-14
I84
t(I660
I84
t(I798
I143
t(I798
I71
ttp34
ssS'org.robofab.fontlab.mark'
p35
I80
s."
LayerCount: 2
Fore
SplineSet
342 -14 m 256
 603 -14 633 128 633 365 c 256
 633 600 603 744 342 744 c 256
 80 744 52 600 52 365 c 256
 52 128 80 -14 342 -14 c 256
342 70 m 256
 173 70 155 182 155 365 c 256
 155 548 173 660 342 660 c 256
 510 660 530 548 530 365 c 256
 530 182 510 70 342 70 c 256
474 941 m 257
 474 868 460 798 342 798 c 256
 225 798 211 868 211 941 c 257
 275 941 l 257
 275 904 279 869 342 869 c 256
 405 869 409 904 409 941 c 257
 474 941 l 257
EndSplineSet
Validated: 9
EndChar

StartChar: Ocircumflex
Encoding: 212 212 77
Width: 685
VWidth: 0
Flags: W
PickledData: "(dp1
S'org.robofab.postScriptHintData'
p2
(dp3
S'vHints'
p4
((I52
I103
t(I530
I103
ttp5
sS'hHints'
p6
((I-14
I84
t(I660
I84
t(I979
I-20
ttp7
ssS'org.robofab.fontlab.mark'
p8
I144
s."
LayerCount: 2
Fore
SplineSet
342 -14 m 256
 603 -14 633 128 633 365 c 256
 633 600 603 744 342 744 c 256
 80 744 52 600 52 365 c 256
 52 128 80 -14 342 -14 c 256
342 70 m 256
 173 70 155 182 155 365 c 256
 155 548 173 660 342 660 c 256
 510 660 530 548 530 365 c 256
 530 182 510 70 342 70 c 256
234 782 m 257
 342 880 l 257
 451 782 l 257
 497 828 l 257
 365 979 l 257
 320 979 l 257
 188 828 l 257
 234 782 l 257
EndSplineSet
Validated: 9
EndChar

StartChar: Odieresis
Encoding: 214 214 78
Width: 685
VWidth: 0
Flags: W
PickledData: "(dp1
S'org.robofab.postScriptHintData'
p2
(dp3
S'replaceTable'
p4
((dp5
S'index'
p6
I2
sS'type'
p7
I1
s(dp8
g6
I2
sg7
I2
s(dp9
g6
I1
sg7
I2
s(dp10
g6
I4
sg7
I2
s(dp11
g6
I0
sg7
I1
s(dp12
g6
I1
sg7
I1
s(dp13
g6
I11
sg7
I255
s(dp14
g6
I3
sg7
I2
s(dp15
g6
I1
sg7
I1
s(dp16
g6
I0
sg7
I2
s(dp17
g6
I0
sg7
I1
s(dp18
g6
I2
sg7
I1
s(dp19
g6
I1
sg7
I2
stp20
sS'vHints'
p21
((I52
I103
t(I290
I103
t(I504
I129
t(I530
I103
t(I52
I127
ttp22
sS'hHints'
p23
((I-14
I84
t(I660
I84
t(I812
I135
ttp24
ssS'org.robofab.fontlab.mark'
p25
I144
s."
LayerCount: 2
Fore
SplineSet
342 -14 m 256
 603 -14 633 128 633 365 c 256
 633 600 603 744 342 744 c 256
 80 744 52 600 52 365 c 256
 52 128 80 -14 342 -14 c 256
342 70 m 256
 173 70 155 182 155 365 c 256
 155 548 173 660 342 660 c 256
 510 660 530 548 530 365 c 256
 530 182 510 70 342 70 c 256
234 812 m 256
 182 812 179 847 179 879 c 256
 179 911 182 947 234 947 c 256
 287 947 290 911 290 879 c 256
 290 847 287 812 234 812 c 256
447 812 m 256
 396 812 393 847 393 879 c 256
 393 911 396 947 447 947 c 256
 501 947 504 911 504 879 c 256
 504 847 501 812 447 812 c 256
EndSplineSet
Validated: 9
EndChar

StartChar: Ograve
Encoding: 210 210 79
Width: 685
VWidth: 0
Flags: W
PickledData: "(dp1
S'org.robofab.postScriptHintData'
p2
(dp3
S'vHints'
p4
((I52
I103
t(I530
I103
ttp5
sS'hHints'
p6
((I-14
I84
t(I660
I84
t(I984
I-20
ttp7
ssS'org.robofab.fontlab.mark'
p8
I144
s."
LayerCount: 2
Fore
SplineSet
342 -14 m 256
 603 -14 633 128 633 365 c 256
 633 600 603 744 342 744 c 256
 80 744 52 600 52 365 c 256
 52 128 80 -14 342 -14 c 256
342 70 m 256
 173 70 155 182 155 365 c 256
 155 548 173 660 342 660 c 256
 510 660 530 548 530 365 c 256
 530 182 510 70 342 70 c 256
413 780 m 257
 223 910 l 257
 279 984 l 257
 456 837 l 257
 413 780 l 257
EndSplineSet
Validated: 9
EndChar

StartChar: Ohungarumlaut
Encoding: 336 336 80
Width: 685
VWidth: 0
Flags: W
PickledData: "(dp1
S'org.robofab.postScriptHintData'
p2
(dp3
S'vHints'
p4
((I52
I103
t(I530
I103
ttp5
sS'hHints'
p6
((I-14
I84
t(I660
I84
t(I984
I-20
ttp7
ssS'org.robofab.fontlab.mark'
p8
I80
s."
LayerCount: 2
Fore
SplineSet
342 -14 m 256
 603 -14 633 128 633 365 c 256
 633 600 603 744 342 744 c 256
 80 744 52 600 52 365 c 256
 52 128 80 -14 342 -14 c 256
342 70 m 256
 173 70 155 182 155 365 c 256
 155 548 173 660 342 660 c 256
 510 660 530 548 530 365 c 256
 530 182 510 70 342 70 c 256
173 780 m 257
 363 910 l 257
 307 984 l 257
 129 837 l 257
 173 780 l 257
426 780 m 257
 616 910 l 257
 560 984 l 257
 382 837 l 257
 426 780 l 257
EndSplineSet
Validated: 9
EndChar

StartChar: Omacron
Encoding: 332 332 81
Width: 685
VWidth: 0
Flags: W
PickledData: "(dp1
S'org.robofab.postScriptHintData'
p2
(dp3
S'vHints'
p4
((I52
I103
t(I530
I103
ttp5
sS'hHints'
p6
((I-14
I84
t(I660
I84
t(I840
I81
ttp7
ssS'org.robofab.fontlab.mark'
p8
I80
s."
LayerCount: 2
Fore
SplineSet
342 -14 m 256
 603 -14 633 128 633 365 c 256
 633 600 603 744 342 744 c 256
 80 744 52 600 52 365 c 256
 52 128 80 -14 342 -14 c 256
342 70 m 256
 173 70 155 182 155 365 c 256
 155 548 173 660 342 660 c 256
 510 660 530 548 530 365 c 256
 530 182 510 70 342 70 c 256
211 840 m 257
 473 840 l 257
 473 921 l 257
 211 921 l 257
 211 840 l 257
EndSplineSet
Validated: 9
EndChar

StartChar: Omega
Encoding: 8486 8486 82
Width: 746
VWidth: 0
Flags: W
PickledData: "(dp1
S'org.robofab.postScriptHintData'
p2
(dp3
S'vHints'
p4
((I62
I103
t(I581
I103
ttp5
sS'hHints'
p6
((I0
I68
t(I600
I84
ttp7
ssS'org.robofab.fontlab.mark'
p8
I80
s."
LayerCount: 2
Fore
SplineSet
373 600 m 256
 538 600 581 521 581 387 c 256
 581 284 548 222 455 198 c 257
 455 0 l 257
 661 0 l 257
 661 68 l 257
 543 68 l 257
 543 150 l 257
 644 196 684 280 684 392 c 256
 684 573 603 684 373 684 c 256
 143 684 62 573 62 392 c 256
 62 280 101 196 203 150 c 257
 203 68 l 257
 85 68 l 257
 85 0 l 257
 291 0 l 257
 291 198 l 257
 198 222 165 284 165 387 c 256
 165 521 208 600 373 600 c 256
EndSplineSet
Validated: 9
EndChar

StartChar: Oslash
Encoding: 216 216 83
Width: 685
VWidth: 0
Flags: W
PickledData: "(dp1
S'org.robofab.postScriptHintData'
p2
(dp3
S'vHints'
p4
((I52
I103
t(I530
I103
ttp5
sS'hHints'
p6
((I-14
I84
t(I660
I84
t(I-73
I-21
t(I827
I-20
ttp7
ssS'org.robofab.fontlab.mark'
p8
I144
s."
LayerCount: 2
Fore
SplineSet
201 -94 m 257
 269 -94 l 257
 288 -11 l 257
 305 -13 322 -14 342 -14 c 256
 603 -14 633 128 633 365 c 256
 633 558 613 689 461 730 c 257
 484 827 l 257
 415 827 l 257
 395 741 l 257
 378 743 361 744 342 744 c 256
 80 744 52 600 52 365 c 256
 52 170 71 40 222 0 c 257
 201 -94 l 257
342 70 m 256
 329 70 318 71 307 72 c 257
 440 640 l 257
 518 601 530 503 530 365 c 256
 530 182 510 70 342 70 c 256
155 365 m 256
 155 548 173 660 342 660 c 256
 354 660 365 659 375 658 c 257
 243 89 l 257
 165 129 155 226 155 365 c 256
EndSplineSet
Validated: 9
EndChar

StartChar: Oslashacute
Encoding: 510 510 84
Width: 685
VWidth: 0
Flags: W
PickledData: "(dp1
S'org.robofab.postScriptHintData'
p2
(dp3
S'vHints'
p4
((I52
I103
t(I530
I103
ttp5
sS'hHints'
p6
((I-14
I84
t(I660
I84
t(I-35
I-21
t(I984
I-20
ttp7
ssS'org.robofab.fontlab.mark'
p8
I80
s."
LayerCount: 2
Fore
SplineSet
201 -56 m 257
 269 -56 l 257
 280 -11 l 257
 299 -13 320 -14 342 -14 c 256
 603 -14 633 128 633 365 c 256
 633 554 613 684 469 728 c 257
 484 785 l 257
 415 785 l 257
 403 740 l 257
 384 742 364 744 342 744 c 256
 80 744 52 600 52 365 c 256
 52 173 70 44 215 1 c 257
 201 -56 l 257
155 365 m 256
 155 548 173 660 342 660 c 256
 356 660 370 659 382 657 c 257
 238 92 l 257
 165 133 155 229 155 365 c 256
342 70 m 256
 327 70 314 71 302 72 c 257
 446 637 l 257
 519 596 530 499 530 365 c 256
 530 182 510 70 342 70 c 256
291 780 m 257
 481 910 l 257
 425 984 l 257
 248 837 l 257
 291 780 l 257
EndSplineSet
Validated: 9
EndChar

StartChar: Otilde
Encoding: 213 213 85
Width: 685
VWidth: 0
Flags: W
PickledData: "(dp1
S'org.robofab.postScriptHintData'
p2
(dp3
S'replaceTable'
p4
((dp5
S'index'
p6
I0
sS'type'
p7
I1
s(dp8
g6
I1
sg7
I2
s(dp9
g6
I1
sg7
I1
s(dp10
g6
I0
sg7
I2
s(dp11
g6
I2
sg7
I1
s(dp12
g6
I5
sg7
I1
s(dp13
g6
I14
sg7
I255
s(dp14
g6
I4
sg7
I1
s(dp15
g6
I0
sg7
I1
s(dp16
g6
I1
sg7
I1
s(dp17
g6
I0
sg7
I2
s(dp18
g6
I1
sg7
I2
s(dp19
g6
I18
sg7
I255
s(dp20
g6
I2
sg7
I1
s(dp21
g6
I0
sg7
I1
s(dp22
g6
I1
sg7
I1
s(dp23
g6
I5
sg7
I1
s(dp24
g6
I0
sg7
I2
s(dp25
g6
I1
sg7
I2
stp26
sS'vHints'
p27
((I52
I103
t(I530
I103
ttp28
sS'hHints'
p29
((I-14
I84
t(I660
I84
t(I827
I81
t(I863
I45
t(I863
I81
t(I952
I-20
ttp30
ssS'org.robofab.fontlab.mark'
p31
I144
s."
LayerCount: 2
Fore
SplineSet
342 -14 m 256
 603 -14 633 128 633 365 c 256
 633 600 603 744 342 744 c 256
 80 744 52 600 52 365 c 256
 52 128 80 -14 342 -14 c 256
342 70 m 256
 173 70 155 182 155 365 c 256
 155 548 173 660 342 660 c 256
 510 660 530 548 530 365 c 256
 530 182 510 70 342 70 c 256
415 827 m 256
 457 827 489 853 511 932 c 257
 449 952 l 257
 439 922 428 908 404 908 c 256
 374 908 315 944 269 944 c 256
 227 944 195 918 173 839 c 257
 236 819 l 257
 246 849 257 863 281 863 c 256
 311 863 369 827 415 827 c 256
EndSplineSet
Validated: 9
EndChar

StartChar: P
Encoding: 80 80 86
Width: 611
VWidth: 0
Flags: W
PickledData: "(dp1
S'org.robofab.postScriptHintData'
p2
(dp3
S'vHints'
p4
((I126
I103
t(I469
I103
ttp5
sS'hHints'
p6
((I0
I68
t(I267
I81
t(I649
I81
ttp7
ssS'org.robofab.fontlab.maskData'
p8
((dp9
S'method'
p10
S'beginPath'
p11
s(dp12
S'segmentType'
p13
S'line'
p14
sS'smooth'
p15
I00
sg10
S'addPoint'
p16
sS'pt'
p17
(I138
I666
tp18
s(dp19
g13
S'line'
p20
sg15
I00
sg10
S'addPoint'
p21
sg17
(I138
I0
tp22
s(dp23
g13
S'line'
p24
sg15
I00
sg10
S'addPoint'
p25
sg17
(I210
I0
tp26
s(dp27
g13
S'line'
p28
sg15
I00
sg10
S'addPoint'
p29
sg17
(I210
I666
tp30
s(dp31
g10
S'endPath'
p32
s(dp33
g10
S'beginPath'
p34
s(dp35
g13
S'curve'
p36
sg15
I01
sg10
S'addPoint'
p37
sg17
(I557
I494
tp38
s(dp39
g10
S'addPoint'
p40
sg17
(I557
I706
tp41
s(dp42
g10
S'addPoint'
p43
sg17
(I450
I729
tp44
s(dp45
g13
S'curve'
p46
sg15
I01
sg10
S'addPoint'
p47
sg17
(I232
I730
tp48
s(dp49
g13
S'line'
p50
sg15
I00
sg10
S'addPoint'
p51
sg17
(I138
I730
tp52
s(dp53
g13
S'line'
p54
sg15
I00
sg10
S'addPoint'
p55
sg17
(I138
I260
tp56
s(dp57
g13
S'line'
p58
sg15
I01
sg10
S'addPoint'
p59
sg17
(I232
I260
tp60
s(dp61
g10
S'addPoint'
p62
sg17
(I450
I260
tp63
s(dp64
g10
S'addPoint'
p65
sg17
(I557
I281
tp66
s(dp67
g10
S'endPath'
p68
s(dp69
g10
S'beginPath'
p70
s(dp71
g13
S'curve'
p72
sg15
I01
sg10
S'addPoint'
p73
sg17
(I485
I494
tp74
s(dp75
g10
S'addPoint'
p76
sg17
(I485
I337
tp77
s(dp78
g10
S'addPoint'
p79
sg17
(I414
I324
tp80
s(dp81
g13
S'curve'
p82
sg15
I01
sg10
S'addPoint'
p83
sg17
(I232
I324
tp84
s(dp85
g13
S'line'
p86
sg15
I00
sg10
S'addPoint'
p87
sg17
(I210
I324
tp88
s(dp89
g13
S'line'
p90
sg15
I00
sg10
S'addPoint'
p91
sg17
(I210
I666
tp92
s(dp93
g13
S'line'
p94
sg15
I01
sg10
S'addPoint'
p95
sg17
(I232
I666
tp96
s(dp97
g10
S'addPoint'
p98
sg17
(I414
I666
tp99
s(dp100
g10
S'addPoint'
p101
sg17
(I485
I650
tp102
s(dp103
g10
S'endPath'
p104
stp105
sS'org.robofab.fontlab.mark'
p106
I144
s."
LayerCount: 2
Fore
SplineSet
349 267 m 258
 547 267 572 379 572 498 c 256
 572 618 547 730 349 730 c 258
 126 730 l 257
 66 730 l 257
 66 662 l 257
 126 662 l 257
 126 68 l 257
 66 68 l 257
 66 0 l 257
 309 0 l 257
 309 68 l 257
 229 68 l 257
 229 267 l 257
 349 267 l 258
229 348 m 257
 229 649 l 257
 339 649 l 258
 456 649 469 587 469 498 c 256
 469 410 456 348 339 348 c 258
 229 348 l 257
EndSplineSet
Validated: 9
EndChar

StartChar: Q
Encoding: 81 81 87
Width: 675
VWidth: 0
Flags: W
PickledData: "(dp1
S'org.robofab.postScriptHintData'
p2
(dp3
S'vHints'
p4
((I52
I103
t(I520
I103
ttp5
sS'hHints'
p6
((I-13
I83
t(I660
I84
t(I-159
I-21
ttp7
ssS'org.robofab.fontlab.maskData'
p8
((dp9
S'method'
p10
S'beginPath'
p11
s(dp12
S'segmentType'
p13
S'line'
p14
sS'smooth'
p15
I00
sg10
S'addPoint'
p16
sS'pt'
p17
(I271
I21
tp18
s(dp19
g13
S'line'
p20
sg15
I00
sg10
S'addPoint'
p21
sg17
(I369
I-180
tp22
s(dp23
g13
S'line'
p24
sg15
I00
sg10
S'addPoint'
p25
sg17
(I475
I-180
tp26
s(dp27
g13
S'line'
p28
sg15
I00
sg10
S'addPoint'
p29
sg17
(I374
I21
tp30
s(dp31
g10
S'endPath'
p32
s(dp33
g10
S'beginPath'
p34
s(dp35
g13
S'curve'
p36
sg15
I01
sg10
S'addPoint'
p37
sg17
(I337
I-14
tp38
s(dp39
g10
S'addPoint'
p40
sg17
(I594
I-14
tp41
s(dp42
g10
S'addPoint'
p43
sg17
(I623
I128
tp44
s(dp45
g13
S'curve'
p46
sg15
I01
sg10
S'addPoint'
p47
sg17
(I623
I365
tp48
s(dp49
g10
S'addPoint'
p50
sg17
(I623
I600
tp51
s(dp52
g10
S'addPoint'
p53
sg17
(I594
I744
tp54
s(dp55
g13
S'curve'
p56
sg15
I01
sg10
S'addPoint'
p57
sg17
(I337
I744
tp58
s(dp59
g10
S'addPoint'
p60
sg17
(I80
I744
tp61
s(dp62
g10
S'addPoint'
p63
sg17
(I52
I600
tp64
s(dp65
g13
S'curve'
p66
sg15
I01
sg10
S'addPoint'
p67
sg17
(I52
I365
tp68
s(dp69
g10
S'addPoint'
p70
sg17
(I52
I128
tp71
s(dp72
g10
S'addPoint'
p73
sg17
(I80
I-14
tp74
s(dp75
g10
S'endPath'
p76
s(dp77
g10
S'beginPath'
p78
s(dp79
g13
S'curve'
p80
sg15
I01
sg10
S'addPoint'
p81
sg17
(I337
I71
tp82
s(dp83
g10
S'addPoint'
p84
sg17
(I173
I71
tp85
s(dp86
g10
S'addPoint'
p87
sg17
(I155
I182
tp88
s(dp89
g13
S'curve'
p90
sg15
I01
sg10
S'addPoint'
p91
sg17
(I155
I365
tp92
s(dp93
g10
S'addPoint'
p94
sg17
(I155
I548
tp95
s(dp96
g10
S'addPoint'
p97
sg17
(I173
I659
tp98
s(dp99
g13
S'curve'
p100
sg15
I01
sg10
S'addPoint'
p101
sg17
(I337
I659
tp102
s(dp103
g10
S'addPoint'
p104
sg17
(I501
I659
tp105
s(dp106
g10
S'addPoint'
p107
sg17
(I520
I548
tp108
s(dp109
g13
S'curve'
p110
sg15
I01
sg10
S'addPoint'
p111
sg17
(I520
I365
tp112
s(dp113
g10
S'addPoint'
p114
sg17
(I520
I182
tp115
s(dp116
g10
S'addPoint'
p117
sg17
(I501
I71
tp118
s(dp119
g10
S'endPath'
p120
stp121
sS'org.robofab.fontlab.mark'
p122
I144
s."
LayerCount: 2
Fore
SplineSet
383 -180 m 257
 485 -180 l 257
 400 -10 l 257
 599 12 623 149 623 365 c 256
 623 600 594 744 337 744 c 256
 80 744 52 600 52 365 c 256
 52 140 77 1 298 -13 c 257
 383 -180 l 257
337 70 m 256
 173 70 155 182 155 365 c 256
 155 548 173 660 337 660 c 256
 501 660 520 548 520 365 c 256
 520 182 501 70 337 70 c 256
EndSplineSet
Validated: 9
EndChar

StartChar: R
Encoding: 82 82 88
Width: 671
VWidth: 0
Flags: W
PickledData: "(dp1
S'org.robofab.postScriptHintData'
p2
(dp3
S'vHints'
p4
((I126
I103
t(I479
I103
ttp5
sS'hHints'
p6
((I0
I68
t(I297
I81
t(I649
I81
ttp7
ssS'org.robofab.fontlab.maskData'
p8
((dp9
S'method'
p10
S'beginPath'
p11
s(dp12
S'segmentType'
p13
S'line'
p14
sS'smooth'
p15
I00
sg10
S'addPoint'
p16
sS'pt'
p17
(I445
I0
tp18
s(dp19
g13
S'line'
p20
sg15
I00
sg10
S'addPoint'
p21
sg17
(I627
I0
tp22
s(dp23
g13
S'line'
p24
sg15
I00
sg10
S'addPoint'
p25
sg17
(I627
I56
tp26
s(dp27
g13
S'line'
p28
sg15
I00
sg10
S'addPoint'
p29
sg17
(I445
I56
tp30
s(dp31
g10
S'endPath'
p32
s(dp33
g10
S'beginPath'
p34
s(dp35
g13
S'line'
p36
sg15
I00
sg10
S'addPoint'
p37
sg17
(I456
I0
tp38
s(dp39
g13
S'line'
p40
sg15
I00
sg10
S'addPoint'
p41
sg17
(I638
I0
tp42
s(dp43
g13
S'line'
p44
sg15
I00
sg10
S'addPoint'
p45
sg17
(I638
I75
tp46
s(dp47
g13
S'line'
p48
sg15
I00
sg10
S'addPoint'
p49
sg17
(I456
I75
tp50
s(dp51
g10
S'endPath'
p52
stp53
sS'org.robofab.fontlab.mark'
p54
I144
s."
LayerCount: 2
Fore
SplineSet
66 662 m 257
 126 662 l 257
 126 68 l 257
 66 68 l 257
 66 0 l 257
 285 0 l 257
 285 68 l 257
 229 68 l 257
 229 297 l 257
 305 297 l 257
 355 295 380 284 401 237 c 258
 502 0 l 257
 645 0 l 257
 645 68 l 257
 582 68 l 257
 504 249 l 258
 492 276 479 296 463 310 c 257
 569 342 582 425 582 513 c 256
 582 625 561 730 356 730 c 258
 126 730 l 257
 66 730 l 257
 66 662 l 257
229 378 m 257
 229 649 l 257
 354 649 l 258
 466 649 479 589 479 513 c 256
 479 438 466 378 354 378 c 258
 229 378 l 257
EndSplineSet
Validated: 9
EndChar

StartChar: R.001
Encoding: 65540 -1 89
Width: 671
VWidth: 0
Flags: W
PickledData: "(dp1
S'org.robofab.postScriptHintData'
p2
(dp3
S'vHints'
p4
((I126
I103
t(I479
I103
ttp5
sS'hHints'
p6
((I297
I81
t(I649
I81
t(I21
I-21
ttp7
ssS'org.robofab.fontlab.maskData'
p8
((dp9
S'method'
p10
S'beginPath'
p11
s(dp12
S'segmentType'
p13
S'line'
p14
sS'smooth'
p15
I00
sg10
S'addPoint'
p16
sS'pt'
p17
(I445
I0
tp18
s(dp19
g13
S'line'
p20
sg15
I00
sg10
S'addPoint'
p21
sg17
(I627
I0
tp22
s(dp23
g13
S'line'
p24
sg15
I00
sg10
S'addPoint'
p25
sg17
(I627
I56
tp26
s(dp27
g13
S'line'
p28
sg15
I00
sg10
S'addPoint'
p29
sg17
(I445
I56
tp30
s(dp31
g10
S'endPath'
p32
s(dp33
g10
S'beginPath'
p34
s(dp35
g13
S'line'
p36
sg15
I00
sg10
S'addPoint'
p37
sg17
(I456
I0
tp38
s(dp39
g13
S'line'
p40
sg15
I00
sg10
S'addPoint'
p41
sg17
(I638
I0
tp42
s(dp43
g13
S'line'
p44
sg15
I00
sg10
S'addPoint'
p45
sg17
(I638
I75
tp46
s(dp47
g13
S'line'
p48
sg15
I00
sg10
S'addPoint'
p49
sg17
(I456
I75
tp50
s(dp51
g10
S'endPath'
p52
stp53
sS'org.robofab.fontlab.mark'
p54
I80
s."
LayerCount: 2
Fore
SplineSet
126 730 m 257
 126 0 l 257
 229 0 l 257
 229 297 l 257
 305 297 l 257
 355 295 380 284 401 237 c 258
 502 0 l 257
 612 0 l 257
 504 249 l 258
 492 276 479 296 463 310 c 257
 569 342 582 425 582 513 c 256
 582 625 561 730 356 730 c 258
 126 730 l 257
229 378 m 257
 229 649 l 257
 354 649 l 258
 466 649 479 589 479 513 c 256
 479 438 466 378 354 378 c 258
 229 378 l 257
EndSplineSet
Validated: 9
EndChar

StartChar: Racute
Encoding: 340 340 90
Width: 671
VWidth: 0
Flags: W
PickledData: "(dp1
S'org.robofab.postScriptHintData'
p2
(dp3
S'vHints'
p4
((I126
I103
t(I479
I103
ttp5
sS'hHints'
p6
((I0
I68
t(I297
I81
t(I649
I81
t(I984
I-20
ttp7
ssS'org.robofab.fontlab.mark'
p8
I80
s."
LayerCount: 2
Fore
SplineSet
293 297 m 258
 351 297 379 288 401 237 c 258
 502 0 l 257
 645 0 l 257
 645 68 l 257
 582 68 l 257
 504 249 l 258
 492 276 479 296 463 310 c 257
 569 342 582 425 582 513 c 256
 582 625 561 730 356 730 c 258
 126 730 l 257
 66 730 l 257
 66 662 l 257
 126 662 l 257
 126 68 l 257
 66 68 l 257
 66 0 l 257
 285 0 l 257
 285 68 l 257
 229 68 l 257
 229 297 l 257
 293 297 l 258
229 378 m 257
 229 649 l 257
 354 649 l 258
 466 649 479 589 479 513 c 256
 479 438 466 378 354 378 c 258
 229 378 l 257
272 780 m 257
 462 910 l 257
 406 984 l 257
 229 837 l 257
 272 780 l 257
EndSplineSet
Validated: 9
EndChar

StartChar: Rcaron
Encoding: 344 344 91
Width: 671
VWidth: 0
Flags: W
PickledData: "(dp1
S'org.robofab.postScriptHintData'
p2
(dp3
S'vHints'
p4
((I126
I103
t(I479
I103
ttp5
sS'hHints'
p6
((I0
I68
t(I297
I81
t(I649
I81
t(I985
I-20
ttp7
ssS'org.robofab.fontlab.mark'
p8
I80
s."
LayerCount: 2
Fore
SplineSet
293 297 m 258
 351 297 379 288 401 237 c 258
 502 0 l 257
 645 0 l 257
 645 68 l 257
 582 68 l 257
 504 249 l 258
 492 276 479 296 463 310 c 257
 569 342 582 425 582 513 c 256
 582 625 561 730 356 730 c 258
 126 730 l 257
 66 730 l 257
 66 662 l 257
 126 662 l 257
 126 68 l 257
 66 68 l 257
 66 0 l 257
 285 0 l 257
 285 68 l 257
 229 68 l 257
 229 297 l 257
 293 297 l 258
229 378 m 257
 229 649 l 257
 354 649 l 258
 466 649 479 589 479 513 c 256
 479 438 466 378 354 378 c 258
 229 378 l 257
444 985 m 257
 336 887 l 257
 227 985 l 257
 181 939 l 257
 313 788 l 257
 358 788 l 257
 490 939 l 257
 444 985 l 257
EndSplineSet
Validated: 9
EndChar

StartChar: S
Encoding: 83 83 92
Width: 599
VWidth: 0
Flags: W
PickledData: "(dp1
S'org.robofab.postScriptHintData'
p2
(dp3
S'replaceTable'
p4
((dp5
S'index'
p6
I3
sS'type'
p7
I1
s(dp8
g6
I0
sg7
I2
s(dp9
g6
I1
sg7
I1
s(dp10
g6
I1
sg7
I2
s(dp11
g6
I2
sg7
I255
s(dp12
g6
I0
sg7
I1
s(dp13
g6
I2
sg7
I2
s(dp14
g6
I3
sg7
I2
s(dp15
g6
I1
sg7
I1
s(dp16
g6
I9
sg7
I255
s(dp17
g6
I1
sg7
I2
s(dp18
g6
I2
sg7
I1
s(dp19
g6
I0
sg7
I1
s(dp20
g6
I0
sg7
I2
s(dp21
g6
I13
sg7
I255
s(dp22
g6
I1
sg7
I1
s(dp23
g6
I0
sg7
I2
s(dp24
g6
I1
sg7
I2
s(dp25
g6
I0
sg7
I1
s(dp26
g6
I21
sg7
I255
s(dp27
g6
I3
sg7
I1
s(dp28
g6
I0
sg7
I2
s(dp29
g6
I1
sg7
I1
s(dp30
g6
I1
sg7
I2
stp31
sS'vHints'
p32
((I56
I66
t(I449
I85
t(I449
I103
t(I56
I103
ttp33
sS'hHints'
p34
((I-14
I82
t(I662
I82
t(I730
I-20
t(I21
I-21
ttp35
ssS'org.robofab.fontlab.maskData'
p36
((dp37
S'method'
p38
S'beginPath'
p39
s(dp40
S'segmentType'
p41
S'curve'
p42
sS'smooth'
p43
I01
sg38
S'addPoint'
p44
sS'pt'
p45
(I416
I60
tp46
s(dp47
g38
S'addPoint'
p48
sg45
(I416
I41
tp49
s(dp50
g38
S'addPoint'
p51
sg45
(I431
I26
tp52
s(dp53
g41
S'curve'
p54
sg43
I01
sg38
S'addPoint'
p55
sg45
(I450
I26
tp56
s(dp57
g38
S'addPoint'
p58
sg45
(I469
I26
tp59
s(dp60
g38
S'addPoint'
p61
sg45
(I484
I41
tp62
s(dp63
g41
S'curve'
p64
sg43
I01
sg38
S'addPoint'
p65
sg45
(I484
I60
tp66
s(dp67
g38
S'addPoint'
p68
sg45
(I484
I79
tp69
s(dp70
g38
S'addPoint'
p71
sg45
(I469
I94
tp72
s(dp73
g41
S'curve'
p74
sg43
I01
sg38
S'addPoint'
p75
sg45
(I450
I94
tp76
s(dp77
g38
S'addPoint'
p78
sg45
(I431
I94
tp79
s(dp80
g38
S'addPoint'
p81
sg45
(I416
I79
tp82
s(dp83
g38
S'endPath'
p84
stp85
sS'org.robofab.fontlab.mark'
p86
I144
s."
LayerCount: 2
Fore
SplineSet
122 0 m 257
 122 72 l 257
 159 20 222 -14 319 -14 c 256
 491 -14 552 64 552 197 c 256
 552 328 496 374 358 402 c 258
 277 418 l 258
 178 438 159 463 159 535 c 256
 159 615 187 662 299 662 c 256
 401 662 451 620 460 533 c 257
 534 533 l 257
 534 730 l 257
 460 730 l 257
 460 666 l 257
 425 717 367 744 277 744 c 256
 108 744 56 661 56 533 c 256
 56 404 106 354 244 326 c 257
 328 310 l 258
 419 292 449 268 449 186 c 256
 449 104 404 68 297 68 c 256
 181 68 124 128 122 228 c 257
 48 228 l 257
 48 0 l 257
 122 0 l 257
EndSplineSet
Validated: 9
EndChar

StartChar: Sacute
Encoding: 346 346 93
Width: 599
VWidth: 0
Flags: W
PickledData: "(dp1
S'org.robofab.postScriptHintData'
p2
(dp3
S'replaceTable'
p4
((dp5
S'index'
p6
I3
sS'type'
p7
I1
s(dp8
g6
I0
sg7
I2
s(dp9
g6
I1
sg7
I1
s(dp10
g6
I4
sg7
I1
s(dp11
g6
I1
sg7
I2
s(dp12
g6
I2
sg7
I255
s(dp13
g6
I0
sg7
I1
s(dp14
g6
I2
sg7
I2
s(dp15
g6
I3
sg7
I2
s(dp16
g6
I1
sg7
I1
s(dp17
g6
I4
sg7
I1
s(dp18
g6
I9
sg7
I255
s(dp19
g6
I1
sg7
I2
s(dp20
g6
I2
sg7
I1
s(dp21
g6
I0
sg7
I1
s(dp22
g6
I4
sg7
I1
s(dp23
g6
I0
sg7
I2
s(dp24
g6
I13
sg7
I255
s(dp25
g6
I1
sg7
I1
s(dp26
g6
I0
sg7
I2
s(dp27
g6
I1
sg7
I2
s(dp28
g6
I0
sg7
I1
s(dp29
g6
I4
sg7
I1
s(dp30
g6
I21
sg7
I255
s(dp31
g6
I3
sg7
I1
s(dp32
g6
I0
sg7
I2
s(dp33
g6
I4
sg7
I1
s(dp34
g6
I1
sg7
I1
s(dp35
g6
I1
sg7
I2
stp36
sS'vHints'
p37
((I56
I66
t(I449
I85
t(I449
I103
t(I56
I103
ttp38
sS'hHints'
p39
((I-14
I82
t(I662
I82
t(I730
I-20
t(I21
I-21
t(I984
I-20
ttp40
ssS'org.robofab.fontlab.mark'
p41
I80
s."
LayerCount: 2
Fore
SplineSet
122 0 m 257
 122 72 l 257
 159 20 222 -14 319 -14 c 256
 491 -14 552 64 552 197 c 256
 552 328 496 374 358 402 c 258
 277 418 l 258
 178 438 159 463 159 535 c 256
 159 615 187 662 299 662 c 256
 401 662 451 620 460 533 c 257
 534 533 l 257
 534 730 l 257
 460 730 l 257
 460 666 l 257
 425 717 367 744 277 744 c 256
 108 744 56 661 56 533 c 256
 56 404 106 354 244 326 c 257
 328 310 l 258
 419 292 449 268 449 186 c 256
 449 104 404 68 297 68 c 256
 181 68 124 128 122 228 c 257
 48 228 l 257
 48 0 l 257
 122 0 l 257
249 780 m 257
 439 910 l 257
 383 984 l 257
 206 837 l 257
 249 780 l 257
EndSplineSet
Validated: 9
EndChar

StartChar: Scaron
Encoding: 352 352 94
Width: 625
VWidth: 0
Flags: W
PickledData: "(dp1
S'org.robofab.postScriptHintData'
p2
(dp3
S'replaceTable'
p4
((dp5
S'index'
p6
I4
sS'type'
p7
I1
s(dp8
g6
I0
sg7
I2
s(dp9
g6
I1
sg7
I1
s(dp10
g6
I3
sg7
I1
s(dp11
g6
I1
sg7
I2
s(dp12
g6
I2
sg7
I255
s(dp13
g6
I0
sg7
I1
s(dp14
g6
I2
sg7
I2
s(dp15
g6
I3
sg7
I2
s(dp16
g6
I1
sg7
I1
s(dp17
g6
I3
sg7
I1
s(dp18
g6
I9
sg7
I255
s(dp19
g6
I1
sg7
I2
s(dp20
g6
I2
sg7
I1
s(dp21
g6
I0
sg7
I1
s(dp22
g6
I3
sg7
I1
s(dp23
g6
I0
sg7
I2
s(dp24
g6
I13
sg7
I255
s(dp25
g6
I1
sg7
I1
s(dp26
g6
I0
sg7
I2
s(dp27
g6
I1
sg7
I2
s(dp28
g6
I0
sg7
I1
s(dp29
g6
I3
sg7
I1
s(dp30
g6
I21
sg7
I255
s(dp31
g6
I4
sg7
I1
s(dp32
g6
I0
sg7
I2
s(dp33
g6
I3
sg7
I1
s(dp34
g6
I1
sg7
I1
s(dp35
g6
I1
sg7
I2
stp36
sS'vHints'
p37
((I69
I66
t(I462
I85
t(I462
I103
t(I69
I103
ttp38
sS'hHints'
p39
((I-14
I82
t(I662
I82
t(I730
I-20
t(I985
I-20
t(I21
I-21
ttp40
ssS'org.robofab.fontlab.mark'
p41
I80
s."
LayerCount: 2
Fore
SplineSet
135 0 m 257
 135 72 l 257
 172 20 235 -14 332 -14 c 256
 504 -14 565 64 565 197 c 256
 565 328 509 374 371 402 c 258
 290 418 l 258
 191 438 172 463 172 535 c 256
 172 615 200 662 312 662 c 256
 414 662 464 620 473 533 c 257
 547 533 l 257
 547 730 l 257
 473 730 l 257
 473 666 l 257
 438 717 380 744 290 744 c 256
 121 744 69 661 69 533 c 256
 69 404 119 354 257 326 c 257
 341 310 l 258
 432 292 462 268 462 186 c 256
 462 104 417 68 310 68 c 256
 194 68 137 128 135 228 c 257
 61 228 l 257
 61 0 l 257
 135 0 l 257
422 985 m 257
 314 887 l 257
 205 985 l 257
 159 939 l 257
 291 788 l 257
 336 788 l 257
 468 939 l 257
 422 985 l 257
EndSplineSet
Validated: 9
EndChar

StartChar: Scedilla
Encoding: 350 350 95
Width: 599
VWidth: 0
Flags: W
PickledData: "(dp1
S'org.robofab.postScriptHintData'
p2
(dp3
S'replaceTable'
p4
((dp5
S'index'
p6
I4
sS'type'
p7
I1
s(dp8
g6
I0
sg7
I2
s(dp9
g6
I1
sg7
I2
s(dp10
g6
I0
sg7
I1
s(dp11
g6
I2
sg7
I1
s(dp12
g6
I2
sg7
I2
s(dp13
g6
I12
sg7
I255
s(dp14
g6
I1
sg7
I1
s(dp15
g6
I3
sg7
I2
s(dp16
g6
I4
sg7
I2
s(dp17
g6
I2
sg7
I1
s(dp18
g6
I0
sg7
I1
s(dp19
g6
I1
sg7
I2
s(dp20
g6
I20
sg7
I255
s(dp21
g6
I2
sg7
I2
s(dp22
g6
I3
sg7
I1
s(dp23
g6
I0
sg7
I1
s(dp24
g6
I1
sg7
I1
s(dp25
g6
I0
sg7
I2
s(dp26
g6
I1
sg7
I2
s(dp27
g6
I24
sg7
I255
s(dp28
g6
I2
sg7
I1
s(dp29
g6
I0
sg7
I2
s(dp30
g6
I2
sg7
I2
s(dp31
g6
I1
sg7
I1
s(dp32
g6
I0
sg7
I1
s(dp33
g6
I1
sg7
I2
s(dp34
g6
I32
sg7
I255
s(dp35
g6
I4
sg7
I1
s(dp36
g6
I0
sg7
I2
s(dp37
g6
I0
sg7
I1
s(dp38
g6
I2
sg7
I1
s(dp39
g6
I1
sg7
I2
s(dp40
g6
I2
sg7
I2
stp41
sS'vHints'
p42
((I56
I66
t(I340
I68
t(I449
I85
t(I449
I103
t(I56
I103
ttp43
sS'hHints'
p44
((I-241
I62
t(I-14
I82
t(I662
I82
t(I730
I-20
t(I21
I-21
ttp45
ssS'org.robofab.fontlab.mark'
p46
I80
s."
LayerCount: 2
Fore
SplineSet
122 0 m 257
 122 72 l 257
 150 32 194 2 257 -9 c 257
 244 -84 l 257
 298 -94 l 258
 330 -100 340 -112 340 -138 c 256
 340 -160 337 -179 302 -179 c 256
 268 -179 265 -161 265 -138 c 257
 193 -138 l 257
 193 -196 215 -241 300 -241 c 256
 386 -241 408 -200 408 -141 c 256
 408 -66 368 -48 312 -45 c 257
 317 -14 l 257
 319 -14 l 258
 491 -14 552 64 552 197 c 256
 552 328 496 374 358 402 c 258
 277 418 l 258
 178 438 159 463 159 535 c 256
 159 615 187 662 299 662 c 256
 401 662 451 620 460 533 c 257
 534 533 l 257
 534 730 l 257
 460 730 l 257
 460 666 l 257
 425 717 367 744 277 744 c 256
 108 744 56 661 56 533 c 256
 56 404 106 354 244 326 c 257
 328 310 l 258
 419 292 449 268 449 186 c 256
 449 104 404 68 297 68 c 256
 181 68 124 128 122 228 c 257
 48 228 l 257
 48 0 l 257
 122 0 l 257
EndSplineSet
Validated: 9
EndChar

StartChar: Scircumflex
Encoding: 348 348 96
Width: 599
VWidth: 0
Flags: W
PickledData: "(dp1
S'org.robofab.postScriptHintData'
p2
(dp3
S'replaceTable'
p4
((dp5
S'index'
p6
I3
sS'type'
p7
I1
s(dp8
g6
I0
sg7
I2
s(dp9
g6
I1
sg7
I1
s(dp10
g6
I4
sg7
I1
s(dp11
g6
I1
sg7
I2
s(dp12
g6
I2
sg7
I255
s(dp13
g6
I0
sg7
I1
s(dp14
g6
I2
sg7
I2
s(dp15
g6
I3
sg7
I2
s(dp16
g6
I1
sg7
I1
s(dp17
g6
I4
sg7
I1
s(dp18
g6
I9
sg7
I255
s(dp19
g6
I1
sg7
I2
s(dp20
g6
I2
sg7
I1
s(dp21
g6
I0
sg7
I1
s(dp22
g6
I4
sg7
I1
s(dp23
g6
I0
sg7
I2
s(dp24
g6
I13
sg7
I255
s(dp25
g6
I1
sg7
I1
s(dp26
g6
I0
sg7
I2
s(dp27
g6
I1
sg7
I2
s(dp28
g6
I0
sg7
I1
s(dp29
g6
I4
sg7
I1
s(dp30
g6
I21
sg7
I255
s(dp31
g6
I3
sg7
I1
s(dp32
g6
I0
sg7
I2
s(dp33
g6
I4
sg7
I1
s(dp34
g6
I1
sg7
I1
s(dp35
g6
I1
sg7
I2
stp36
sS'vHints'
p37
((I56
I66
t(I449
I85
t(I449
I103
t(I56
I103
ttp38
sS'hHints'
p39
((I-14
I82
t(I662
I82
t(I730
I-20
t(I21
I-21
t(I979
I-20
ttp40
ssS'org.robofab.fontlab.mark'
p41
I80
s."
LayerCount: 2
Fore
SplineSet
122 0 m 257
 122 72 l 257
 159 20 222 -14 319 -14 c 256
 491 -14 552 64 552 197 c 256
 552 328 496 374 358 402 c 258
 277 418 l 258
 178 438 159 463 159 535 c 256
 159 615 187 662 299 662 c 256
 401 662 451 620 460 533 c 257
 534 533 l 257
 534 730 l 257
 460 730 l 257
 460 666 l 257
 425 717 367 744 277 744 c 256
 108 744 56 661 56 533 c 256
 56 404 106 354 244 326 c 257
 328 310 l 258
 419 292 449 268 449 186 c 256
 449 104 404 68 297 68 c 256
 181 68 124 128 122 228 c 257
 48 228 l 257
 48 0 l 257
 122 0 l 257
198 782 m 257
 306 880 l 257
 415 782 l 257
 461 828 l 257
 329 979 l 257
 284 979 l 257
 152 828 l 257
 198 782 l 257
EndSplineSet
Validated: 9
EndChar

StartChar: T
Encoding: 84 84 97
Width: 557
VWidth: 0
Flags: W
PickledData: "(dp1
S'org.robofab.postScriptHintData'
p2
(dp3
S'vHints'
p4
((I227
I103
ttp5
sS'hHints'
p6
((I0
I68
t(I650
I80
ttp7
ssS'org.robofab.fontlab.mark'
p8
I144
s."
LayerCount: 2
Fore
SplineSet
549 552 m 257
 549 730 l 257
 8 730 l 257
 8 552 l 257
 84 552 l 257
 84 650 l 257
 227 650 l 257
 227 68 l 257
 145 68 l 257
 145 0 l 257
 412 0 l 257
 412 68 l 257
 330 68 l 257
 330 650 l 257
 474 650 l 257
 474 552 l 257
 549 552 l 257
EndSplineSet
Validated: 9
EndChar

StartChar: Tbar
Encoding: 358 358 98
Width: 557
VWidth: 0
Flags: W
PickledData: "(dp1
S'org.robofab.postScriptHintData'
p2
(dp3
S'vHints'
p4
((I227
I103
ttp5
sS'hHints'
p6
((I0
I68
t(I308
I68
t(I650
I80
ttp7
ssS'org.robofab.fontlab.mark'
p8
I80
s."
LayerCount: 2
Fore
SplineSet
84 552 m 257
 84 650 l 257
 227 650 l 257
 227 376 l 257
 80 376 l 257
 80 308 l 257
 227 308 l 257
 227 68 l 257
 145 68 l 257
 145 0 l 257
 412 0 l 257
 412 68 l 257
 330 68 l 257
 330 308 l 257
 478 308 l 257
 478 376 l 257
 330 376 l 257
 330 650 l 257
 474 650 l 257
 474 552 l 257
 549 552 l 257
 549 730 l 257
 8 730 l 257
 8 552 l 257
 84 552 l 257
EndSplineSet
Validated: 9
EndChar

StartChar: Tcaron
Encoding: 356 356 99
Width: 557
VWidth: 0
Flags: W
PickledData: "(dp1
S'org.robofab.postScriptHintData'
p2
(dp3
S'vHints'
p4
((I227
I103
ttp5
sS'hHints'
p6
((I0
I68
t(I650
I80
t(I985
I-20
ttp7
ssS'org.robofab.fontlab.mark'
p8
I80
s."
LayerCount: 2
Fore
SplineSet
84 552 m 257
 84 650 l 257
 227 650 l 257
 227 68 l 257
 145 68 l 257
 145 0 l 257
 412 0 l 257
 412 68 l 257
 330 68 l 257
 330 650 l 257
 474 650 l 257
 474 552 l 257
 549 552 l 257
 549 730 l 257
 8 730 l 257
 8 552 l 257
 84 552 l 257
388 985 m 257
 280 887 l 257
 171 985 l 257
 125 939 l 257
 257 788 l 257
 302 788 l 257
 434 939 l 257
 388 985 l 257
EndSplineSet
Validated: 9
EndChar

StartChar: Thorn
Encoding: 222 222 100
Width: 611
VWidth: 0
Flags: W
PickledData: "(dp1
S'org.robofab.postScriptHintData'
p2
(dp3
S'vHints'
p4
((I126
I103
t(I469
I103
ttp5
sS'hHints'
p6
((I0
I75
t(I145
I86
t(I498
I86
t(I654
I76
ttp7
ssS'org.robofab.fontlab.maskData'
p8
((dp9
S'method'
p10
S'beginPath'
p11
s(dp12
S'segmentType'
p13
S'line'
p14
sS'smooth'
p15
I00
sg10
S'addPoint'
p16
sS'pt'
p17
(I138
I666
tp18
s(dp19
g13
S'line'
p20
sg15
I00
sg10
S'addPoint'
p21
sg17
(I138
I0
tp22
s(dp23
g13
S'line'
p24
sg15
I00
sg10
S'addPoint'
p25
sg17
(I210
I0
tp26
s(dp27
g13
S'line'
p28
sg15
I00
sg10
S'addPoint'
p29
sg17
(I210
I666
tp30
s(dp31
g10
S'endPath'
p32
s(dp33
g10
S'beginPath'
p34
s(dp35
g13
S'curve'
p36
sg15
I01
sg10
S'addPoint'
p37
sg17
(I557
I494
tp38
s(dp39
g10
S'addPoint'
p40
sg17
(I557
I706
tp41
s(dp42
g10
S'addPoint'
p43
sg17
(I450
I729
tp44
s(dp45
g13
S'curve'
p46
sg15
I01
sg10
S'addPoint'
p47
sg17
(I232
I730
tp48
s(dp49
g13
S'line'
p50
sg15
I00
sg10
S'addPoint'
p51
sg17
(I138
I730
tp52
s(dp53
g13
S'line'
p54
sg15
I00
sg10
S'addPoint'
p55
sg17
(I138
I260
tp56
s(dp57
g13
S'line'
p58
sg15
I01
sg10
S'addPoint'
p59
sg17
(I232
I260
tp60
s(dp61
g10
S'addPoint'
p62
sg17
(I450
I260
tp63
s(dp64
g10
S'addPoint'
p65
sg17
(I557
I281
tp66
s(dp67
g10
S'endPath'
p68
s(dp69
g10
S'beginPath'
p70
s(dp71
g13
S'curve'
p72
sg15
I01
sg10
S'addPoint'
p73
sg17
(I485
I494
tp74
s(dp75
g10
S'addPoint'
p76
sg17
(I485
I337
tp77
s(dp78
g10
S'addPoint'
p79
sg17
(I414
I324
tp80
s(dp81
g13
S'curve'
p82
sg15
I01
sg10
S'addPoint'
p83
sg17
(I232
I324
tp84
s(dp85
g13
S'line'
p86
sg15
I00
sg10
S'addPoint'
p87
sg17
(I210
I324
tp88
s(dp89
g13
S'line'
p90
sg15
I00
sg10
S'addPoint'
p91
sg17
(I210
I666
tp92
s(dp93
g13
S'line'
p94
sg15
I01
sg10
S'addPoint'
p95
sg17
(I232
I666
tp96
s(dp97
g10
S'addPoint'
p98
sg17
(I414
I666
tp99
s(dp100
g10
S'addPoint'
p101
sg17
(I485
I650
tp102
s(dp103
g10
S'endPath'
p104
stp105
sS'org.robofab.fontlab.mark'
p106
I144
s."
LayerCount: 2
Fore
SplineSet
349 145 m 258
 547 145 572 251 572 364 c 256
 572 478 547 584 349 584 c 258
 229 584 l 257
 229 654 l 257
 295 654 l 257
 295 730 l 257
 66 730 l 257
 66 654 l 257
 126 654 l 257
 126 75 l 257
 66 75 l 257
 66 0 l 257
 295 0 l 257
 295 75 l 257
 229 75 l 257
 229 145 l 257
 349 145 l 258
229 231 m 257
 229 498 l 257
 339 498 l 258
 456 498 469 436 469 364 c 256
 469 293 456 231 339 231 c 258
 229 231 l 257
EndSplineSet
Validated: 9
EndChar

StartChar: U
Encoding: 85 85 101
Width: 746
VWidth: 0
Flags: W
PickledData: "(dp1
S'org.robofab.postScriptHintData'
p2
(dp3
S'vHints'
p4
((I105
I103
t(I538
I103
ttp5
sS'hHints'
p6
((I-14
I86
t(I662
I68
ttp7
ssS'org.robofab.fontlab.mark'
p8
I144
s."
LayerCount: 2
Fore
SplineSet
45 662 m 257
 105 662 l 257
 105 241 l 258
 105 10 235 -14 372 -14 c 256
 511 -14 641 10 641 241 c 258
 641 662 l 257
 701 662 l 257
 701 730 l 257
 478 730 l 257
 478 662 l 257
 538 662 l 257
 538 246 l 258
 538 91 462 72 372 72 c 256
 284 72 208 91 208 246 c 258
 208 662 l 257
 268 662 l 257
 268 730 l 257
 45 730 l 257
 45 662 l 257
EndSplineSet
Validated: 9
EndChar

StartChar: Uacute
Encoding: 218 218 102
Width: 746
VWidth: 0
Flags: W
PickledData: "(dp1
S'org.robofab.postScriptHintData'
p2
(dp3
S'vHints'
p4
((I105
I103
t(I538
I103
ttp5
sS'hHints'
p6
((I-14
I86
t(I662
I68
t(I984
I-20
ttp7
ssS'org.robofab.fontlab.mark'
p8
I144
s."
LayerCount: 2
Fore
SplineSet
45 662 m 257
 105 662 l 257
 105 241 l 258
 105 10 235 -14 372 -14 c 256
 511 -14 641 10 641 241 c 258
 641 662 l 257
 701 662 l 257
 701 730 l 257
 478 730 l 257
 478 662 l 257
 538 662 l 257
 538 246 l 258
 538 91 462 72 372 72 c 256
 284 72 208 91 208 246 c 258
 208 662 l 257
 268 662 l 257
 268 730 l 257
 45 730 l 257
 45 662 l 257
352 780 m 257
 542 910 l 257
 486 984 l 257
 309 837 l 257
 352 780 l 257
EndSplineSet
Validated: 9
EndChar

StartChar: Ubreve
Encoding: 364 364 103
Width: 746
VWidth: 0
Flags: W
PickledData: "(dp1
S'org.robofab.postScriptHintData'
p2
(dp3
S'replaceTable'
p4
((dp5
S'index'
p6
I2
sS'type'
p7
I1
s(dp8
g6
I0
sg7
I1
s(dp9
g6
I1
sg7
I1
s(dp10
g6
I0
sg7
I2
s(dp11
g6
I1
sg7
I2
s(dp12
g6
I1
sg7
I255
s(dp13
g6
I3
sg7
I1
s(dp14
g6
I0
sg7
I1
s(dp15
g6
I1
sg7
I1
s(dp16
g6
I0
sg7
I2
s(dp17
g6
I1
sg7
I2
s(dp18
g6
I2
sg7
I255
s(dp19
g6
I2
sg7
I1
s(dp20
g6
I1
sg7
I1
s(dp21
g6
I0
sg7
I2
s(dp22
g6
I0
sg7
I1
s(dp23
g6
I1
sg7
I2
stp24
sS'vHints'
p25
((I105
I103
t(I538
I103
ttp26
sS'hHints'
p27
((I-14
I86
t(I662
I68
t(I798
I143
t(I798
I71
ttp28
ssS'org.robofab.fontlab.mark'
p29
I80
s."
LayerCount: 2
Fore
SplineSet
45 662 m 257
 105 662 l 257
 105 241 l 258
 105 10 235 -14 372 -14 c 256
 511 -14 641 10 641 241 c 258
 641 662 l 257
 701 662 l 257
 701 730 l 257
 478 730 l 257
 478 662 l 257
 538 662 l 257
 538 246 l 258
 538 91 462 72 372 72 c 256
 284 72 208 91 208 246 c 258
 208 662 l 257
 268 662 l 257
 268 730 l 257
 45 730 l 257
 45 662 l 257
505 941 m 257
 505 868 491 798 373 798 c 256
 256 798 242 868 242 941 c 257
 306 941 l 257
 306 904 310 869 373 869 c 256
 436 869 440 904 440 941 c 257
 505 941 l 257
EndSplineSet
Validated: 9
EndChar

StartChar: Ucircumflex
Encoding: 219 219 104
Width: 746
VWidth: 0
Flags: W
PickledData: "(dp1
S'org.robofab.postScriptHintData'
p2
(dp3
S'vHints'
p4
((I105
I103
t(I538
I103
ttp5
sS'hHints'
p6
((I-14
I86
t(I662
I68
t(I979
I-20
ttp7
ssS'org.robofab.fontlab.mark'
p8
I144
s."
LayerCount: 2
Fore
SplineSet
45 662 m 257
 105 662 l 257
 105 241 l 258
 105 10 235 -14 372 -14 c 256
 511 -14 641 10 641 241 c 258
 641 662 l 257
 701 662 l 257
 701 730 l 257
 478 730 l 257
 478 662 l 257
 538 662 l 257
 538 246 l 258
 538 91 462 72 372 72 c 256
 284 72 208 91 208 246 c 258
 208 662 l 257
 268 662 l 257
 268 730 l 257
 45 730 l 257
 45 662 l 257
264 782 m 257
 372 880 l 257
 481 782 l 257
 527 828 l 257
 395 979 l 257
 350 979 l 257
 218 828 l 257
 264 782 l 257
EndSplineSet
Validated: 9
EndChar

StartChar: Udieresis
Encoding: 220 220 105
Width: 746
VWidth: 0
Flags: W
PickledData: "(dp1
S'org.robofab.postScriptHintData'
p2
(dp3
S'vHints'
p4
((I105
I103
t(I322
I103
t(I538
I103
ttp5
sS'hHints'
p6
((I-14
I86
t(I662
I68
t(I812
I135
ttp7
ssS'org.robofab.fontlab.mark'
p8
I144
s."
LayerCount: 2
Fore
SplineSet
45 662 m 257
 105 662 l 257
 105 241 l 258
 105 10 235 -14 372 -14 c 256
 511 -14 641 10 641 241 c 258
 641 662 l 257
 701 662 l 257
 701 730 l 257
 478 730 l 257
 478 662 l 257
 538 662 l 257
 538 246 l 258
 538 91 462 72 372 72 c 256
 284 72 208 91 208 246 c 258
 208 662 l 257
 268 662 l 257
 268 730 l 257
 45 730 l 257
 45 662 l 257
266 812 m 256
 214 812 211 847 211 879 c 256
 211 911 214 947 266 947 c 256
 319 947 322 911 322 879 c 256
 322 847 319 812 266 812 c 256
479 812 m 256
 428 812 425 847 425 879 c 256
 425 911 428 947 479 947 c 256
 533 947 536 911 536 879 c 256
 536 847 533 812 479 812 c 256
EndSplineSet
Validated: 9
EndChar

StartChar: Ugrave
Encoding: 217 217 106
Width: 746
VWidth: 0
Flags: W
PickledData: "(dp1
S'org.robofab.postScriptHintData'
p2
(dp3
S'vHints'
p4
((I105
I103
t(I538
I103
ttp5
sS'hHints'
p6
((I-14
I86
t(I662
I68
t(I984
I-20
ttp7
ssS'org.robofab.fontlab.mark'
p8
I144
s."
LayerCount: 2
Fore
SplineSet
45 662 m 257
 105 662 l 257
 105 241 l 258
 105 10 235 -14 372 -14 c 256
 511 -14 641 10 641 241 c 258
 641 662 l 257
 701 662 l 257
 701 730 l 257
 478 730 l 257
 478 662 l 257
 538 662 l 257
 538 246 l 258
 538 91 462 72 372 72 c 256
 284 72 208 91 208 246 c 258
 208 662 l 257
 268 662 l 257
 268 730 l 257
 45 730 l 257
 45 662 l 257
414 780 m 257
 224 910 l 257
 280 984 l 257
 457 837 l 257
 414 780 l 257
EndSplineSet
Validated: 9
EndChar

StartChar: Uhungarumlaut
Encoding: 368 368 107
Width: 746
VWidth: 0
Flags: W
PickledData: "(dp1
S'org.robofab.postScriptHintData'
p2
(dp3
S'vHints'
p4
((I105
I103
t(I538
I103
ttp5
sS'hHints'
p6
((I-14
I86
t(I662
I68
t(I984
I-20
ttp7
ssS'org.robofab.fontlab.mark'
p8
I80
s."
LayerCount: 2
Fore
SplineSet
45 662 m 257
 105 662 l 257
 105 241 l 258
 105 10 235 -14 372 -14 c 256
 511 -14 641 10 641 241 c 258
 641 662 l 257
 701 662 l 257
 701 730 l 257
 478 730 l 257
 478 662 l 257
 538 662 l 257
 538 246 l 258
 538 91 462 72 372 72 c 256
 284 72 208 91 208 246 c 258
 208 662 l 257
 268 662 l 257
 268 730 l 257
 45 730 l 257
 45 662 l 257
467 780 m 257
 657 910 l 257
 601 984 l 257
 423 837 l 257
 467 780 l 257
214 780 m 257
 404 910 l 257
 348 984 l 257
 170 837 l 257
 214 780 l 257
EndSplineSet
Validated: 9
EndChar

StartChar: Umacron
Encoding: 362 362 108
Width: 746
VWidth: 0
Flags: W
PickledData: "(dp1
S'org.robofab.postScriptHintData'
p2
(dp3
S'vHints'
p4
((I105
I103
t(I538
I103
ttp5
sS'hHints'
p6
((I-14
I86
t(I662
I68
t(I840
I81
ttp7
ssS'org.robofab.fontlab.mark'
p8
I80
s."
LayerCount: 2
Fore
SplineSet
45 662 m 257
 105 662 l 257
 105 241 l 258
 105 10 235 -14 372 -14 c 256
 511 -14 641 10 641 241 c 258
 641 662 l 257
 701 662 l 257
 701 730 l 257
 478 730 l 257
 478 662 l 257
 538 662 l 257
 538 246 l 258
 538 91 462 72 372 72 c 256
 284 72 208 91 208 246 c 258
 208 662 l 257
 268 662 l 257
 268 730 l 257
 45 730 l 257
 45 662 l 257
242 840 m 257
 504 840 l 257
 504 921 l 257
 242 921 l 257
 242 840 l 257
EndSplineSet
Validated: 9
EndChar

StartChar: Uogonek
Encoding: 370 370 109
Width: 746
VWidth: 0
Flags: W
PickledData: "(dp1
S'org.robofab.postScriptHintData'
p2
(dp3
S'vHints'
p4
((I105
I103
t(I249
I73
t(I538
I103
ttp5
sS'hHints'
p6
((I-232
I64
t(I-13
I85
t(I662
I68
ttp7
ssS'org.robofab.fontlab.mark'
p8
I80
s."
LayerCount: 2
Fore
SplineSet
45 662 m 257
 105 662 l 257
 105 241 l 258
 105 35 207 -6 326 -13 c 257
 265 -46 249 -82 249 -131 c 256
 249 -195 286 -232 359 -232 c 256
 418 -232 469 -196 497 -141 c 257
 447 -108 l 257
 430 -145 400 -168 369 -168 c 256
 338 -168 322 -149 322 -121 c 256
 322 -95 328 -79 369 -53 c 258
 432 -12 l 257
 546 -2 641 44 641 241 c 258
 641 662 l 257
 701 662 l 257
 701 730 l 257
 478 730 l 257
 478 662 l 257
 538 662 l 257
 538 246 l 258
 538 91 462 72 372 72 c 256
 284 72 208 91 208 246 c 258
 208 662 l 257
 268 662 l 257
 268 730 l 257
 45 730 l 257
 45 662 l 257
EndSplineSet
Validated: 9
EndChar

StartChar: Uring
Encoding: 366 366 110
Width: 746
VWidth: 0
Flags: W
PickledData: "(dp1
S'org.robofab.postScriptHintData'
p2
(dp3
S'vHints'
p4
((I105
I103
t(I272
I62
t(I412
I62
t(I538
I103
ttp5
sS'hHints'
p6
((I-14
I86
t(I662
I68
t(I780
I53
t(I934
I53
ttp7
ssS'org.robofab.fontlab.mark'
p8
I80
s."
LayerCount: 2
Fore
SplineSet
45 662 m 257
 105 662 l 257
 105 241 l 258
 105 10 235 -14 372 -14 c 256
 511 -14 641 10 641 241 c 258
 641 662 l 257
 701 662 l 257
 701 730 l 257
 478 730 l 257
 478 662 l 257
 538 662 l 257
 538 246 l 258
 538 91 462 72 372 72 c 256
 284 72 208 91 208 246 c 258
 208 662 l 257
 268 662 l 257
 268 730 l 257
 45 730 l 257
 45 662 l 257
372 780 m 256
 468 780 474 834 474 883 c 256
 474 932 468 987 372 987 c 256
 278 987 272 932 272 883 c 256
 272 834 278 780 372 780 c 256
372 833 m 256
 336 833 334 860 334 883 c 256
 334 907 336 934 372 934 c 256
 410 934 412 907 412 883 c 256
 412 860 410 833 372 833 c 256
EndSplineSet
Validated: 9
EndChar

StartChar: Utilde
Encoding: 360 360 111
Width: 746
VWidth: 0
Flags: W
PickledData: "(dp1
S'org.robofab.postScriptHintData'
p2
(dp3
S'replaceTable'
p4
((dp5
S'index'
p6
I1
sS'type'
p7
I1
s(dp8
g6
I0
sg7
I2
s(dp9
g6
I0
sg7
I1
s(dp10
g6
I1
sg7
I2
s(dp11
g6
I2
sg7
I1
s(dp12
g6
I5
sg7
I1
s(dp13
g6
I22
sg7
I255
s(dp14
g6
I4
sg7
I1
s(dp15
g6
I0
sg7
I1
s(dp16
g6
I1
sg7
I1
s(dp17
g6
I0
sg7
I2
s(dp18
g6
I1
sg7
I2
s(dp19
g6
I26
sg7
I255
s(dp20
g6
I2
sg7
I1
s(dp21
g6
I0
sg7
I1
s(dp22
g6
I1
sg7
I1
s(dp23
g6
I5
sg7
I1
s(dp24
g6
I0
sg7
I2
s(dp25
g6
I1
sg7
I2
stp26
sS'vHints'
p27
((I105
I103
t(I538
I103
ttp28
sS'hHints'
p29
((I-14
I86
t(I662
I68
t(I827
I81
t(I863
I45
t(I863
I81
t(I952
I-20
ttp30
ssS'org.robofab.fontlab.mark'
p31
I80
s."
LayerCount: 2
Fore
SplineSet
45 662 m 257
 105 662 l 257
 105 241 l 258
 105 10 235 -14 372 -14 c 256
 511 -14 641 10 641 241 c 258
 641 662 l 257
 701 662 l 257
 701 730 l 257
 478 730 l 257
 478 662 l 257
 538 662 l 257
 538 246 l 258
 538 91 462 72 372 72 c 256
 284 72 208 91 208 246 c 258
 208 662 l 257
 268 662 l 257
 268 730 l 257
 45 730 l 257
 45 662 l 257
446 827 m 256
 488 827 520 853 542 932 c 257
 480 952 l 257
 470 922 459 908 435 908 c 256
 405 908 346 944 300 944 c 256
 258 944 226 918 204 839 c 257
 267 819 l 257
 277 849 288 863 312 863 c 256
 342 863 400 827 446 827 c 256
EndSplineSet
Validated: 9
EndChar

StartChar: V
Encoding: 86 86 112
Width: 666
VWidth: 0
Flags: W
PickledData: "(dp1
S'org.robofab.postScriptHintData'
p2
(dp3
S'hHints'
p4
((I662
I68
t(I21
I-21
ttp5
ssS'org.robofab.fontlab.mark'
p6
I144
s."
LayerCount: 2
Fore
SplineSet
401 0 m 257
 605 662 l 257
 648 662 l 257
 648 730 l 257
 443 730 l 257
 443 662 l 257
 502 662 l 257
 333 96 l 257
 165 662 l 257
 223 662 l 257
 223 730 l 257
 18 730 l 257
 18 662 l 257
 61 662 l 257
 265 0 l 257
 401 0 l 257
EndSplineSet
Validated: 9
EndChar

StartChar: W
Encoding: 87 87 113
Width: 920
VWidth: 0
Flags: W
PickledData: "(dp1
S'org.robofab.postScriptHintData'
p2
(dp3
S'hHints'
p4
((I662
I68
t(I21
I-21
ttp5
ssS'org.robofab.fontlab.mark'
p6
I144
s."
LayerCount: 2
Fore
SplineSet
348 0 m 257
 460 527 l 257
 572 0 l 257
 722 0 l 257
 860 662 l 257
 901 662 l 257
 901 730 l 257
 696 730 l 257
 696 662 l 257
 757 662 l 257
 643 97 l 257
 511 730 l 257
 409 730 l 257
 276 97 l 257
 162 662 l 257
 224 662 l 257
 224 730 l 257
 19 730 l 257
 19 662 l 257
 59 662 l 257
 198 0 l 257
 348 0 l 257
EndSplineSet
Validated: 9
EndChar

StartChar: Wacute
Encoding: 7810 7810 114
Width: 920
VWidth: 0
Flags: W
PickledData: "(dp1
S'org.robofab.postScriptHintData'
p2
(dp3
S'hHints'
p4
((I662
I68
t(I21
I-21
t(I984
I-20
ttp5
ssS'org.robofab.fontlab.mark'
p6
I80
s."
LayerCount: 2
Fore
SplineSet
348 0 m 257
 460 527 l 257
 572 0 l 257
 722 0 l 257
 860 662 l 257
 901 662 l 257
 901 730 l 257
 696 730 l 257
 696 662 l 257
 757 662 l 257
 643 97 l 257
 511 730 l 257
 409 730 l 257
 276 97 l 257
 162 662 l 257
 224 662 l 257
 224 730 l 257
 19 730 l 257
 19 662 l 257
 59 662 l 257
 198 0 l 257
 348 0 l 257
402 780 m 257
 592 910 l 257
 536 984 l 257
 359 837 l 257
 402 780 l 257
EndSplineSet
Validated: 9
EndChar

StartChar: Wcircumflex
Encoding: 372 372 115
Width: 920
VWidth: 0
Flags: W
PickledData: "(dp1
S'org.robofab.postScriptHintData'
p2
(dp3
S'hHints'
p4
((I662
I68
t(I21
I-21
t(I979
I-20
ttp5
ssS'org.robofab.fontlab.mark'
p6
I80
s."
LayerCount: 2
Fore
SplineSet
348 0 m 257
 460 527 l 257
 572 0 l 257
 722 0 l 257
 860 662 l 257
 901 662 l 257
 901 730 l 257
 696 730 l 257
 696 662 l 257
 757 662 l 257
 643 97 l 257
 511 730 l 257
 409 730 l 257
 276 97 l 257
 162 662 l 257
 224 662 l 257
 224 730 l 257
 19 730 l 257
 19 662 l 257
 59 662 l 257
 198 0 l 257
 348 0 l 257
352 782 m 257
 460 880 l 257
 569 782 l 257
 615 828 l 257
 483 979 l 257
 438 979 l 257
 306 828 l 257
 352 782 l 257
EndSplineSet
Validated: 9
EndChar

StartChar: Wdieresis
Encoding: 7812 7812 116
Width: 920
VWidth: 0
Flags: W
PickledData: "(dp1
S'org.robofab.postScriptHintData'
p2
(dp3
S'vHints'
p4
((I297
I111
t(I511
I111
ttp5
sS'hHints'
p6
((I662
I68
t(I812
I135
t(I21
I-21
ttp7
ssS'org.robofab.fontlab.mark'
p8
I80
s."
LayerCount: 2
Fore
SplineSet
348 0 m 257
 460 527 l 257
 572 0 l 257
 722 0 l 257
 860 662 l 257
 901 662 l 257
 901 730 l 257
 696 730 l 257
 696 662 l 257
 757 662 l 257
 643 97 l 257
 511 730 l 257
 409 730 l 257
 276 97 l 257
 162 662 l 257
 224 662 l 257
 224 730 l 257
 19 730 l 257
 19 662 l 257
 59 662 l 257
 198 0 l 257
 348 0 l 257
352 812 m 256
 300 812 297 847 297 879 c 256
 297 911 300 947 352 947 c 256
 405 947 408 911 408 879 c 256
 408 847 405 812 352 812 c 256
565 812 m 256
 514 812 511 847 511 879 c 256
 511 911 514 947 565 947 c 256
 619 947 622 911 622 879 c 256
 622 847 619 812 565 812 c 256
EndSplineSet
Validated: 9
EndChar

StartChar: Wgrave
Encoding: 7808 7808 117
Width: 920
VWidth: 0
Flags: W
PickledData: "(dp1
S'org.robofab.postScriptHintData'
p2
(dp3
S'hHints'
p4
((I662
I68
t(I984
I-20
t(I21
I-21
ttp5
ssS'org.robofab.fontlab.mark'
p6
I80
s."
LayerCount: 2
Fore
SplineSet
348 0 m 257
 460 527 l 257
 572 0 l 257
 722 0 l 257
 860 662 l 257
 901 662 l 257
 901 730 l 257
 696 730 l 257
 696 662 l 257
 757 662 l 257
 643 97 l 257
 511 730 l 257
 409 730 l 257
 276 97 l 257
 162 662 l 257
 224 662 l 257
 224 730 l 257
 19 730 l 257
 19 662 l 257
 59 662 l 257
 198 0 l 257
 348 0 l 257
533 780 m 257
 343 910 l 257
 399 984 l 257
 576 837 l 257
 533 780 l 257
EndSplineSet
Validated: 9
EndChar

StartChar: X
Encoding: 88 88 118
Width: 650
VWidth: 0
Flags: W
PickledData: "(dp1
S'org.robofab.postScriptHintData'
p2
(dp3
S'hHints'
p4
((I0
I68
t(I662
I68
ttp5
ssS'org.robofab.fontlab.maskData'
p6
((dp7
S'method'
p8
S'beginPath'
p9
s(dp10
S'segmentType'
p11
S'line'
p12
sS'smooth'
p13
I00
sg8
S'addPoint'
p14
sS'pt'
p15
(I480
I691
tp16
s(dp17
g11
S'line'
p18
sg13
I00
sg8
S'addPoint'
p19
sg15
(I309
I417
tp20
s(dp21
g11
S'line'
p22
sg13
I00
sg8
S'addPoint'
p23
sg15
(I374
I354
tp24
s(dp25
g11
S'line'
p26
sg13
I00
sg8
S'addPoint'
p27
sg15
(I590
I691
tp28
s(dp29
g8
S'endPath'
p30
s(dp31
g8
S'beginPath'
p32
s(dp33
g11
S'line'
p34
sg13
I00
sg8
S'addPoint'
p35
sg15
(I59
I690
tp36
s(dp37
g11
S'line'
p38
sg13
I00
sg8
S'addPoint'
p39
sg15
(I491
I37
tp40
s(dp41
g11
S'line'
p42
sg13
I00
sg8
S'addPoint'
p43
sg15
(I607
I37
tp44
s(dp45
g11
S'line'
p46
sg13
I00
sg8
S'addPoint'
p47
sg15
(I175
I690
tp48
s(dp49
g8
S'endPath'
p50
s(dp51
g8
S'beginPath'
p52
s(dp53
g11
S'line'
p54
sg13
I00
sg8
S'addPoint'
p55
sg15
(I156
I37
tp56
s(dp57
g11
S'line'
p58
sg13
I00
sg8
S'addPoint'
p59
sg15
(I343
I338
tp60
s(dp61
g11
S'line'
p62
sg13
I00
sg8
S'addPoint'
p63
sg15
(I278
I401
tp64
s(dp65
g11
S'line'
p66
sg13
I00
sg8
S'addPoint'
p67
sg15
(I46
I37
tp68
s(dp69
g8
S'endPath'
p70
s(dp71
g8
S'beginPath'
p72
s(dp73
g11
S'line'
p74
sg13
I00
sg8
S'addPoint'
p75
sg15
(I422
I0
tp76
s(dp77
g11
S'line'
p78
sg13
I00
sg8
S'addPoint'
p79
sg15
(I634
I0
tp80
s(dp81
g11
S'line'
p82
sg13
I00
sg8
S'addPoint'
p83
sg15
(I634
I68
tp84
s(dp85
g11
S'line'
p86
sg13
I00
sg8
S'addPoint'
p87
sg15
(I422
I68
tp88
s(dp89
g8
S'endPath'
p90
s(dp91
g8
S'beginPath'
p92
s(dp93
g11
S'line'
p94
sg13
I00
sg8
S'addPoint'
p95
sg15
(I17
I0
tp96
s(dp97
g11
S'line'
p98
sg13
I00
sg8
S'addPoint'
p99
sg15
(I223
I0
tp100
s(dp101
g11
S'line'
p102
sg13
I00
sg8
S'addPoint'
p103
sg15
(I223
I68
tp104
s(dp105
g11
S'line'
p106
sg13
I00
sg8
S'addPoint'
p107
sg15
(I17
I68
tp108
s(dp109
g8
S'endPath'
p110
s(dp111
g8
S'beginPath'
p112
s(dp113
g11
S'line'
p114
sg13
I00
sg8
S'addPoint'
p115
sg15
(I30
I662
tp116
s(dp117
g11
S'line'
p118
sg13
I00
sg8
S'addPoint'
p119
sg15
(I241
I662
tp120
s(dp121
g11
S'line'
p122
sg13
I00
sg8
S'addPoint'
p123
sg15
(I241
I730
tp124
s(dp125
g11
S'line'
p126
sg13
I00
sg8
S'addPoint'
p127
sg15
(I30
I730
tp128
s(dp129
g8
S'endPath'
p130
s(dp131
g8
S'beginPath'
p132
s(dp133
g11
S'line'
p134
sg13
I00
sg8
S'addPoint'
p135
sg15
(I415
I662
tp136
s(dp137
g11
S'line'
p138
sg13
I00
sg8
S'addPoint'
p139
sg15
(I620
I662
tp140
s(dp141
g11
S'line'
p142
sg13
I00
sg8
S'addPoint'
p143
sg15
(I620
I730
tp144
s(dp145
g11
S'line'
p146
sg13
I00
sg8
S'addPoint'
p147
sg15
(I415
I730
tp148
s(dp149
g8
S'endPath'
p150
stp151
sS'org.robofab.fontlab.mark'
p152
I144
s."
LayerCount: 2
Fore
SplineSet
415 662 m 257
 462 662 l 257
 331 452 l 257
 192 662 l 257
 241 662 l 257
 241 730 l 257
 30 730 l 257
 30 662 l 257
 77 662 l 257
 264 379 l 257
 66 68 l 257
 17 68 l 257
 17 0 l 257
 223 0 l 257
 223 68 l 257
 175 68 l 257
 318 298 l 257
 470 68 l 257
 422 68 l 257
 422 0 l 257
 634 0 l 257
 634 68 l 257
 586 68 l 257
 385 371 l 257
 571 662 l 257
 620 662 l 257
 620 730 l 257
 415 730 l 257
 415 662 l 257
EndSplineSet
Validated: 9
EndChar

StartChar: Y
Encoding: 89 89 119
Width: 605
VWidth: 0
Flags: W
PickledData: "(dp1
S'org.robofab.postScriptHintData'
p2
(dp3
S'vHints'
p4
((I251
I103
ttp5
sS'hHints'
p6
((I0
I68
t(I662
I68
ttp7
ssS'org.robofab.fontlab.maskData'
p8
((dp9
S'method'
p10
S'beginPath'
p11
s(dp12
S'segmentType'
p13
S'line'
p14
sS'smooth'
p15
I00
sg10
S'addPoint'
p16
sS'pt'
p17
(I141
I730
tp18
s(dp19
g13
S'line'
p20
sg15
I00
sg10
S'addPoint'
p21
sg17
(I38
I730
tp22
s(dp23
g10
S'endPath'
p24
stp25
sS'org.robofab.fontlab.mark'
p26
I144
s."
LayerCount: 2
Fore
SplineSet
179 0 m 257
 426 0 l 257
 426 68 l 257
 354 68 l 257
 354 253 l 257
 547 662 l 257
 595 662 l 257
 595 730 l 257
 392 730 l 257
 392 662 l 257
 444 662 l 257
 303 353 l 257
 162 662 l 257
 213 662 l 257
 213 730 l 257
 10 730 l 257
 10 662 l 257
 58 662 l 257
 251 253 l 257
 251 68 l 257
 179 68 l 257
 179 0 l 257
EndSplineSet
Validated: 9
EndChar

StartChar: Yacute
Encoding: 221 221 120
Width: 601
VWidth: 0
Flags: W
PickledData: "(dp1
S'org.robofab.postScriptHintData'
p2
(dp3
S'vHints'
p4
((I249
I103
ttp5
sS'hHints'
p6
((I0
I68
t(I662
I68
t(I984
I-20
ttp7
ssS'org.robofab.fontlab.mark'
p8
I144
s."
LayerCount: 2
Fore
SplineSet
352 253 m 257
 545 662 l 257
 593 662 l 257
 593 730 l 257
 390 730 l 257
 390 662 l 257
 442 662 l 257
 301 353 l 257
 160 662 l 257
 211 662 l 257
 211 730 l 257
 8 730 l 257
 8 662 l 257
 56 662 l 257
 249 253 l 257
 249 68 l 257
 177 68 l 257
 177 0 l 257
 424 0 l 257
 424 68 l 257
 352 68 l 257
 352 253 l 257
230 780 m 257
 420 910 l 257
 364 984 l 257
 187 837 l 257
 230 780 l 257
EndSplineSet
Validated: 9
EndChar

StartChar: Ycircumflex
Encoding: 374 374 121
Width: 605
VWidth: 0
Flags: W
PickledData: "(dp1
S'org.robofab.postScriptHintData'
p2
(dp3
S'vHints'
p4
((I251
I103
ttp5
sS'hHints'
p6
((I0
I68
t(I662
I68
t(I979
I-20
ttp7
ssS'org.robofab.fontlab.mark'
p8
I80
s."
LayerCount: 2
Fore
SplineSet
354 253 m 257
 547 662 l 257
 595 662 l 257
 595 730 l 257
 392 730 l 257
 392 662 l 257
 444 662 l 257
 303 353 l 257
 162 662 l 257
 213 662 l 257
 213 730 l 257
 10 730 l 257
 10 662 l 257
 58 662 l 257
 251 253 l 257
 251 68 l 257
 179 68 l 257
 179 0 l 257
 426 0 l 257
 426 68 l 257
 354 68 l 257
 354 253 l 257
195 782 m 257
 303 880 l 257
 412 782 l 257
 458 828 l 257
 326 979 l 257
 281 979 l 257
 149 828 l 257
 195 782 l 257
EndSplineSet
Validated: 9
EndChar

StartChar: Ydieresis
Encoding: 376 376 122
Width: 601
VWidth: 0
Flags: W
PickledData: "(dp1
S'org.robofab.postScriptHintData'
p2
(dp3
S'vHints'
p4
((I138
I111
t(I352
I111
ttp5
sS'hHints'
p6
((I0
I68
t(I662
I68
t(I812
I135
ttp7
ssS'org.robofab.fontlab.mark'
p8
I80
s."
LayerCount: 2
Fore
SplineSet
352 253 m 257
 545 662 l 257
 593 662 l 257
 593 730 l 257
 390 730 l 257
 390 662 l 257
 442 662 l 257
 301 353 l 257
 160 662 l 257
 211 662 l 257
 211 730 l 257
 8 730 l 257
 8 662 l 257
 56 662 l 257
 249 253 l 257
 249 68 l 257
 177 68 l 257
 177 0 l 257
 424 0 l 257
 424 68 l 257
 352 68 l 257
 352 253 l 257
193 812 m 256
 141 812 138 847 138 879 c 256
 138 911 141 947 193 947 c 256
 246 947 249 911 249 879 c 256
 249 847 246 812 193 812 c 256
406 812 m 256
 355 812 352 847 352 879 c 256
 352 911 355 947 406 947 c 256
 460 947 463 911 463 879 c 256
 463 847 460 812 406 812 c 256
EndSplineSet
Validated: 9
EndChar

StartChar: Ygrave
Encoding: 7922 7922 123
Width: 605
VWidth: 0
Flags: W
PickledData: "(dp1
S'org.robofab.postScriptHintData'
p2
(dp3
S'vHints'
p4
((I251
I103
ttp5
sS'hHints'
p6
((I0
I68
t(I662
I68
t(I984
I-20
ttp7
ssS'org.robofab.fontlab.mark'
p8
I80
s."
LayerCount: 2
Fore
SplineSet
354 253 m 257
 547 662 l 257
 595 662 l 257
 595 730 l 257
 392 730 l 257
 392 662 l 257
 444 662 l 257
 303 353 l 257
 162 662 l 257
 213 662 l 257
 213 730 l 257
 10 730 l 257
 10 662 l 257
 58 662 l 257
 251 253 l 257
 251 68 l 257
 179 68 l 257
 179 0 l 257
 426 0 l 257
 426 68 l 257
 354 68 l 257
 354 253 l 257
376 780 m 257
 186 910 l 257
 242 984 l 257
 419 837 l 257
 376 780 l 257
EndSplineSet
Validated: 9
EndChar

StartChar: Z
Encoding: 90 90 124
Width: 564
VWidth: 0
Flags: W
PickledData: "(dp1
S'org.robofab.postScriptHintData'
p2
(dp3
S'hHints'
p4
((I0
I81
t(I649
I81
ttp5
ssS'org.robofab.fontlab.maskData'
p6
((dp7
S'method'
p8
S'beginPath'
p9
s(dp10
S'segmentType'
p11
S'line'
p12
sS'smooth'
p13
I00
sg8
S'addPoint'
p14
sS'pt'
p15
(I49
I650
tp16
s(dp17
g11
S'line'
p18
sg13
I00
sg8
S'addPoint'
p19
sg15
(I400
I650
tp20
s(dp21
g11
S'line'
p22
sg13
I00
sg8
S'addPoint'
p23
sg15
(I30
I65
tp24
s(dp25
g11
S'line'
p26
sg13
I00
sg8
S'addPoint'
p27
sg15
(I30
I0
tp28
s(dp29
g11
S'line'
p30
sg13
I00
sg8
S'addPoint'
p31
sg15
(I534
I0
tp32
s(dp33
g11
S'line'
p34
sg13
I00
sg8
S'addPoint'
p35
sg15
(I534
I80
tp36
s(dp37
g11
S'line'
p38
sg13
I00
sg8
S'addPoint'
p39
sg15
(I155
I80
tp40
s(dp41
g11
S'line'
p42
sg13
I00
sg8
S'addPoint'
p43
sg15
(I524
I664
tp44
s(dp45
g11
S'line'
p46
sg13
I00
sg8
S'addPoint'
p47
sg15
(I524
I730
tp48
s(dp49
g11
S'line'
p50
sg13
I00
sg8
S'addPoint'
p51
sg15
(I50
I730
tp52
s(dp53
g8
S'endPath'
p54
s(dp55
g8
S'beginPath'
p56
s(dp57
g11
S'line'
p58
sg13
I00
sg8
S'addPoint'
p59
sg15
(I125
I552
tp60
s(dp61
g11
S'line'
p62
sg13
I00
sg8
S'addPoint'
p63
sg15
(I125
I730
tp64
s(dp65
g11
S'line'
p66
sg13
I00
sg8
S'addPoint'
p67
sg15
(I50
I730
tp68
s(dp69
g11
S'line'
p70
sg13
I00
sg8
S'addPoint'
p71
sg15
(I50
I552
tp72
s(dp73
g8
S'endPath'
p74
s(dp75
g8
S'beginPath'
p76
s(dp77
g11
S'line'
p78
sg13
I00
sg8
S'addPoint'
p79
sg15
(I534
I0
tp80
s(dp81
g11
S'line'
p82
sg13
I00
sg8
S'addPoint'
p83
sg15
(I534
I177
tp84
s(dp85
g11
S'line'
p86
sg13
I00
sg8
S'addPoint'
p87
sg15
(I459
I177
tp88
s(dp89
g11
S'line'
p90
sg13
I00
sg8
S'addPoint'
p91
sg15
(I459
I0
tp92
s(dp93
g8
S'endPath'
p94
stp95
sS'org.robofab.fontlab.mark'
p96
I144
s."
LayerCount: 2
Fore
SplineSet
49 649 m 257
 50 649 l 257
 50 552 l 257
 125 552 l 257
 125 649 l 257
 400 649 l 257
 30 65 l 257
 30 0 l 257
 534 0 l 257
 534 177 l 257
 459 177 l 257
 459 81 l 257
 155 81 l 257
 524 664 l 257
 524 730 l 257
 50 730 l 257
 49 649 l 257
EndSplineSet
Validated: 9
EndChar

StartChar: Zacute
Encoding: 377 377 125
Width: 564
VWidth: 0
Flags: W
PickledData: "(dp1
S'org.robofab.postScriptHintData'
p2
(dp3
S'hHints'
p4
((I0
I81
t(I649
I81
t(I984
I-20
ttp5
ssS'org.robofab.fontlab.mark'
p6
I80
s."
LayerCount: 2
Fore
SplineSet
534 0 m 257
 534 177 l 257
 459 177 l 257
 459 81 l 257
 155 81 l 257
 524 664 l 257
 524 730 l 257
 50 730 l 257
 49 649 l 257
 50 649 l 257
 50 552 l 257
 125 552 l 257
 125 649 l 257
 400 649 l 257
 30 65 l 257
 30 0 l 257
 534 0 l 257
238 780 m 257
 428 910 l 257
 372 984 l 257
 195 837 l 257
 238 780 l 257
EndSplineSet
Validated: 9
EndChar

StartChar: Zcaron
Encoding: 381 381 126
Width: 525
VWidth: 0
Flags: W
PickledData: "(dp1
S'org.robofab.postScriptHintData'
p2
(dp3
S'hHints'
p4
((I0
I81
t(I649
I81
t(I985
I-20
ttp5
ssS'org.robofab.fontlab.mark'
p6
I80
s."
LayerCount: 2
Fore
SplineSet
41 649 m 257
 42 649 l 257
 42 552 l 257
 117 552 l 257
 117 649 l 257
 392 649 l 257
 22 65 l 257
 22 0 l 257
 526 0 l 257
 526 177 l 257
 451 177 l 257
 451 81 l 257
 147 81 l 257
 516 664 l 257
 516 730 l 257
 42 730 l 257
 41 649 l 257
371 985 m 257
 263 887 l 257
 154 985 l 257
 108 939 l 257
 240 788 l 257
 285 788 l 257
 417 939 l 257
 371 985 l 257
EndSplineSet
Validated: 9
EndChar

StartChar: Zdotaccent
Encoding: 379 379 127
Width: 564
VWidth: 0
Flags: W
PickledData: "(dp1
S'org.robofab.postScriptHintData'
p2
(dp3
S'vHints'
p4
((I238
I128
ttp5
sS'hHints'
p6
((I0
I81
t(I649
I81
t(I806
I155
ttp7
ssS'org.robofab.fontlab.mark'
p8
I80
s."
LayerCount: 2
Fore
SplineSet
49 649 m 257
 50 649 l 257
 50 552 l 257
 125 552 l 257
 125 649 l 257
 400 649 l 257
 30 65 l 257
 30 0 l 257
 534 0 l 257
 534 177 l 257
 459 177 l 257
 459 81 l 257
 155 81 l 257
 524 664 l 257
 524 730 l 257
 50 730 l 257
 49 649 l 257
301 806 m 256
 362 806 366 848 366 883 c 256
 366 919 362 961 301 961 c 256
 242 961 238 919 238 883 c 256
 238 848 242 806 301 806 c 256
EndSplineSet
Validated: 9
EndChar

StartChar: a
Encoding: 97 97 128
Width: 608
VWidth: 0
Flags: W
PickledData: "(dp1
S'org.robofab.postScriptHintData'
p2
(dp3
S'replaceTable'
p4
((dp5
S'index'
p6
I1
sS'type'
p7
I1
s(dp8
g6
I2
sg7
I2
s(dp9
g6
I3
sg7
I1
s(dp10
g6
I1
sg7
I2
s(dp11
g6
I2
sg7
I1
s(dp12
g6
I12
sg7
I255
s(dp13
g6
I0
sg7
I2
s(dp14
g6
I0
sg7
I1
s(dp15
g6
I2
sg7
I1
s(dp16
g6
I3
sg7
I1
s(dp17
g6
I2
sg7
I2
s(dp18
g6
I-14
sg7
I255
s(dp19
g6
I1
sg7
I1
s(dp20
g6
I0
sg7
I2
s(dp21
g6
I2
sg7
I1
s(dp22
g6
I2
sg7
I2
s(dp23
g6
I3
sg7
I1
stp24
sS'vHints'
p25
((I53
I98
t(I77
I74
t(I395
I101
ttp26
sS'hHints'
p27
((I-14
I76
t(I0
I62
t(I251
I70
t(I506
I80
ttp28
ssS'org.robofab.fontlab.mark'
p29
I144
s."
LayerCount: 2
Fore
SplineSet
430 0 m 257
 556 0 l 257
 556 68 l 257
 496 68 l 257
 496 426 l 258
 496 550 401 586 290 586 c 256
 127 586 85 515 77 403 c 257
 161 399 l 257
 165 468 188 506 287 506 c 256
 345 506 395 484 395 420 c 258
 395 331 l 257
 232 321 l 257
 86 310 53 256 53 146 c 256
 53 48 96 -14 221 -14 c 256
 304 -14 366 19 414 57 c 257
 430 0 l 257
247 62 m 256
 177 62 151 90 151 149 c 256
 151 223 171 247 251 251 c 258
 395 260 l 257
 395 123 l 257
 354 84 299 62 247 62 c 256
EndSplineSet
Validated: 9
EndChar

StartChar: aacute
Encoding: 225 225 129
Width: 608
VWidth: 0
Flags: W
PickledData: "(dp1
S'org.robofab.postScriptHintData'
p2
(dp3
S'replaceTable'
p4
((dp5
S'index'
p6
I1
sS'type'
p7
I1
s(dp8
g6
I2
sg7
I2
s(dp9
g6
I3
sg7
I1
s(dp10
g6
I1
sg7
I2
s(dp11
g6
I2
sg7
I1
s(dp12
g6
I4
sg7
I1
s(dp13
g6
I12
sg7
I255
s(dp14
g6
I0
sg7
I2
s(dp15
g6
I0
sg7
I1
s(dp16
g6
I2
sg7
I1
s(dp17
g6
I3
sg7
I1
s(dp18
g6
I4
sg7
I1
s(dp19
g6
I2
sg7
I2
s(dp20
g6
I-14
sg7
I255
s(dp21
g6
I1
sg7
I1
s(dp22
g6
I0
sg7
I2
s(dp23
g6
I2
sg7
I1
s(dp24
g6
I2
sg7
I2
s(dp25
g6
I4
sg7
I1
s(dp26
g6
I3
sg7
I1
stp27
sS'vHints'
p28
((I53
I98
t(I77
I74
t(I395
I101
ttp29
sS'hHints'
p30
((I-14
I76
t(I0
I62
t(I251
I70
t(I506
I80
t(I826
I-20
ttp31
ssS'org.robofab.fontlab.mark'
p32
I144
s."
LayerCount: 2
Fore
SplineSet
430 0 m 257
 556 0 l 257
 556 68 l 257
 496 68 l 257
 496 426 l 258
 496 550 401 586 290 586 c 256
 127 586 85 515 77 403 c 257
 161 399 l 257
 165 468 188 506 287 506 c 256
 345 506 395 484 395 420 c 258
 395 331 l 257
 232 321 l 257
 86 310 53 256 53 146 c 256
 53 48 96 -14 221 -14 c 256
 304 -14 366 19 414 57 c 257
 430 0 l 257
247 62 m 256
 177 62 151 90 151 149 c 256
 151 223 171 247 251 251 c 258
 395 260 l 257
 395 123 l 257
 354 84 299 62 247 62 c 256
262 622 m 257
 452 752 l 257
 396 826 l 257
 219 679 l 257
 262 622 l 257
EndSplineSet
Validated: 9
EndChar

StartChar: aadeva
Encoding: 2310 2310 130
Width: 1173
VWidth: 0
Flags: W
PickledData: "(dp1
S'org.robofab.postScriptHintData'
p2
(dp3
S'replaceTable'
p4
((dp5
S'index'
p6
I1
sS'type'
p7
I1
s(dp8
g6
I2
sg7
I2
s(dp9
g6
I1
sg7
I2
s(dp10
g6
I3
sg7
I1
s(dp11
g6
I0
sg7
I2
s(dp12
g6
I0
sg7
I1
s(dp13
g6
I4
sg7
I1
s(dp14
g6
I3
sg7
I2
s(dp15
g6
I28
sg7
I255
s(dp16
g6
I2
sg7
I1
s(dp17
g6
I2
sg7
I2
s(dp18
g6
I1
sg7
I1
s(dp19
g6
I0
sg7
I1
s(dp20
g6
I4
sg7
I1
s(dp21
g6
I0
sg7
I2
s(dp22
g6
I1
sg7
I2
s(dp23
g6
I3
sg7
I2
stp24
sS'vHints'
p25
((I43
I81
t(I380
I101
t(I649
I101
t(I964
I101
ttp26
sS'hHints'
p27
((I46
I81
t(I354
I76
t(I662
I68
t(I662
I82
t(I21
I-21
ttp28
ssS'org.robofab.fontlab.maskData'
p29
((dp30
S'method'
p31
S'beginPath'
p32
s(dp33
S'segmentType'
p34
S'curve'
p35
sS'smooth'
p36
I01
sg31
S'addPoint'
p37
sS'pt'
p38
(I350
I52
tp39
s(dp40
g31
S'addPoint'
p41
sg38
(I234
I52
tp42
s(dp43
g31
S'addPoint'
p44
sg38
(I119
I154
tp45
s(dp46
g34
S'curve'
p47
sg36
I00
sg31
S'addPoint'
p48
sg38
(I36
I329
tp49
s(dp50
g34
S'line'
p51
sg36
I00
sg31
S'addPoint'
p52
sg38
(I87
I373
tp53
s(dp54
g31
S'addPoint'
p55
sg38
(I162
I216
tp56
s(dp57
g31
S'addPoint'
p58
sg38
(I257
I124
tp59
s(dp60
g34
S'curve'
p61
sg36
I01
sg31
S'addPoint'
p62
sg38
(I350
I124
tp63
s(dp64
g31
S'addPoint'
p65
sg38
(I381
I124
tp66
s(dp67
g31
S'addPoint'
p68
sg38
(I406
I137
tp69
s(dp70
g34
S'curve'
p71
sg36
I01
sg31
S'addPoint'
p72
sg38
(I427
I163
tp73
s(dp74
g31
S'addPoint'
p75
sg38
(I448
I189
tp76
s(dp77
g31
S'addPoint'
p78
sg38
(I459
I220
tp79
s(dp80
g34
S'curve'
p81
sg36
I01
sg31
S'addPoint'
p82
sg38
(I459
I256
tp83
s(dp84
g31
S'addPoint'
p85
sg38
(I459
I290
tp86
s(dp87
g31
S'addPoint'
p88
sg38
(I447
I319
tp89
s(dp90
g34
S'curve'
p91
sg36
I01
sg31
S'addPoint'
p92
sg38
(I423
I343
tp93
s(dp94
g31
S'addPoint'
p95
sg38
(I399
I368
tp96
s(dp97
g31
S'addPoint'
p98
sg38
(I370
I380
tp99
s(dp100
g34
S'curve'
p101
sg36
I01
sg31
S'addPoint'
p102
sg38
(I336
I380
tp103
s(dp104
g31
S'addPoint'
p105
sg38
(I313
I380
tp106
s(dp107
g31
S'addPoint'
p108
sg38
(I290
I376
tp109
s(dp110
g34
S'curve'
p111
sg36
I00
sg31
S'addPoint'
p112
sg38
(I263
I365
tp113
s(dp114
g34
S'line'
p115
sg36
I00
sg31
S'addPoint'
p116
sg38
(I233
I431
tp117
s(dp118
g31
S'addPoint'
p119
sg38
(I278
I435
tp120
s(dp121
g31
S'addPoint'
p122
sg38
(I317
I451
tp123
s(dp124
g34
S'curve'
p125
sg36
I01
sg31
S'addPoint'
p126
sg38
(I351
I479
tp127
s(dp128
g31
S'addPoint'
p129
sg38
(I385
I507
tp130
s(dp131
g31
S'addPoint'
p132
sg38
(I402
I537
tp133
s(dp134
g34
S'curve'
p135
sg36
I01
sg31
S'addPoint'
p136
sg38
(I402
I569
tp137
s(dp138
g31
S'addPoint'
p139
sg38
(I402
I596
tp140
s(dp141
g31
S'addPoint'
p142
sg38
(I392
I618
tp143
s(dp144
g34
S'curve'
p145
sg36
I01
sg31
S'addPoint'
p146
sg38
(I371
I637
tp147
s(dp148
g31
S'addPoint'
p149
sg38
(I351
I656
tp150
s(dp151
g31
S'addPoint'
p152
sg38
(I327
I665
tp153
s(dp154
g34
S'curve'
p155
sg36
I01
sg31
S'addPoint'
p156
sg38
(I300
I665
tp157
s(dp158
g31
S'addPoint'
p159
sg38
(I253
I665
tp160
s(dp161
g31
S'addPoint'
p162
sg38
(I191
I627
tp163
s(dp164
g34
S'curve'
p165
sg36
I00
sg31
S'addPoint'
p166
sg38
(I138
I563
tp167
s(dp168
g34
S'line'
p169
sg36
I00
sg31
S'addPoint'
p170
sg38
(I87
I613
tp171
s(dp172
g31
S'addPoint'
p173
sg38
(I139
I688
tp174
s(dp175
g31
S'addPoint'
p176
sg38
(I217
I730
tp177
s(dp178
g34
S'curve'
p179
sg36
I01
sg31
S'addPoint'
p180
sg38
(I300
I730
tp181
s(dp182
g31
S'addPoint'
p183
sg38
(I348
I730
tp184
s(dp185
g31
S'addPoint'
p186
sg38
(I389
I714
tp187
s(dp188
g34
S'curve'
p189
sg36
I01
sg31
S'addPoint'
p190
sg38
(I423
I683
tp191
s(dp192
g31
S'addPoint'
p193
sg38
(I457
I652
tp194
s(dp195
g31
S'addPoint'
p196
sg38
(I474
I614
tp197
s(dp198
g34
S'curve'
p199
sg36
I01
sg31
S'addPoint'
p200
sg38
(I474
I569
tp201
s(dp202
g31
S'addPoint'
p203
sg38
(I474
I517
tp204
s(dp205
g31
S'addPoint'
p206
sg38
(I449
I466
tp207
s(dp208
g34
S'curve'
p209
sg36
I00
sg31
S'addPoint'
p210
sg38
(I409
I431
tp211
s(dp212
g31
S'addPoint'
p213
sg38
(I474
I391
tp214
s(dp215
g31
S'addPoint'
p216
sg38
(I540
I373
tp217
s(dp218
g34
S'curve'
p219
sg36
I01
sg31
S'addPoint'
p220
sg38
(I599
I373
tp221
s(dp222
g31
S'addPoint'
p223
sg38
(I614
I373
tp224
s(dp225
g31
S'addPoint'
p226
sg38
(I639
I382
tp227
s(dp228
g34
S'curve'
p229
sg36
I00
sg31
S'addPoint'
p230
sg38
(I672
I401
tp231
s(dp232
g34
S'line'
p233
sg36
I00
sg31
S'addPoint'
p234
sg38
(I672
I665
tp235
s(dp236
g34
S'line'
p237
sg36
I00
sg31
S'addPoint'
p238
sg38
(I540
I665
tp239
s(dp240
g34
S'line'
p241
sg36
I00
sg31
S'addPoint'
p242
sg38
(I540
I730
tp243
s(dp244
g34
S'line'
p245
sg36
I00
sg31
S'addPoint'
p246
sg38
(I1168
I730
tp247
s(dp248
g34
S'line'
p249
sg36
I00
sg31
S'addPoint'
p250
sg38
(I1168
I665
tp251
s(dp252
g34
S'line'
p253
sg36
I00
sg31
S'addPoint'
p254
sg38
(I1044
I665
tp255
s(dp256
g34
S'line'
p257
sg36
I00
sg31
S'addPoint'
p258
sg38
(I1044
I0
tp259
s(dp260
g34
S'line'
p261
sg36
I00
sg31
S'addPoint'
p262
sg38
(I970
I0
tp263
s(dp264
g34
S'line'
p265
sg36
I00
sg31
S'addPoint'
p266
sg38
(I970
I665
tp267
s(dp268
g34
S'line'
p269
sg36
I00
sg31
S'addPoint'
p270
sg38
(I745
I665
tp271
s(dp272
g34
S'line'
p273
sg36
I00
sg31
S'addPoint'
p274
sg38
(I745
I0
tp275
s(dp276
g34
S'line'
p277
sg36
I00
sg31
S'addPoint'
p278
sg38
(I672
I0
tp279
s(dp280
g34
S'line'
p281
sg36
I00
sg31
S'addPoint'
p282
sg38
(I672
I329
tp283
s(dp284
g31
S'addPoint'
p285
sg38
(I648
I308
tp286
s(dp287
g31
S'addPoint'
p288
sg38
(I624
I300
tp289
s(dp290
g34
S'curve'
p291
sg36
I01
sg31
S'addPoint'
p292
sg38
(I599
I300
tp293
s(dp294
g31
S'addPoint'
p295
sg38
(I558
I300
tp296
s(dp297
g31
S'addPoint'
p298
sg38
(I523
I308
tp299
s(dp300
g34
S'curve'
p301
sg36
I00
sg31
S'addPoint'
p302
sg38
(I503
I321
tp303
s(dp304
g31
S'addPoint'
p305
sg38
(I523
I305
tp306
s(dp307
g31
S'addPoint'
p308
sg38
(I533
I276
tp309
s(dp310
g34
S'curve'
p311
sg36
I01
sg31
S'addPoint'
p312
sg38
(I533
I241
tp313
s(dp314
g31
S'addPoint'
p315
sg38
(I533
I189
tp316
s(dp317
g31
S'addPoint'
p318
sg38
(I515
I144
tp319
s(dp320
g34
S'curve'
p321
sg36
I01
sg31
S'addPoint'
p322
sg38
(I480
I107
tp323
s(dp324
g31
S'addPoint'
p325
sg38
(I445
I70
tp326
s(dp327
g31
S'addPoint'
p328
sg38
(I401
I52
tp329
s(dp330
g31
S'endPath'
p331
stp332
sS'org.robofab.fontlab.mark'
p333
I26
s."
AnchorPoint: "DVAnchor3" 857 730 basechar 0
LayerCount: 2
Fore
SplineSet
649 430 m 257
 562 358 483 386 404 409 c 257
 450 438 481 484 481 546 c 256
 481 664 424 744 259 744 c 256
 98 744 43 672 43 538 c 257
 132 538 l 257
 132 617 164 662 253 662 c 256
 349 662 380 617 380 547 c 256
 380 479 343 430 256 430 c 258
 200 430 l 257
 200 354 l 257
 255 354 l 258
 347 354 389 311 389 235 c 256
 389 167 353 128 260 127 c 257
 181 128 132 163 124 273 c 257
 31 236 l 257
 50 98 132 46 263 46 c 256
 420 46 490 119 490 231 c 256
 490 262 484 290 474 313 c 257
 530 299 588 298 649 349 c 257
 649 0 l 257
 750 0 l 257
 750 662 l 257
 964 662 l 257
 964 0 l 257
 1065 0 l 257
 1065 662 l 257
 1183 662 l 257
 1183 730 l 257
 531 730 l 257
 531 662 l 257
 649 662 l 257
 649 430 l 257
EndSplineSet
Validated: 41
EndChar

StartChar: aasigndeva
Encoding: 2366 2366 131
Width: 316
VWidth: 0
Flags: W
PickledData: "(dp1
S'org.robofab.postScriptHintData'
p2
(dp3
S'vHints'
p4
((I107
I101
ttp5
sS'hHints'
p6
((I662
I68
t(I21
I-21
ttp7
ssS'org.robofab.fontlab.mark'
p8
I26
s."
LayerCount: 2
Fore
SplineSet
107 662 m 257
 107 0 l 257
 208 0 l 257
 208 662 l 257
 326 662 l 257
 326 730 l 257
 -10 730 l 257
 -10 662 l 257
 107 662 l 257
EndSplineSet
Validated: 9
EndChar

StartChar: abbreviationsigndeva
Encoding: 2416 2416 132
Width: 532
VWidth: 0
Flags: W
PickledData: "(dp1
S'org.robofab.postScriptHintData'
p2
(dp3
S'vHints'
p4
((I98
I62
t(I376
I60
ttp5
sS'hHints'
p6
((I317
I55
t(I596
I54
ttp7
ssS'org.robofab.fontlab.mark'
p8
I0
s."
LayerCount: 2
Fore
SplineSet
268 372 m 256
 298 372 323 383 344 404 c 256
 365 427 376 453 376 484 c 256
 376 547 327 596 268 596 c 256
 209 596 160 547 160 484 c 256
 160 422 209 372 268 372 c 256
98 484 m 256
 98 530 114 569 146 602 c 256
 180 634 220 650 267 650 c 256
 313 650 354 634 386 602 c 256
 419 569 436 530 436 484 c 256
 436 438 419 398 386 366 c 256
 354 334 313 317 267 317 c 256
 220 317 180 334 146 366 c 256
 114 398 98 438 98 484 c 256
EndSplineSet
Validated: 1
EndChar

StartChar: abreve
Encoding: 259 259 133
Width: 608
VWidth: 0
Flags: W
PickledData: "(dp1
S'org.robofab.postScriptHintData'
p2
(dp3
S'replaceTable'
p4
((dp5
S'index'
p6
I4
sS'type'
p7
I1
s(dp8
g6
I0
sg7
I1
s(dp9
g6
I2
sg7
I1
s(dp10
g6
I3
sg7
I1
s(dp11
g6
I0
sg7
I2
s(dp12
g6
I2
sg7
I2
s(dp13
g6
I1
sg7
I255
s(dp14
g6
I5
sg7
I1
s(dp15
g6
I0
sg7
I1
s(dp16
g6
I2
sg7
I1
s(dp17
g6
I3
sg7
I1
s(dp18
g6
I0
sg7
I2
s(dp19
g6
I2
sg7
I2
s(dp20
g6
I2
sg7
I255
s(dp21
g6
I4
sg7
I1
s(dp22
g6
I3
sg7
I2
s(dp23
g6
I0
sg7
I1
s(dp24
g6
I2
sg7
I1
s(dp25
g6
I3
sg7
I1
s(dp26
g6
I0
sg7
I2
s(dp27
g6
I7
sg7
I255
s(dp28
g6
I2
sg7
I2
s(dp29
g6
I0
sg7
I2
s(dp30
g6
I0
sg7
I1
s(dp31
g6
I2
sg7
I1
s(dp32
g6
I3
sg7
I1
s(dp33
g6
I4
sg7
I1
s(dp34
g6
I19
sg7
I255
s(dp35
g6
I1
sg7
I2
s(dp36
g6
I3
sg7
I1
s(dp37
g6
I2
sg7
I2
s(dp38
g6
I1
sg7
I1
s(dp39
g6
I2
sg7
I1
s(dp40
g6
I4
sg7
I1
stp41
sS'vHints'
p42
((I53
I98
t(I77
I84
t(I395
I101
t(I426
I70
ttp43
sS'hHints'
p44
((I-14
I76
t(I0
I62
t(I255
I66
t(I506
I80
t(I640
I143
t(I640
I71
ttp45
ssS'org.robofab.fontlab.mark'
p46
I80
s."
LayerCount: 2
Fore
SplineSet
430 0 m 257
 556 0 l 257
 556 68 l 257
 496 68 l 257
 496 426 l 258
 496 550 401 586 290 586 c 256
 127 586 85 515 77 403 c 257
 161 399 l 257
 165 468 188 506 287 506 c 256
 345 506 395 484 395 420 c 258
 395 331 l 257
 232 321 l 257
 86 310 53 256 53 146 c 256
 53 48 96 -14 221 -14 c 256
 304 -14 366 19 414 57 c 257
 430 0 l 257
247 62 m 256
 177 62 151 90 151 149 c 256
 151 223 171 247 251 251 c 258
 395 260 l 257
 395 123 l 257
 354 84 299 62 247 62 c 256
426 783 m 257
 426 710 412 640 294 640 c 256
 177 640 163 710 163 783 c 257
 227 783 l 257
 227 746 231 711 294 711 c 256
 357 711 361 746 361 783 c 257
 426 783 l 257
EndSplineSet
Validated: 9
EndChar

StartChar: acandradeva
Encoding: 2418 2418 134
Width: 857
VWidth: 0
Flags: W
PickledData: "(dp1
S'org.robofab.postScriptHintData'
p2
(dp3
S'replaceTable'
p4
((dp5
S'index'
p6
I4
sS'type'
p7
I1
s(dp8
g6
I3
sg7
I1
s(dp9
g6
I3
sg7
I2
s(dp10
g6
I5
sg7
I1
s(dp11
g6
I0
sg7
I1
s(dp12
g6
I1
sg7
I1
s(dp13
g6
I2
sg7
I1
s(dp14
g6
I0
sg7
I2
s(dp15
g6
I6
sg7
I255
s(dp16
g6
I5
sg7
I1
s(dp17
g6
I2
sg7
I2
s(dp18
g6
I0
sg7
I1
s(dp19
g6
I1
sg7
I1
s(dp20
g6
I2
sg7
I1
s(dp21
g6
I3
sg7
I1
s(dp22
g6
I4
sg7
I1
s(dp23
g6
I0
sg7
I2
s(dp24
g6
I14
sg7
I255
s(dp25
g6
I1
sg7
I2
s(dp26
g6
I1
sg7
I1
s(dp27
g6
I2
sg7
I1
s(dp28
g6
I0
sg7
I2
s(dp29
g6
I0
sg7
I1
s(dp30
g6
I3
sg7
I1
s(dp31
g6
I4
sg7
I1
s(dp32
g6
I5
sg7
I1
s(dp33
g6
I23
sg7
I255
s(dp34
g6
I6
sg7
I1
s(dp35
g6
I1
sg7
I1
s(dp36
g6
I2
sg7
I2
s(dp37
g6
I0
sg7
I1
s(dp38
g6
I3
sg7
I1
s(dp39
g6
I4
sg7
I1
s(dp40
g6
I5
sg7
I1
s(dp41
g6
I0
sg7
I2
s(dp42
g6
I27
sg7
I255
s(dp43
g6
I2
sg7
I1
s(dp44
g6
I2
sg7
I2
s(dp45
g6
I5
sg7
I1
s(dp46
g6
I0
sg7
I1
s(dp47
g6
I1
sg7
I1
s(dp48
g6
I3
sg7
I1
s(dp49
g6
I4
sg7
I1
s(dp50
g6
I0
sg7
I2
stp51
sS'vHints'
p52
((I43
I89
t(I389
I101
t(I490
I159
t(I490
I82
ttp53
sS'hHints'
p54
((I46
I81
t(I354
I76
t(I662
I68
t(I828
I77
t(I1007
I-20
t(I21
I-21
t(I744
I-20
ttp55
ssS'org.robofab.fontlab.mark'
p56
I26
s."
LayerCount: 2
Fore
SplineSet
750 0 m 257
 750 662 l 257
 867 662 l 257
 867 730 l 257
 531 730 l 257
 531 662 l 257
 649 662 l 257
 649 430 l 257
 562 358 483 386 404 409 c 257
 450 438 481 484 481 546 c 256
 481 664 424 744 259 744 c 256
 98 744 43 672 43 538 c 257
 132 538 l 257
 132 617 164 662 253 662 c 256
 349 662 380 617 380 547 c 256
 380 479 343 430 256 430 c 258
 200 430 l 257
 200 354 l 257
 255 354 l 258
 347 354 389 311 389 235 c 256
 389 167 353 128 260 127 c 257
 181 128 132 163 124 273 c 257
 31 236 l 257
 50 98 132 46 263 46 c 256
 420 46 490 119 490 231 c 256
 490 262 484 290 474 313 c 257
 530 299 588 298 649 349 c 257
 649 0 l 257
 750 0 l 257
874 1007 m 257
 874 917 838 828 681 828 c 256
 525 828 489 916 489 1007 c 257
 572 1007 l 257
 572 954 584 905 681 905 c 256
 777 905 789 954 789 1007 c 257
 874 1007 l 257
EndSplineSet
Validated: 41
EndChar

StartChar: acircumflex
Encoding: 226 226 135
Width: 608
VWidth: 0
Flags: W
PickledData: "(dp1
S'org.robofab.postScriptHintData'
p2
(dp3
S'replaceTable'
p4
((dp5
S'index'
p6
I1
sS'type'
p7
I1
s(dp8
g6
I2
sg7
I2
s(dp9
g6
I3
sg7
I1
s(dp10
g6
I1
sg7
I2
s(dp11
g6
I2
sg7
I1
s(dp12
g6
I4
sg7
I1
s(dp13
g6
I12
sg7
I255
s(dp14
g6
I0
sg7
I2
s(dp15
g6
I0
sg7
I1
s(dp16
g6
I2
sg7
I1
s(dp17
g6
I3
sg7
I1
s(dp18
g6
I4
sg7
I1
s(dp19
g6
I2
sg7
I2
s(dp20
g6
I-14
sg7
I255
s(dp21
g6
I1
sg7
I1
s(dp22
g6
I0
sg7
I2
s(dp23
g6
I2
sg7
I1
s(dp24
g6
I2
sg7
I2
s(dp25
g6
I4
sg7
I1
s(dp26
g6
I3
sg7
I1
stp27
sS'vHints'
p28
((I53
I98
t(I77
I74
t(I395
I101
ttp29
sS'hHints'
p30
((I-14
I76
t(I0
I62
t(I251
I70
t(I506
I80
t(I821
I-20
ttp31
ssS'org.robofab.fontlab.mark'
p32
I144
s."
LayerCount: 2
Fore
SplineSet
430 0 m 257
 556 0 l 257
 556 68 l 257
 496 68 l 257
 496 426 l 258
 496 550 401 586 290 586 c 256
 127 586 85 515 77 403 c 257
 161 399 l 257
 165 468 188 506 287 506 c 256
 345 506 395 484 395 420 c 258
 395 331 l 257
 232 321 l 257
 86 310 53 256 53 146 c 256
 53 48 96 -14 221 -14 c 256
 304 -14 366 19 414 57 c 257
 430 0 l 257
247 62 m 256
 177 62 151 90 151 149 c 256
 151 223 171 247 251 251 c 258
 395 260 l 257
 395 123 l 257
 354 84 299 62 247 62 c 256
179 624 m 257
 287 722 l 257
 396 624 l 257
 442 670 l 257
 310 821 l 257
 265 821 l 257
 133 670 l 257
 179 624 l 257
EndSplineSet
Validated: 9
EndChar

StartChar: acombiningletterdeva
Encoding: 43242 43242 136
Width: 400
VWidth: 0
Flags: W
PickledData: "(dp1
S'org.robofab.postScriptHintData'
p2
(dp3
S'replaceTable'
p4
((dp5
S'index'
p6
I0
sS'type'
p7
I1
s(dp8
g6
I0
sg7
I2
s(dp9
g6
I1
sg7
I2
s(dp10
g6
I1
sg7
I1
s(dp11
g6
I5
sg7
I255
s(dp12
g6
I2
sg7
I1
s(dp13
g6
I1
sg7
I2
s(dp14
g6
I1
sg7
I1
s(dp15
g6
I0
sg7
I2
s(dp16
g6
I27
sg7
I255
s(dp17
g6
I0
sg7
I1
s(dp18
g6
I1
sg7
I1
s(dp19
g6
I0
sg7
I2
s(dp20
g6
I1
sg7
I2
stp21
sS'vHints'
p22
((I-207
I77
t(I-72
I67
ttp23
sS'hHints'
p24
((I818
I53
t(I1085
I50
t(I821
I-21
ttp25
ssS'org.robofab.fontlab.maskData'
p26
((dp27
S'method'
p28
S'beginPath'
p29
s(dp30
S'segmentType'
p31
S'curve'
p32
sS'smooth'
p33
I01
sg28
S'addPoint'
p34
sS'pt'
p35
(I-236
I822
tp36
s(dp37
g28
S'addPoint'
p38
sg35
(I-270
I822
tp39
s(dp40
g28
S'addPoint'
p41
sg35
(I-302
I833
tp42
s(dp43
g31
S'curve'
p44
sg33
I00
sg28
S'addPoint'
p45
sg35
(I-332
I856
tp46
s(dp47
g28
S'addPoint'
p48
sg35
(I-364
I877
tp49
s(dp50
g28
S'addPoint'
p51
sg35
(I-391
I909
tp52
s(dp53
g31
S'curve'
p54
sg33
I00
sg28
S'addPoint'
p55
sg35
(I-413
I949
tp56
s(dp57
g31
S'line'
p58
sg33
I00
sg28
S'addPoint'
p59
sg35
(I-416
I952
tp60
s(dp61
g31
S'line'
p62
sg33
I00
sg28
S'addPoint'
p63
sg35
(I-378
I969
tp64
s(dp65
g31
S'line'
p66
sg33
I01
sg28
S'addPoint'
p67
sg35
(I-376
I966
tp68
s(dp69
g28
S'addPoint'
p70
sg35
(I-357
I933
tp71
s(dp72
g28
S'addPoint'
p73
sg35
(I-336
I909
tp74
s(dp75
g31
S'curve'
p76
sg33
I01
sg28
S'addPoint'
p77
sg35
(I-310
I889
tp78
s(dp79
g28
S'addPoint'
p80
sg35
(I-286
I871
tp81
s(dp82
g28
S'addPoint'
p83
sg35
(I-261
I864
tp84
s(dp85
g31
S'curve'
p86
sg33
I01
sg28
S'addPoint'
p87
sg35
(I-236
I864
tp88
s(dp89
g28
S'addPoint'
p90
sg35
(I-219
I864
tp91
s(dp92
g28
S'addPoint'
p93
sg35
(I-207
I867
tp94
s(dp95
g31
S'curve'
p96
sg33
I01
sg28
S'addPoint'
p97
sg35
(I-195
I877
tp98
s(dp99
g28
S'addPoint'
p100
sg35
(I-184
I886
tp101
s(dp102
g28
S'addPoint'
p103
sg35
(I-179
I897
tp104
s(dp105
g31
S'curve'
p106
sg33
I01
sg28
S'addPoint'
p107
sg35
(I-179
I911
tp108
s(dp109
g28
S'addPoint'
p110
sg35
(I-179
I942
tp111
s(dp112
g28
S'addPoint'
p113
sg35
(I-209
I968
tp114
s(dp115
g31
S'curve'
p116
sg33
I01
sg28
S'addPoint'
p117
sg35
(I-244
I968
tp118
s(dp119
g28
S'addPoint'
p120
sg35
(I-256
I968
tp121
s(dp122
g28
S'addPoint'
p123
sg35
(I-268
I967
tp124
s(dp125
g31
S'curve'
p126
sg33
I01
sg28
S'addPoint'
p127
sg35
(I-283
I962
tp128
s(dp129
g31
S'line'
p130
sg33
I00
sg28
S'addPoint'
p131
sg35
(I-286
I961
tp132
s(dp133
g31
S'line'
p134
sg33
I00
sg28
S'addPoint'
p135
sg35
(I-307
I999
tp136
s(dp137
g31
S'line'
p138
sg33
I01
sg28
S'addPoint'
p139
sg35
(I-302
I999
tp140
s(dp141
g28
S'addPoint'
p142
sg35
(I-277
I1002
tp143
s(dp144
g28
S'addPoint'
p145
sg35
(I-257
I1007
tp146
s(dp147
g31
S'curve'
p148
sg33
I01
sg28
S'addPoint'
p149
sg35
(I-238
I1019
tp150
s(dp151
g28
S'addPoint'
p152
sg35
(I-221
I1031
tp153
s(dp154
g28
S'addPoint'
p155
sg35
(I-212
I1042
tp156
s(dp157
g31
S'curve'
p158
sg33
I01
sg28
S'addPoint'
p159
sg35
(I-212
I1053
tp160
s(dp161
g28
S'addPoint'
p162
sg35
(I-212
I1076
tp163
s(dp164
g28
S'addPoint'
p165
sg35
(I-232
I1096
tp166
s(dp167
g31
S'curve'
p168
sg33
I01
sg28
S'addPoint'
p169
sg35
(I-256
I1096
tp170
s(dp171
g28
S'addPoint'
p172
sg35
(I-286
I1096
tp173
s(dp174
g28
S'addPoint'
p175
sg35
(I-320
I1080
tp176
s(dp177
g31
S'curve'
p178
sg33
I01
sg28
S'addPoint'
p179
sg35
(I-351
I1051
tp180
s(dp181
g31
S'line'
p182
sg33
I00
sg28
S'addPoint'
p183
sg35
(I-353
I1049
tp184
s(dp185
g31
S'line'
p186
sg33
I00
sg28
S'addPoint'
p187
sg35
(I-389
I1076
tp188
s(dp189
g31
S'line'
p190
sg33
I00
sg28
S'addPoint'
p191
sg35
(I-385
I1079
tp192
s(dp193
g28
S'addPoint'
p194
sg35
(I-355
I1113
tp195
s(dp196
g28
S'addPoint'
p197
sg35
(I-308
I1133
tp198
s(dp199
g31
S'curve'
p200
sg33
I01
sg28
S'addPoint'
p201
sg35
(I-256
I1133
tp202
s(dp203
g28
S'addPoint'
p204
sg35
(I-230
I1133
tp205
s(dp206
g28
S'addPoint'
p207
sg35
(I-209
I1125
tp208
s(dp209
g31
S'curve'
p210
sg33
I01
sg28
S'addPoint'
p211
sg35
(I-190
I1110
tp212
s(dp213
g28
S'addPoint'
p214
sg35
(I-171
I1095
tp215
s(dp216
g28
S'addPoint'
p217
sg35
(I-163
I1076
tp218
s(dp219
g31
S'curve'
p220
sg33
I01
sg28
S'addPoint'
p221
sg35
(I-163
I1053
tp222
s(dp223
g28
S'addPoint'
p224
sg35
(I-163
I1042
tp225
s(dp226
g28
S'addPoint'
p227
sg35
(I-165
I1031
tp228
s(dp229
g31
S'curve'
p230
sg33
I01
sg28
S'addPoint'
p231
sg35
(I-173
I1020
tp232
s(dp233
g28
S'addPoint'
p234
sg35
(I-179
I1011
tp235
s(dp236
g28
S'addPoint'
p237
sg35
(I-185
I1004
tp238
s(dp239
g31
S'curve'
p240
sg33
I00
sg28
S'addPoint'
p241
sg35
(I-195
I997
tp242
s(dp243
g28
S'addPoint'
p244
sg35
(I-176
I989
tp245
s(dp246
g28
S'addPoint'
p247
sg35
(I-162
I983
tp248
s(dp249
g31
S'curve'
p250
sg33
I01
sg28
S'addPoint'
p251
sg35
(I-147
I978
tp252
s(dp253
g28
S'addPoint'
p254
sg35
(I-131
I973
tp255
s(dp256
g28
S'addPoint'
p257
sg35
(I-119
I970
tp258
s(dp259
g31
S'curve'
p260
sg33
I01
sg28
S'addPoint'
p261
sg35
(I-110
I970
tp262
s(dp263
g28
S'addPoint'
p264
sg35
(I-104
I970
tp265
s(dp266
g28
S'addPoint'
p267
sg35
(I-98
I971
tp268
s(dp269
g31
S'curve'
p270
sg33
I01
sg28
S'addPoint'
p271
sg35
(I-89
I974
tp272
s(dp273
g31
S'line'
p274
sg33
I00
sg28
S'addPoint'
p275
sg35
(I-62
I985
tp276
s(dp277
g31
S'line'
p278
sg33
I00
sg28
S'addPoint'
p279
sg35
(I-62
I1096
tp280
s(dp281
g31
S'line'
p282
sg33
I00
sg28
S'addPoint'
p283
sg35
(I-134
I1096
tp284
s(dp285
g31
S'line'
p286
sg33
I00
sg28
S'addPoint'
p287
sg35
(I-134
I1133
tp288
s(dp289
g31
S'line'
p290
sg33
I00
sg28
S'addPoint'
p291
sg35
(I57
I1133
tp292
s(dp293
g31
S'line'
p294
sg33
I00
sg28
S'addPoint'
p295
sg35
(I57
I1096
tp296
s(dp297
g31
S'line'
p298
sg33
I00
sg28
S'addPoint'
p299
sg35
(I-13
I1096
tp300
s(dp301
g31
S'line'
p302
sg33
I00
sg28
S'addPoint'
p303
sg35
(I-13
I800
tp304
s(dp305
g31
S'line'
p306
sg33
I00
sg28
S'addPoint'
p307
sg35
(I-62
I800
tp308
s(dp309
g31
S'line'
p310
sg33
I00
sg28
S'addPoint'
p311
sg35
(I-62
I943
tp312
s(dp313
g28
S'addPoint'
p314
sg35
(I-66
I940
tp315
s(dp316
g28
S'addPoint'
p317
sg35
(I-71
I938
tp318
s(dp319
g31
S'curve'
p320
sg33
I01
sg28
S'addPoint'
p321
sg35
(I-75
I937
tp322
s(dp323
g28
S'addPoint'
p324
sg35
(I-83
I934
tp325
s(dp326
g28
S'addPoint'
p327
sg35
(I-90
I933
tp328
s(dp329
g31
S'curve'
p330
sg33
I01
sg28
S'addPoint'
p331
sg35
(I-98
I933
tp332
s(dp333
g28
S'addPoint'
p334
sg35
(I-110
I933
tp335
s(dp336
g28
S'addPoint'
p337
sg35
(I-119
I934
tp338
s(dp339
g31
S'curve'
p340
sg33
I00
sg28
S'addPoint'
p341
sg35
(I-129
I935
tp342
s(dp343
g31
S'line'
p344
sg33
I01
sg28
S'addPoint'
p345
sg35
(I-136
I938
tp346
s(dp347
g28
S'addPoint'
p348
sg35
(I-135
I937
tp349
s(dp350
g28
S'addPoint'
p351
sg35
(I-135
I934
tp352
s(dp353
g31
S'curve'
p354
sg33
I01
sg28
S'addPoint'
p355
sg35
(I-135
I933
tp356
s(dp357
g28
S'addPoint'
p358
sg35
(I-131
I926
tp359
s(dp360
g28
S'addPoint'
p361
sg35
(I-130
I919
tp362
s(dp363
g31
S'curve'
p364
sg33
I01
sg28
S'addPoint'
p365
sg35
(I-130
I912
tp366
s(dp367
g28
S'addPoint'
p368
sg35
(I-130
I886
tp369
s(dp370
g28
S'addPoint'
p371
sg35
(I-140
I866
tp372
s(dp373
g31
S'curve'
p374
sg33
I00
sg28
S'addPoint'
p375
sg35
(I-162
I849
tp376
s(dp377
g28
S'addPoint'
p378
sg35
(I-182
I831
tp379
s(dp380
g28
S'addPoint'
p381
sg35
(I-207
I822
tp382
s(dp383
g28
S'endPath'
p384
s(dp385
g28
S'beginPath'
p386
s(dp387
g31
S'curve'
p388
sg33
I01
sg28
S'addPoint'
p389
sg35
(I-265
I22
tp390
s(dp391
g28
S'addPoint'
p392
sg35
(I-299
I22
tp393
s(dp394
g28
S'addPoint'
p395
sg35
(I-331
I33
tp396
s(dp397
g31
S'curve'
p398
sg33
I00
sg28
S'addPoint'
p399
sg35
(I-361
I56
tp400
s(dp401
g28
S'addPoint'
p402
sg35
(I-393
I77
tp403
s(dp404
g28
S'addPoint'
p405
sg35
(I-420
I109
tp406
s(dp407
g31
S'curve'
p408
sg33
I00
sg28
S'addPoint'
p409
sg35
(I-442
I149
tp410
s(dp411
g31
S'line'
p412
sg33
I00
sg28
S'addPoint'
p413
sg35
(I-445
I152
tp414
s(dp415
g31
S'line'
p416
sg33
I00
sg28
S'addPoint'
p417
sg35
(I-407
I169
tp418
s(dp419
g31
S'line'
p420
sg33
I01
sg28
S'addPoint'
p421
sg35
(I-405
I166
tp422
s(dp423
g28
S'addPoint'
p424
sg35
(I-386
I133
tp425
s(dp426
g28
S'addPoint'
p427
sg35
(I-365
I109
tp428
s(dp429
g31
S'curve'
p430
sg33
I01
sg28
S'addPoint'
p431
sg35
(I-339
I89
tp432
s(dp433
g28
S'addPoint'
p434
sg35
(I-315
I71
tp435
s(dp436
g28
S'addPoint'
p437
sg35
(I-290
I64
tp438
s(dp439
g31
S'curve'
p440
sg33
I01
sg28
S'addPoint'
p441
sg35
(I-265
I64
tp442
s(dp443
g28
S'addPoint'
p444
sg35
(I-248
I64
tp445
s(dp446
g28
S'addPoint'
p447
sg35
(I-236
I67
tp448
s(dp449
g31
S'curve'
p450
sg33
I01
sg28
S'addPoint'
p451
sg35
(I-224
I77
tp452
s(dp453
g28
S'addPoint'
p454
sg35
(I-213
I86
tp455
s(dp456
g28
S'addPoint'
p457
sg35
(I-208
I97
tp458
s(dp459
g31
S'curve'
p460
sg33
I01
sg28
S'addPoint'
p461
sg35
(I-208
I111
tp462
s(dp463
g28
S'addPoint'
p464
sg35
(I-208
I142
tp465
s(dp466
g28
S'addPoint'
p467
sg35
(I-238
I168
tp468
s(dp469
g31
S'curve'
p470
sg33
I01
sg28
S'addPoint'
p471
sg35
(I-273
I168
tp472
s(dp473
g28
S'addPoint'
p474
sg35
(I-285
I168
tp475
s(dp476
g28
S'addPoint'
p477
sg35
(I-297
I167
tp478
s(dp479
g31
S'curve'
p480
sg33
I01
sg28
S'addPoint'
p481
sg35
(I-312
I162
tp482
s(dp483
g31
S'line'
p484
sg33
I00
sg28
S'addPoint'
p485
sg35
(I-315
I161
tp486
s(dp487
g31
S'line'
p488
sg33
I00
sg28
S'addPoint'
p489
sg35
(I-336
I199
tp490
s(dp491
g31
S'line'
p492
sg33
I01
sg28
S'addPoint'
p493
sg35
(I-331
I199
tp494
s(dp495
g28
S'addPoint'
p496
sg35
(I-306
I202
tp497
s(dp498
g28
S'addPoint'
p499
sg35
(I-286
I207
tp500
s(dp501
g31
S'curve'
p502
sg33
I01
sg28
S'addPoint'
p503
sg35
(I-267
I219
tp504
s(dp505
g28
S'addPoint'
p506
sg35
(I-250
I231
tp507
s(dp508
g28
S'addPoint'
p509
sg35
(I-241
I242
tp510
s(dp511
g31
S'curve'
p512
sg33
I01
sg28
S'addPoint'
p513
sg35
(I-241
I253
tp514
s(dp515
g28
S'addPoint'
p516
sg35
(I-241
I276
tp517
s(dp518
g28
S'addPoint'
p519
sg35
(I-261
I296
tp520
s(dp521
g31
S'curve'
p522
sg33
I01
sg28
S'addPoint'
p523
sg35
(I-285
I296
tp524
s(dp525
g28
S'addPoint'
p526
sg35
(I-315
I296
tp527
s(dp528
g28
S'addPoint'
p529
sg35
(I-349
I280
tp530
s(dp531
g31
S'curve'
p532
sg33
I01
sg28
S'addPoint'
p533
sg35
(I-380
I251
tp534
s(dp535
g31
S'line'
p536
sg33
I00
sg28
S'addPoint'
p537
sg35
(I-382
I249
tp538
s(dp539
g31
S'line'
p540
sg33
I00
sg28
S'addPoint'
p541
sg35
(I-418
I276
tp542
s(dp543
g31
S'line'
p544
sg33
I00
sg28
S'addPoint'
p545
sg35
(I-414
I279
tp546
s(dp547
g28
S'addPoint'
p548
sg35
(I-384
I313
tp549
s(dp550
g28
S'addPoint'
p551
sg35
(I-337
I333
tp552
s(dp553
g31
S'curve'
p554
sg33
I01
sg28
S'addPoint'
p555
sg35
(I-285
I333
tp556
s(dp557
g28
S'addPoint'
p558
sg35
(I-259
I333
tp559
s(dp560
g28
S'addPoint'
p561
sg35
(I-238
I325
tp562
s(dp563
g31
S'curve'
p564
sg33
I01
sg28
S'addPoint'
p565
sg35
(I-219
I310
tp566
s(dp567
g28
S'addPoint'
p568
sg35
(I-200
I295
tp569
s(dp570
g28
S'addPoint'
p571
sg35
(I-192
I276
tp572
s(dp573
g31
S'curve'
p574
sg33
I01
sg28
S'addPoint'
p575
sg35
(I-192
I253
tp576
s(dp577
g28
S'addPoint'
p578
sg35
(I-192
I242
tp579
s(dp580
g28
S'addPoint'
p581
sg35
(I-194
I231
tp582
s(dp583
g31
S'curve'
p584
sg33
I01
sg28
S'addPoint'
p585
sg35
(I-202
I220
tp586
s(dp587
g28
S'addPoint'
p588
sg35
(I-208
I211
tp589
s(dp590
g28
S'addPoint'
p591
sg35
(I-214
I204
tp592
s(dp593
g31
S'curve'
p594
sg33
I00
sg28
S'addPoint'
p595
sg35
(I-224
I197
tp596
s(dp597
g28
S'addPoint'
p598
sg35
(I-205
I189
tp599
s(dp600
g28
S'addPoint'
p601
sg35
(I-191
I183
tp602
s(dp603
g31
S'curve'
p604
sg33
I01
sg28
S'addPoint'
p605
sg35
(I-176
I178
tp606
s(dp607
g28
S'addPoint'
p608
sg35
(I-160
I173
tp609
s(dp610
g28
S'addPoint'
p611
sg35
(I-148
I170
tp612
s(dp613
g31
S'curve'
p614
sg33
I01
sg28
S'addPoint'
p615
sg35
(I-139
I170
tp616
s(dp617
g28
S'addPoint'
p618
sg35
(I-133
I170
tp619
s(dp620
g28
S'addPoint'
p621
sg35
(I-127
I171
tp622
s(dp623
g31
S'curve'
p624
sg33
I01
sg28
S'addPoint'
p625
sg35
(I-118
I174
tp626
s(dp627
g31
S'line'
p628
sg33
I00
sg28
S'addPoint'
p629
sg35
(I-91
I185
tp630
s(dp631
g31
S'line'
p632
sg33
I00
sg28
S'addPoint'
p633
sg35
(I-91
I296
tp634
s(dp635
g31
S'line'
p636
sg33
I00
sg28
S'addPoint'
p637
sg35
(I-163
I296
tp638
s(dp639
g31
S'line'
p640
sg33
I00
sg28
S'addPoint'
p641
sg35
(I-163
I333
tp642
s(dp643
g31
S'line'
p644
sg33
I00
sg28
S'addPoint'
p645
sg35
(I28
I333
tp646
s(dp647
g31
S'line'
p648
sg33
I00
sg28
S'addPoint'
p649
sg35
(I28
I296
tp650
s(dp651
g31
S'line'
p652
sg33
I00
sg28
S'addPoint'
p653
sg35
(I-42
I296
tp654
s(dp655
g31
S'line'
p656
sg33
I00
sg28
S'addPoint'
p657
sg35
(I-42
I0
tp658
s(dp659
g31
S'line'
p660
sg33
I00
sg28
S'addPoint'
p661
sg35
(I-91
I0
tp662
s(dp663
g31
S'line'
p664
sg33
I00
sg28
S'addPoint'
p665
sg35
(I-91
I143
tp666
s(dp667
g28
S'addPoint'
p668
sg35
(I-95
I140
tp669
s(dp670
g28
S'addPoint'
p671
sg35
(I-100
I138
tp672
s(dp673
g31
S'curve'
p674
sg33
I01
sg28
S'addPoint'
p675
sg35
(I-104
I137
tp676
s(dp677
g28
S'addPoint'
p678
sg35
(I-112
I134
tp679
s(dp680
g28
S'addPoint'
p681
sg35
(I-119
I133
tp682
s(dp683
g31
S'curve'
p684
sg33
I01
sg28
S'addPoint'
p685
sg35
(I-127
I133
tp686
s(dp687
g28
S'addPoint'
p688
sg35
(I-139
I133
tp689
s(dp690
g28
S'addPoint'
p691
sg35
(I-148
I134
tp692
s(dp693
g31
S'curve'
p694
sg33
I00
sg28
S'addPoint'
p695
sg35
(I-158
I135
tp696
s(dp697
g31
S'line'
p698
sg33
I01
sg28
S'addPoint'
p699
sg35
(I-165
I138
tp700
s(dp701
g28
S'addPoint'
p702
sg35
(I-164
I137
tp703
s(dp704
g28
S'addPoint'
p705
sg35
(I-164
I134
tp706
s(dp707
g31
S'curve'
p708
sg33
I01
sg28
S'addPoint'
p709
sg35
(I-164
I133
tp710
s(dp711
g28
S'addPoint'
p712
sg35
(I-160
I126
tp713
s(dp714
g28
S'addPoint'
p715
sg35
(I-159
I119
tp716
s(dp717
g31
S'curve'
p718
sg33
I01
sg28
S'addPoint'
p719
sg35
(I-159
I112
tp720
s(dp721
g28
S'addPoint'
p722
sg35
(I-159
I86
tp723
s(dp724
g28
S'addPoint'
p725
sg35
(I-169
I66
tp726
s(dp727
g31
S'curve'
p728
sg33
I00
sg28
S'addPoint'
p729
sg35
(I-191
I49
tp730
s(dp731
g28
S'addPoint'
p732
sg35
(I-211
I31
tp733
s(dp734
g28
S'addPoint'
p735
sg35
(I-236
I22
tp736
s(dp737
g28
S'endPath'
p738
stp739
sS'org.robofab.fontlab.mark'
p740
I26
s."
AnchorPoint: "DVAnchor3" -158 730 mark 0
LayerCount: 2
Fore
SplineSet
-362 906 m 257
 -346 844 -300 818 -240 818 c 256
 -159 818 -130 860 -130 912 c 256
 -130 919 -130 925 -131 931 c 257
 -112 931 -91 937 -72 957 c 257
 -72 800 l 257
 -5 800 l 257
 -5 1085 l 257
 43 1085 l 257
 43 1129 l 257
 -119 1129 l 257
 -119 1085 l 257
 -72 1085 l 257
 -72 989 l 257
 -100 965 -129 966 -156 972 c 257
 -161 976 -167 980 -174 983 c 257
 -153 995 -139 1015 -139 1043 c 256
 -139 1096 -168 1135 -244 1135 c 256
 -327 1135 -353 1105 -353 1034 c 257
 -294 1034 l 257
 -294 1068 -282 1082 -251 1082 c 256
 -220 1082 -207 1067 -207 1044 c 256
 -207 1017 -221 1001 -254 1001 c 258
 -273 1001 l 257
 -273 957 l 257
 -254 957 l 258
 -219 957 -197 942 -197 913 c 256
 -197 887 -209 871 -242 871 c 256
 -270 871 -291 885 -300 922 c 257
 -362 906 l 257
EndSplineSet
Validated: 41
EndChar

StartChar: acute
Encoding: 180 180 137
Width: 314
VWidth: 0
Flags: W
PickledData: "(dp1
S'org.robofab.postScriptHintData'
p2
(dp3
S'hHints'
p4
((I643
I-21
t(I826
I-20
ttp5
ssS'org.robofab.fontlab.mark'
p6
I144
s."
LayerCount: 2
Fore
SplineSet
86 622 m 257
 276 752 l 257
 220 826 l 257
 43 679 l 257
 86 622 l 257
EndSplineSet
Validated: 9
EndChar

StartChar: acute.case
Encoding: 65541 -1 138
Width: 314
VWidth: 0
Flags: W
PickledData: "(dp1
S'org.robofab.postScriptHintData'
p2
(dp3
S'hHints'
p4
((I801
I-21
t(I984
I-20
ttp5
ssS'org.robofab.fontlab.mark'
p6
I80
s."
LayerCount: 2
Fore
SplineSet
86 780 m 257
 276 910 l 257
 220 984 l 257
 43 837 l 257
 86 780 l 257
EndSplineSet
Validated: 9
EndChar

StartChar: acutedeva
Encoding: 2388 2388 139
Width: 0
VWidth: 0
Flags: W
PickledData: "(dp1
S'org.robofab.postScriptHintData'
p2
(dp3
S'hHints'
p4
((I801
I-21
t(I984
I-20
ttp5
ssS'org.robofab.fontlab.maskData'
p6
((dp7
S'method'
p8
S'beginPath'
p9
s(dp10
S'segmentType'
p11
S'line'
p12
sS'smooth'
p13
I00
sg8
S'addPoint'
p14
sS'pt'
p15
(I-195
I783
tp16
s(dp17
g11
S'line'
p18
sg13
I00
sg8
S'addPoint'
p19
sg15
(I-136
I1014
tp20
s(dp21
g11
S'line'
p22
sg13
I00
sg8
S'addPoint'
p23
sg15
(I-40
I1014
tp24
s(dp25
g11
S'line'
p26
sg13
I00
sg8
S'addPoint'
p27
sg15
(I-142
I783
tp28
s(dp29
g8
S'endPath'
p30
stp31
sS'org.robofab.fontlab.mark'
p32
I26
s."
AnchorPoint: "DVAnchor3" -157 729 mark 0
LayerCount: 2
Fore
SplineSet
-201 780 m 257
 -11 910 l 257
 -67 984 l 257
 -244 837 l 257
 -201 780 l 257
EndSplineSet
Validated: 9
EndChar

StartChar: adeva
Encoding: 2309 2309 140
Width: 857
VWidth: 0
Flags: W
PickledData: "(dp1
S'org.robofab.postScriptHintData'
p2
(dp3
S'replaceTable'
p4
((dp5
S'index'
p6
I4
sS'type'
p7
I1
s(dp8
g6
I2
sg7
I2
s(dp9
g6
I2
sg7
I1
s(dp10
g6
I1
sg7
I1
s(dp11
g6
I1
sg7
I2
s(dp12
g6
I0
sg7
I1
s(dp13
g6
I0
sg7
I2
s(dp14
g6
I10
sg7
I255
s(dp15
g6
I3
sg7
I1
s(dp16
g6
I0
sg7
I2
s(dp17
g6
I1
sg7
I2
s(dp18
g6
I1
sg7
I1
s(dp19
g6
I0
sg7
I1
s(dp20
g6
I2
sg7
I2
s(dp21
g6
I4
sg7
I1
stp22
sS'vHints'
p23
((I43
I81
t(I380
I101
t(I649
I101
ttp24
sS'hHints'
p25
((I46
I81
t(I354
I76
t(I662
I68
t(I662
I82
t(I21
I-21
ttp26
ssS'org.robofab.fontlab.maskData'
p27
((dp28
S'method'
p29
S'beginPath'
p30
s(dp31
S'segmentType'
p32
S'curve'
p33
sS'smooth'
p34
I01
sg29
S'addPoint'
p35
sS'pt'
p36
(I263
I46
tp37
s(dp38
g29
S'addPoint'
p39
sg36
(I420
I46
tp40
s(dp41
g29
S'addPoint'
p42
sg36
(I490
I119
tp43
s(dp44
g32
S'curve'
p45
sg34
I01
sg29
S'addPoint'
p46
sg36
(I490
I231
tp47
s(dp48
g29
S'addPoint'
p49
sg36
(I490
I358
tp50
s(dp51
g29
S'addPoint'
p52
sg36
(I399
I413
tp53
s(dp54
g32
S'curve'
p55
sg34
I01
sg29
S'addPoint'
p56
sg36
(I274
I413
tp57
s(dp58
g32
S'line'
p59
sg34
I00
sg29
S'addPoint'
p60
sg36
(I200
I413
tp61
s(dp62
g32
S'line'
p63
sg34
I00
sg29
S'addPoint'
p64
sg36
(I200
I354
tp65
s(dp66
g32
S'line'
p67
sg34
I01
sg29
S'addPoint'
p68
sg36
(I255
I354
tp69
s(dp70
g29
S'addPoint'
p71
sg36
(I347
I354
tp72
s(dp73
g29
S'addPoint'
p74
sg36
(I389
I311
tp75
s(dp76
g32
S'curve'
p77
sg34
I01
sg29
S'addPoint'
p78
sg36
(I389
I235
tp79
s(dp80
g29
S'addPoint'
p81
sg36
(I389
I167
tp82
s(dp83
g29
S'addPoint'
p84
sg36
(I353
I128
tp85
s(dp86
g32
S'curve'
p87
sg34
I01
sg29
S'addPoint'
p88
sg36
(I260
I127
tp89
s(dp90
g29
S'addPoint'
p91
sg36
(I181
I128
tp92
s(dp93
g29
S'addPoint'
p94
sg36
(I132
I163
tp95
s(dp96
g32
S'curve'
p97
sg34
I00
sg29
S'addPoint'
p98
sg36
(I124
I273
tp99
s(dp100
g32
S'line'
p101
sg34
I00
sg29
S'addPoint'
p102
sg36
(I31
I236
tp103
s(dp104
g29
S'addPoint'
p105
sg36
(I50
I98
tp106
s(dp107
g29
S'addPoint'
p108
sg36
(I132
I46
tp109
s(dp110
g29
S'endPath'
p111
s(dp112
g29
S'beginPath'
p113
s(dp114
g32
S'line'
p115
sg34
I00
sg29
S'addPoint'
p116
sg36
(I200
I371
tp117
s(dp118
g32
S'line'
p119
sg34
I01
sg29
S'addPoint'
p120
sg36
(I264
I371
tp121
s(dp122
g29
S'addPoint'
p123
sg36
(I377
I371
tp124
s(dp125
g29
S'addPoint'
p126
sg36
(I481
I432
tp127
s(dp128
g32
S'curve'
p129
sg34
I01
sg29
S'addPoint'
p130
sg36
(I481
I546
tp131
s(dp132
g29
S'addPoint'
p133
sg36
(I481
I664
tp134
s(dp135
g29
S'addPoint'
p136
sg36
(I424
I744
tp137
s(dp138
g32
S'curve'
p139
sg34
I01
sg29
S'addPoint'
p140
sg36
(I259
I744
tp141
s(dp142
g29
S'addPoint'
p143
sg36
(I98
I744
tp144
s(dp145
g29
S'addPoint'
p146
sg36
(I43
I672
tp147
s(dp148
g32
S'curve'
p149
sg34
I00
sg29
S'addPoint'
p150
sg36
(I43
I538
tp151
s(dp152
g32
S'line'
p153
sg34
I00
sg29
S'addPoint'
p154
sg36
(I132
I538
tp155
s(dp156
g29
S'addPoint'
p157
sg36
(I132
I617
tp158
s(dp159
g29
S'addPoint'
p160
sg36
(I164
I662
tp161
s(dp162
g32
S'curve'
p163
sg34
I01
sg29
S'addPoint'
p164
sg36
(I253
I662
tp165
s(dp166
g29
S'addPoint'
p167
sg36
(I349
I662
tp168
s(dp169
g29
S'addPoint'
p170
sg36
(I380
I617
tp171
s(dp172
g32
S'curve'
p173
sg34
I01
sg29
S'addPoint'
p174
sg36
(I380
I547
tp175
s(dp176
g29
S'addPoint'
p177
sg36
(I380
I479
tp178
s(dp179
g29
S'addPoint'
p180
sg36
(I343
I430
tp181
s(dp182
g32
S'curve'
p183
sg34
I01
sg29
S'addPoint'
p184
sg36
(I256
I430
tp185
s(dp186
g32
S'line'
p187
sg34
I00
sg29
S'addPoint'
p188
sg36
(I200
I430
tp189
s(dp190
g29
S'endPath'
p191
s(dp192
g29
S'beginPath'
p193
s(dp194
g32
S'line'
p195
sg34
I00
sg29
S'addPoint'
p196
sg36
(I750
I0
tp197
s(dp198
g32
S'line'
p199
sg34
I00
sg29
S'addPoint'
p200
sg36
(I750
I662
tp201
s(dp202
g32
S'line'
p203
sg34
I00
sg29
S'addPoint'
p204
sg36
(I867
I662
tp205
s(dp206
g32
S'line'
p207
sg34
I00
sg29
S'addPoint'
p208
sg36
(I867
I730
tp209
s(dp210
g32
S'line'
p211
sg34
I00
sg29
S'addPoint'
p212
sg36
(I531
I730
tp213
s(dp214
g32
S'line'
p215
sg34
I00
sg29
S'addPoint'
p216
sg36
(I531
I662
tp217
s(dp218
g32
S'line'
p219
sg34
I00
sg29
S'addPoint'
p220
sg36
(I649
I662
tp221
s(dp222
g32
S'line'
p223
sg34
I00
sg29
S'addPoint'
p224
sg36
(I649
I0
tp225
s(dp226
g29
S'endPath'
p227
s(dp228
g29
S'beginPath'
p229
s(dp230
g32
S'line'
p231
sg34
I00
sg29
S'addPoint'
p232
sg36
(I649
I416
tp233
s(dp234
g29
S'addPoint'
p235
sg36
(I525
I314
tp236
s(dp237
g29
S'addPoint'
p238
sg36
(I416
I421
tp239
s(dp240
g32
S'curve'
p241
sg34
I00
sg29
S'addPoint'
p242
sg36
(I302
I421
tp243
s(dp244
g32
S'line'
p245
sg34
I00
sg29
S'addPoint'
p246
sg36
(I302
I354
tp247
s(dp248
g29
S'addPoint'
p249
sg36
(I416
I354
tp250
s(dp251
g29
S'addPoint'
p252
sg36
(I525
I247
tp253
s(dp254
g32
S'curve'
p255
sg34
I00
sg29
S'addPoint'
p256
sg36
(I649
I349
tp257
s(dp258
g29
S'endPath'
p259
stp260
sS'org.robofab.fontlab.mark'
p261
I1
s."
AnchorPoint: "DVAnchor3" 699 730 basechar 0
LayerCount: 2
Fore
SplineSet
750 0 m 257
 750 662 l 257
 867 662 l 257
 867 730 l 257
 531 730 l 257
 531 662 l 257
 649 662 l 257
 649 430 l 257
 562 358 483 386 404 409 c 257
 450 438 481 484 481 546 c 256
 481 664 424 744 259 744 c 256
 98 744 43 672 43 538 c 257
 132 538 l 257
 132 617 164 662 253 662 c 256
 349 662 380 617 380 547 c 256
 380 479 343 430 256 430 c 258
 200 430 l 257
 200 354 l 257
 255 354 l 258
 347 354 389 311 389 235 c 256
 389 167 353 128 260 127 c 257
 181 128 132 163 124 273 c 257
 31 236 l 257
 50 98 132 46 263 46 c 256
 420 46 490 119 490 231 c 256
 490 262 484 290 474 313 c 257
 530 299 588 298 649 349 c 257
 649 0 l 257
 750 0 l 257
EndSplineSet
Validated: 41
EndChar

StartChar: adieresis
Encoding: 228 228 141
Width: 608
VWidth: 0
Flags: W
PickledData: "(dp1
S'org.robofab.postScriptHintData'
p2
(dp3
S'replaceTable'
p4
((dp5
S'index'
p6
I4
sS'type'
p7
I1
s(dp8
g6
I2
sg7
I2
s(dp9
g6
I0
sg7
I1
s(dp10
g6
I3
sg7
I2
s(dp11
g6
I0
sg7
I2
s(dp12
g6
I2
sg7
I1
s(dp13
g6
I3
sg7
I1
s(dp14
g6
I24
sg7
I255
s(dp15
g6
I1
sg7
I2
s(dp16
g6
I3
sg7
I1
s(dp17
g6
I3
sg7
I2
s(dp18
g6
I1
sg7
I1
s(dp19
g6
I2
sg7
I1
s(dp20
g6
I4
sg7
I1
s(dp21
g6
I2
sg7
I2
stp22
sS'vHints'
p23
((I53
I98
t(I77
I74
t(I243
I103
t(I395
I101
ttp24
sS'hHints'
p25
((I-14
I76
t(I0
I62
t(I255
I66
t(I506
I80
t(I654
I135
ttp26
ssS'org.robofab.fontlab.mark'
p27
I144
s."
LayerCount: 2
Fore
SplineSet
430 0 m 257
 556 0 l 257
 556 68 l 257
 496 68 l 257
 496 426 l 258
 496 550 401 586 290 586 c 256
 127 586 85 515 77 403 c 257
 161 399 l 257
 165 468 188 506 287 506 c 256
 345 506 395 484 395 420 c 258
 395 331 l 257
 232 321 l 257
 86 310 53 256 53 146 c 256
 53 48 96 -14 221 -14 c 256
 304 -14 366 19 414 57 c 257
 430 0 l 257
247 62 m 256
 177 62 151 90 151 149 c 256
 151 223 171 247 251 251 c 258
 395 260 l 257
 395 123 l 257
 354 84 299 62 247 62 c 256
187 654 m 256
 135 654 132 689 132 721 c 256
 132 753 135 789 187 789 c 256
 240 789 243 753 243 721 c 256
 243 689 240 654 187 654 c 256
400 654 m 256
 349 654 346 689 346 721 c 256
 346 753 349 789 400 789 c 256
 454 789 457 753 457 721 c 256
 457 689 454 654 400 654 c 256
EndSplineSet
Validated: 9
EndChar

StartChar: ae
Encoding: 230 230 142
Width: 894
VWidth: 0
Flags: W
PickledData: "(dp1
S'org.robofab.postScriptHintData'
p2
(dp3
S'replaceTable'
p4
((dp5
S'index'
p6
I0
sS'type'
p7
I1
s(dp8
g6
I1
sg7
I1
s(dp9
g6
I2
sg7
I2
s(dp10
g6
I3
sg7
I2
s(dp11
g6
I2
sg7
I1
s(dp12
g6
I1
sg7
I2
s(dp13
g6
I16
sg7
I255
s(dp14
g6
I0
sg7
I2
s(dp15
g6
I0
sg7
I1
s(dp16
g6
I2
sg7
I1
s(dp17
g6
I3
sg7
I1
s(dp18
g6
I3
sg7
I2
s(dp19
g6
I2
sg7
I2
stp20
sS'vHints'
p21
((I53
I98
t(I77
I74
t(I377
I99
t(I758
I100
ttp22
sS'hHints'
p23
((I-14
I80
t(I260
I61
t(I506
I80
t(I260
I73
ttp24
ssS'org.robofab.fontlab.maskData'
p25
((dp26
S'method'
p27
S'beginPath'
p28
s(dp29
S'segmentType'
p30
S'curve'
p31
sS'smooth'
p32
I01
sg27
S'addPoint'
p33
sS'pt'
p34
(I221
I-14
tp35
s(dp36
g27
S'addPoint'
p37
sg34
(I304
I-14
tp38
s(dp39
g27
S'addPoint'
p40
sg34
(I370
I20
tp41
s(dp42
g30
S'curve'
p43
sg32
I00
sg27
S'addPoint'
p44
sg34
(I419
I61
tp45
s(dp46
g30
S'line'
p47
sg32
I00
sg27
S'addPoint'
p48
sg34
(I430
I426
tp49
s(dp50
g30
S'line'
p51
sg32
I00
sg27
S'addPoint'
p52
sg34
(I470
I518
tp53
s(dp54
g27
S'addPoint'
p55
sg34
(I435
I569
tp56
s(dp57
g27
S'addPoint'
p58
sg34
(I366
I586
tp59
s(dp60
g30
S'curve'
p61
sg32
I01
sg27
S'addPoint'
p62
sg34
(I290
I586
tp63
s(dp64
g27
S'addPoint'
p65
sg34
(I127
I586
tp66
s(dp67
g27
S'addPoint'
p68
sg34
(I85
I515
tp69
s(dp70
g30
S'curve'
p71
sg32
I00
sg27
S'addPoint'
p72
sg34
(I77
I403
tp73
s(dp74
g30
S'line'
p75
sg32
I00
sg27
S'addPoint'
p76
sg34
(I161
I399
tp77
s(dp78
g27
S'addPoint'
p79
sg34
(I165
I468
tp80
s(dp81
g27
S'addPoint'
p82
sg34
(I188
I506
tp83
s(dp84
g30
S'curve'
p85
sg32
I01
sg27
S'addPoint'
p86
sg34
(I287
I506
tp87
s(dp88
g27
S'addPoint'
p89
sg34
(I345
I506
tp90
s(dp91
g27
S'addPoint'
p92
sg34
(I395
I484
tp93
s(dp94
g30
S'curve'
p95
sg32
I01
sg27
S'addPoint'
p96
sg34
(I395
I420
tp97
s(dp98
g30
S'line'
p99
sg32
I00
sg27
S'addPoint'
p100
sg34
(I395
I331
tp101
s(dp102
g30
S'line'
p103
sg32
I01
sg27
S'addPoint'
p104
sg34
(I232
I321
tp105
s(dp106
g27
S'addPoint'
p107
sg34
(I86
I310
tp108
s(dp109
g27
S'addPoint'
p110
sg34
(I53
I256
tp111
s(dp112
g30
S'curve'
p113
sg32
I01
sg27
S'addPoint'
p114
sg34
(I53
I146
tp115
s(dp116
g27
S'addPoint'
p117
sg34
(I53
I48
tp118
s(dp119
g27
S'addPoint'
p120
sg34
(I96
I-14
tp121
s(dp122
g27
S'endPath'
p123
s(dp124
g27
S'beginPath'
p125
s(dp126
g30
S'curve'
p127
sg32
I01
sg27
S'addPoint'
p128
sg34
(I247
I62
tp129
s(dp130
g27
S'addPoint'
p131
sg34
(I177
I62
tp132
s(dp133
g27
S'addPoint'
p134
sg34
(I151
I90
tp135
s(dp136
g30
S'curve'
p137
sg32
I01
sg27
S'addPoint'
p138
sg34
(I151
I149
tp139
s(dp140
g27
S'addPoint'
p141
sg34
(I151
I223
tp142
s(dp143
g27
S'addPoint'
p144
sg34
(I171
I247
tp145
s(dp146
g30
S'curve'
p147
sg32
I01
sg27
S'addPoint'
p148
sg34
(I251
I251
tp149
s(dp150
g30
S'line'
p151
sg32
I00
sg27
S'addPoint'
p152
sg34
(I395
I260
tp153
s(dp154
g30
S'line'
p155
sg32
I00
sg27
S'addPoint'
p156
sg34
(I397
I124
tp157
s(dp158
g27
S'addPoint'
p159
sg34
(I355
I85
tp160
s(dp161
g27
S'addPoint'
p162
sg34
(I299
I62
tp163
s(dp164
g27
S'endPath'
p165
s(dp166
g27
S'beginPath'
p167
s(dp168
g30
S'line'
p169
sg32
I00
sg27
S'addPoint'
p170
sg34
(I421
I260
tp171
s(dp172
g30
S'line'
p173
sg32
I00
sg27
S'addPoint'
p174
sg34
(I858
I260
tp175
s(dp176
g30
S'line'
p177
sg32
I00
sg27
S'addPoint'
p178
sg34
(I858
I286
tp179
s(dp180
g30
S'line'
p181
sg32
I00
sg27
S'addPoint'
p182
sg34
(I852
I333
tp183
s(dp184
g30
S'line'
p185
sg32
I00
sg27
S'addPoint'
p186
sg34
(I421
I333
tp187
s(dp188
g27
S'endPath'
p189
s(dp190
g27
S'beginPath'
p191
s(dp192
g30
S'curve'
p193
sg32
I01
sg27
S'addPoint'
p194
sg34
(I624
I-14
tp195
s(dp196
g27
S'addPoint'
p197
sg34
(I807
I-14
tp198
s(dp199
g27
S'addPoint'
p200
sg34
(I840
I74
tp201
s(dp202
g30
S'curve'
p203
sg32
I00
sg27
S'addPoint'
p204
sg34
(I850
I176
tp205
s(dp206
g30
S'line'
p207
sg32
I00
sg27
S'addPoint'
p208
sg34
(I766
I180
tp209
s(dp210
g27
S'addPoint'
p211
sg34
(I761
I115
tp212
s(dp213
g27
S'addPoint'
p214
sg34
(I739
I66
tp215
s(dp216
g30
S'curve'
p217
sg32
I01
sg27
S'addPoint'
p218
sg34
(I625
I66
tp219
s(dp220
g27
S'addPoint'
p221
sg34
(I501
I66
tp222
s(dp223
g27
S'addPoint'
p224
sg34
(I476
I129
tp225
s(dp226
g30
S'curve'
p227
sg32
I01
sg27
S'addPoint'
p228
sg34
(I476
I280
tp229
s(dp230
g27
S'addPoint'
p231
sg34
(I476
I411
tp232
s(dp233
g27
S'addPoint'
p234
sg34
(I484
I506
tp235
s(dp236
g30
S'curve'
p237
sg32
I01
sg27
S'addPoint'
p238
sg34
(I618
I506
tp239
s(dp240
g27
S'addPoint'
p241
sg34
(I753
I506
tp242
s(dp243
g27
S'addPoint'
p244
sg34
(I759
I413
tp245
s(dp246
g30
S'curve'
p247
sg32
I00
sg27
S'addPoint'
p248
sg34
(I759
I286
tp249
s(dp250
g30
S'line'
p251
sg32
I00
sg27
S'addPoint'
p252
sg34
(I858
I286
tp253
s(dp254
g27
S'addPoint'
p255
sg34
(I858
I441
tp256
s(dp257
g27
S'addPoint'
p258
sg34
(I836
I586
tp259
s(dp260
g30
S'curve'
p261
sg32
I01
sg27
S'addPoint'
p262
sg34
(I619
I586
tp263
s(dp264
g27
S'addPoint'
p265
sg34
(I401
I586
tp266
s(dp267
g27
S'addPoint'
p268
sg34
(I377
I441
tp269
s(dp270
g30
S'curve'
p271
sg32
I01
sg27
S'addPoint'
p272
sg34
(I377
I286
tp273
s(dp274
g27
S'addPoint'
p275
sg34
(I377
I92
tp276
s(dp277
g27
S'addPoint'
p278
sg34
(I420
I-14
tp279
s(dp280
g27
S'endPath'
p281
stp282
sS'org.robofab.fontlab.mark'
p283
I144
s."
LayerCount: 2
Fore
SplineSet
624 -14 m 256
 807 -14 840 74 850 176 c 257
 766 180 l 257
 761 115 739 66 625 66 c 256
 506 66 478 123 476 260 c 257
 858 260 l 257
 858 286 l 258
 858 441 836 586 619 586 c 256
 541 586 488 567 452 537 c 257
 413 575 350 586 290 586 c 256
 127 586 85 515 77 403 c 257
 161 399 l 257
 165 468 188 506 287 506 c 256
 338 506 383 488 393 440 c 257
 383 406 379 369 378 330 c 257
 232 321 l 257
 86 310 53 256 53 146 c 256
 53 48 96 -14 221 -14 c 256
 299 -14 369 16 423 64 c 257
 459 13 521 -14 624 -14 c 256
618 506 m 256
 734 506 755 435 758 333 c 257
 477 333 l 257
 481 436 504 506 618 506 c 256
247 62 m 256
 177 62 151 90 151 149 c 256
 151 223 171 247 251 251 c 257
 377 259 l 257
 378 206 383 160 395 122 c 257
 353 84 298 62 247 62 c 256
EndSplineSet
Validated: 9
EndChar

StartChar: aeacute
Encoding: 509 509 143
Width: 894
VWidth: 0
Flags: W
PickledData: "(dp1
S'org.robofab.postScriptHintData'
p2
(dp3
S'replaceTable'
p4
((dp5
S'index'
p6
I0
sS'type'
p7
I1
s(dp8
g6
I1
sg7
I1
s(dp9
g6
I2
sg7
I2
s(dp10
g6
I3
sg7
I2
s(dp11
g6
I2
sg7
I1
s(dp12
g6
I1
sg7
I2
s(dp13
g6
I4
sg7
I1
s(dp14
g6
I16
sg7
I255
s(dp15
g6
I0
sg7
I2
s(dp16
g6
I0
sg7
I1
s(dp17
g6
I2
sg7
I1
s(dp18
g6
I3
sg7
I1
s(dp19
g6
I3
sg7
I2
s(dp20
g6
I2
sg7
I2
s(dp21
g6
I4
sg7
I1
stp22
sS'vHints'
p23
((I53
I98
t(I77
I74
t(I377
I99
t(I758
I100
ttp24
sS'hHints'
p25
((I-14
I80
t(I260
I61
t(I506
I80
t(I260
I73
t(I826
I-20
ttp26
ssS'org.robofab.fontlab.mark'
p27
I80
s."
LayerCount: 2
Fore
SplineSet
624 -14 m 256
 807 -14 840 74 850 176 c 257
 766 180 l 257
 761 115 739 66 625 66 c 256
 506 66 478 123 476 260 c 257
 858 260 l 257
 858 286 l 258
 858 441 836 586 619 586 c 256
 541 586 488 567 452 537 c 257
 413 575 350 586 290 586 c 256
 127 586 85 515 77 403 c 257
 161 399 l 257
 165 468 188 506 287 506 c 256
 338 506 383 488 393 440 c 257
 383 406 379 369 378 330 c 257
 232 321 l 257
 86 310 53 256 53 146 c 256
 53 48 96 -14 221 -14 c 256
 299 -14 369 16 423 64 c 257
 459 13 521 -14 624 -14 c 256
618 506 m 256
 734 506 755 435 758 333 c 257
 477 333 l 257
 481 436 504 506 618 506 c 256
247 62 m 256
 177 62 151 90 151 149 c 256
 151 223 171 247 251 251 c 257
 377 259 l 257
 378 206 383 160 395 122 c 257
 353 84 298 62 247 62 c 256
404 622 m 257
 594 752 l 257
 538 826 l 257
 361 679 l 257
 404 622 l 257
EndSplineSet
Validated: 9
EndChar

StartChar: agrave
Encoding: 224 224 144
Width: 608
VWidth: 0
Flags: W
PickledData: "(dp1
S'org.robofab.postScriptHintData'
p2
(dp3
S'replaceTable'
p4
((dp5
S'index'
p6
I4
sS'type'
p7
I1
s(dp8
g6
I0
sg7
I1
s(dp9
g6
I2
sg7
I2
s(dp10
g6
I0
sg7
I2
s(dp11
g6
I2
sg7
I1
s(dp12
g6
I3
sg7
I1
s(dp13
g6
I18
sg7
I255
s(dp14
g6
I1
sg7
I2
s(dp15
g6
I3
sg7
I1
s(dp16
g6
I2
sg7
I2
s(dp17
g6
I1
sg7
I1
s(dp18
g6
I2
sg7
I1
s(dp19
g6
I4
sg7
I1
stp20
sS'vHints'
p21
((I53
I98
t(I77
I74
t(I395
I101
ttp22
sS'hHints'
p23
((I-14
I76
t(I0
I62
t(I255
I66
t(I506
I80
t(I826
I-20
ttp24
ssS'org.robofab.fontlab.mark'
p25
I144
s."
LayerCount: 2
Fore
SplineSet
430 0 m 257
 556 0 l 257
 556 68 l 257
 496 68 l 257
 496 426 l 258
 496 550 401 586 290 586 c 256
 127 586 85 515 77 403 c 257
 161 399 l 257
 165 468 188 506 287 506 c 256
 345 506 395 484 395 420 c 258
 395 331 l 257
 232 321 l 257
 86 310 53 256 53 146 c 256
 53 48 96 -14 221 -14 c 256
 304 -14 366 19 414 57 c 257
 430 0 l 257
247 62 m 256
 177 62 151 90 151 149 c 256
 151 223 171 247 251 251 c 258
 395 260 l 257
 395 123 l 257
 354 84 299 62 247 62 c 256
359 622 m 257
 169 752 l 257
 225 826 l 257
 402 679 l 257
 359 622 l 257
EndSplineSet
Validated: 9
EndChar

StartChar: aideva
Encoding: 2320 2320 145
Width: 614
VWidth: 0
Flags: W
PickledData: "(dp1
S'org.robofab.postScriptHintData'
p2
(dp3
S'vHints'
p4
((I87
I101
t(I426
I101
ttp5
sS'hHints'
p6
((I662
I68
t(I1083
I-20
t(I23
I-21
ttp7
ssS'org.robofab.fontlab.maskData'
p8
((dp9
S'method'
p10
S'beginPath'
p11
s(dp12
S'segmentType'
p13
S'line'
p14
sS'smooth'
p15
I00
sg10
S'addPoint'
p16
sS'pt'
p17
(I406
I312
tp18
s(dp19
g13
S'line'
p20
sg15
I00
sg10
S'addPoint'
p21
sg17
(I398
I321
tp22
s(dp23
g10
S'endPath'
p24
stp25
sS'org.robofab.fontlab.mark'
p26
I26
s."
LayerCount: 2
Fore
SplineSet
434 282 m 257
 515 317 527 389 527 463 c 258
 527 662 l 257
 624 662 l 257
 624 730 l 257
 520 730 l 257
 215 1083 l 257
 145 1022 l 257
 416 730 l 257
 -10 730 l 257
 -10 662 l 257
 87 662 l 257
 87 372 l 258
 87 205 207 94 435 2 c 257
 467 84 l 257
 281 157 188 243 188 372 c 258
 188 662 l 257
 426 662 l 257
 426 477 l 258
 426 427 421 376 379 351 c 257
 434 282 l 257
EndSplineSet
Validated: 9
EndChar

StartChar: aisign_ra_virama.alt1
Encoding: 65542 -1 146
Width: 0
VWidth: 0
Flags: W
PickledData: "(dp1
S'org.robofab.postScriptHintData'
p2
(dp3
S'hHints'
p4
((I1008
I79
t(I751
I-21
ttp5
ssS'org.robofab.fontlab.maskData'
p6
((dp7
S'method'
p8
S'beginPath'
p9
s(dp10
S'segmentType'
p11
S'curve'
p12
sS'smooth'
p13
I01
sg8
S'addPoint'
p14
sS'pt'
p15
(I-58
I1087
tp16
s(dp17
g8
S'addPoint'
p18
sg15
(I-193
I1087
tp19
s(dp20
g8
S'addPoint'
p21
sg15
(I-259
I1010
tp22
s(dp23
g11
S'curve'
p24
sg13
I00
sg8
S'addPoint'
p25
sg15
(I-265
I920
tp26
s(dp27
g11
S'line'
p28
sg13
I00
sg8
S'addPoint'
p29
sg15
(I-164
I730
tp30
s(dp31
g11
S'line'
p32
sg13
I00
sg8
S'addPoint'
p33
sg15
(I-112
I730
tp34
s(dp35
g8
S'addPoint'
p36
sg15
(I-150
I776
tp37
s(dp38
g8
S'addPoint'
p39
sg15
(I-178
I825
tp40
s(dp41
g11
S'curve'
p42
sg13
I01
sg8
S'addPoint'
p43
sg15
(I-178
I893
tp44
s(dp45
g8
S'addPoint'
p46
sg15
(I-178
I961
tp47
s(dp48
g8
S'addPoint'
p49
sg15
(I-149
I1008
tp50
s(dp51
g11
S'curve'
p52
sg13
I01
sg8
S'addPoint'
p53
sg15
(I-66
I1008
tp54
s(dp55
g8
S'addPoint'
p56
sg15
(I-28
I1008
tp57
s(dp58
g8
S'addPoint'
p59
sg15
(I14
I1002
tp60
s(dp61
g11
S'curve'
p62
sg13
I00
sg8
S'addPoint'
p63
sg15
(I55
I990
tp64
s(dp65
g11
S'line'
p66
sg13
I00
sg8
S'addPoint'
p67
sg15
(I75
I1066
tp68
s(dp69
g8
S'addPoint'
p70
sg15
(I36
I1080
tp71
s(dp72
g8
S'addPoint'
p73
sg15
(I-8
I1087
tp74
s(dp75
g8
S'endPath'
p76
s(dp77
g8
S'beginPath'
p78
s(dp79
g11
S'line'
p80
sg13
I00
sg8
S'addPoint'
p81
sg15
(I-112
I730
tp82
s(dp83
g11
S'line'
p84
sg13
I00
sg8
S'addPoint'
p85
sg15
(I-298
I1113
tp86
s(dp87
g11
S'line'
p88
sg13
I00
sg8
S'addPoint'
p89
sg15
(I-378
I1071
tp90
s(dp91
g11
S'line'
p92
sg13
I00
sg8
S'addPoint'
p93
sg15
(I-181
I730
tp94
s(dp95
g8
S'endPath'
p96
s(dp97
g8
S'beginPath'
p98
s(dp99
g11
S'line'
p100
sg13
I00
sg8
S'addPoint'
p101
sg15
(I-133
I730
tp102
s(dp103
g11
S'line'
p104
sg13
I00
sg8
S'addPoint'
p105
sg15
(I-169
I766
tp106
s(dp107
g11
S'line'
p108
sg13
I00
sg8
S'addPoint'
p109
sg15
(I-433
I952
tp110
s(dp111
g11
S'line'
p112
sg13
I00
sg8
S'addPoint'
p113
sg15
(I-484
I879
tp114
s(dp115
g11
S'line'
p116
sg13
I00
sg8
S'addPoint'
p117
sg15
(I-227
I730
tp118
s(dp119
g8
S'endPath'
p120
stp121
sS'org.robofab.fontlab.mark'
p122
I26
s."
AnchorPoint: "DVAnchor3" -158 730 mark 0
LayerCount: 2
Fore
SplineSet
-112 730 m 257
 -173 845 l 257
 -176 860 -178 876 -178 893 c 256
 -178 961 -149 1008 -66 1008 c 256
 -28 1008 14 1002 55 990 c 257
 75 1066 l 257
 36 1080 -8 1087 -58 1087 c 256
 -157 1087 -222 1043 -236 966 c 257
 -298 1083 l 257
 -378 1041 l 257
 -232 810 l 257
 -433 952 l 257
 -484 879 l 257
 -227 730 l 257
 -112 730 l 257
EndSplineSet
Validated: 9
Ligature2: "'abvs' Above Base Substitutions lookup 25 subtable" aisigndeva radeva_viramadeva
EndChar

StartChar: aisign_ra_virama_anusvara
Encoding: 65543 -1 147
Width: 0
VWidth: 0
Flags: W
PickledData: "(dp1
S'org.robofab.postScriptHintData'
p2
(dp3
S'replaceTable'
p4
((dp5
S'index'
p6
I2
sS'type'
p7
I1
s(dp8
g6
I0
sg7
I2
s(dp9
g6
I1
sg7
I1
s(dp10
g6
I0
sg7
I1
s(dp11
g6
I15
sg7
I255
s(dp12
g6
I1
sg7
I2
s(dp13
g6
I0
sg7
I1
s(dp14
g6
I1
sg7
I1
s(dp15
g6
I2
sg7
I1
stp16
sS'vHints'
p17
((I-178
I104
t(I-74
I127
ttp18
sS'hHints'
p19
((I800
I126
t(I1008
I79
t(I751
I-21
ttp20
ssS'org.robofab.fontlab.mark'
p21
I26
s."
AnchorPoint: "DVAnchor3" -158 730 mark 0
LayerCount: 2
Fore
SplineSet
-112 730 m 257
 -173 845 l 257
 -176 860 -178 876 -178 893 c 256
 -178 961 -149 1008 -66 1008 c 256
 -28 1008 14 1002 55 990 c 257
 75 1066 l 257
 36 1080 -8 1087 -58 1087 c 256
 -157 1087 -222 1043 -236 966 c 257
 -298 1083 l 257
 -378 1041 l 257
 -232 810 l 257
 -433 952 l 257
 -484 879 l 257
 -227 730 l 257
 -112 730 l 257
-12 800 m 256
 34 800 53 818 53 863 c 256
 53 908 35 926 -12 926 c 256
 -56 926 -74 908 -74 863 c 256
 -74 818 -56 800 -12 800 c 256
EndSplineSet
Validated: 9
Ligature2: "'abvs' Above Base Substitutions lookup 25 subtable" aisigndeva radeva_viramadeva anusvaradeva
EndChar

StartChar: aisigndeva
Encoding: 2376 2376 148
Width: 0
VWidth: 0
Flags: W
PickledData: "(dp1
S'org.robofab.postScriptHintData'
p2
(dp3
S'hHints'
p4
((I751
I-21
t(I1083
I-20
ttp5
ssS'org.robofab.fontlab.maskData'
p6
((dp7
S'method'
p8
S'beginPath'
p9
s(dp10
S'segmentType'
p11
S'line'
p12
sS'smooth'
p13
I00
sg8
S'addPoint'
p14
sS'pt'
p15
(I-188
I650
tp16
s(dp17
g11
S'line'
p18
sg13
I00
sg8
S'addPoint'
p19
sg15
(I-467
I826
tp20
s(dp21
g11
S'line'
p22
sg13
I00
sg8
S'addPoint'
p23
sg15
(I-428
I884
tp24
s(dp25
g11
S'line'
p26
sg13
I00
sg8
S'addPoint'
p27
sg15
(I-142
I656
tp28
s(dp29
g11
S'line'
p30
sg13
I00
sg8
S'addPoint'
p31
sg15
(I-278
I937
tp32
s(dp33
g11
S'line'
p34
sg13
I00
sg8
S'addPoint'
p35
sg15
(I-213
I976
tp36
s(dp37
g11
S'line'
p38
sg13
I00
sg8
S'addPoint'
p39
sg15
(I-103
I650
tp40
s(dp41
g8
S'endPath'
p42
stp43
sS'org.robofab.fontlab.mark'
p44
I26
s."
AnchorPoint: "DVAnchor3" -134 730 mark 0
LayerCount: 2
Fore
SplineSet
-87 730 m 257
 -272 1083 l 257
 -353 1041 l 257
 -207 810 l 257
 -408 952 l 257
 -459 879 l 257
 -202 730 l 257
 -87 730 l 257
EndSplineSet
Validated: 9
EndChar

StartChar: aisigndeva_anusvaradeva
Encoding: 65544 -1 149
Width: 0
VWidth: 0
Flags: W
PickledData: "(dp1
S'org.robofab.postScriptHintData'
p2
(dp3
S'vHints'
p4
((I-130
I127
ttp5
sS'hHints'
p6
((I922
I126
t(I751
I-21
t(I1083
I-20
ttp7
ssS'org.robofab.fontlab.mark'
p8
I26
s."
AnchorPoint: "DVAnchor3" -134 730 mark 0
LayerCount: 2
Fore
SplineSet
-87 730 m 257
 -272 1083 l 257
 -353 1041 l 257
 -207 810 l 257
 -408 952 l 257
 -459 879 l 257
 -202 730 l 257
 -87 730 l 257
-68 922 m 256
 -23 922 -3 941 -3 985 c 256
 -3 1030 -22 1048 -68 1048 c 256
 -112 1048 -130 1030 -130 985 c 256
 -130 941 -112 922 -68 922 c 256
EndSplineSet
Validated: 9
Ligature2: "'abvs' Above Base Substitutions lookup 25 subtable" aisigndeva anusvaradeva
EndChar

StartChar: amacron
Encoding: 257 257 150
Width: 608
VWidth: 0
Flags: W
PickledData: "(dp1
S'org.robofab.postScriptHintData'
p2
(dp3
S'replaceTable'
p4
((dp5
S'index'
p6
I1
sS'type'
p7
I1
s(dp8
g6
I2
sg7
I2
s(dp9
g6
I3
sg7
I1
s(dp10
g6
I1
sg7
I2
s(dp11
g6
I2
sg7
I1
s(dp12
g6
I4
sg7
I1
s(dp13
g6
I12
sg7
I255
s(dp14
g6
I0
sg7
I2
s(dp15
g6
I0
sg7
I1
s(dp16
g6
I2
sg7
I1
s(dp17
g6
I3
sg7
I1
s(dp18
g6
I4
sg7
I1
s(dp19
g6
I2
sg7
I2
s(dp20
g6
I-14
sg7
I255
s(dp21
g6
I1
sg7
I1
s(dp22
g6
I0
sg7
I2
s(dp23
g6
I2
sg7
I1
s(dp24
g6
I2
sg7
I2
s(dp25
g6
I4
sg7
I1
s(dp26
g6
I3
sg7
I1
stp27
sS'vHints'
p28
((I53
I98
t(I77
I74
t(I395
I101
ttp29
sS'hHints'
p30
((I-14
I76
t(I0
I62
t(I251
I70
t(I506
I80
t(I682
I81
ttp31
ssS'org.robofab.fontlab.mark'
p32
I80
s."
LayerCount: 2
Fore
SplineSet
430 0 m 257
 556 0 l 257
 556 68 l 257
 496 68 l 257
 496 426 l 258
 496 550 401 586 290 586 c 256
 127 586 85 515 77 403 c 257
 161 399 l 257
 165 468 188 506 287 506 c 256
 345 506 395 484 395 420 c 258
 395 331 l 257
 232 321 l 257
 86 310 53 256 53 146 c 256
 53 48 96 -14 221 -14 c 256
 304 -14 366 19 414 57 c 257
 430 0 l 257
247 62 m 256
 177 62 151 90 151 149 c 256
 151 223 171 247 251 251 c 258
 395 260 l 257
 395 123 l 257
 354 84 299 62 247 62 c 256
173 682 m 257
 435 682 l 257
 435 763 l 257
 173 763 l 257
 173 682 l 257
EndSplineSet
Validated: 9
EndChar

StartChar: ampersand
Encoding: 38 38 151
Width: 621
VWidth: 0
Flags: W
PickledData: "(dp1
S'org.robofab.postScriptHintData'
p2
(dp3
S'replaceTable'
p4
((dp5
S'index'
p6
I0
sS'type'
p7
I2
s(dp8
g6
I1
sg7
I1
s(dp9
g6
I3
sg7
I2
s(dp10
g6
I0
sg7
I1
s(dp11
g6
I2
sg7
I1
s(dp12
g6
I13
sg7
I255
s(dp13
g6
I1
sg7
I2
s(dp14
g6
I2
sg7
I1
s(dp15
g6
I2
sg7
I2
s(dp16
g6
I0
sg7
I1
s(dp17
g6
I1
sg7
I1
s(dp18
g6
I20
sg7
I255
s(dp19
g6
I0
sg7
I2
s(dp20
g6
I0
sg7
I1
s(dp21
g6
I1
sg7
I1
s(dp22
g6
I2
sg7
I1
s(dp23
g6
I2
sg7
I2
stp24
sS'vHints'
p25
((I51
I101
t(I70
I101
t(I389
I90
t(I422
I90
ttp26
sS'hHints'
p27
((I-14
I82
t(I318
I76
t(I628
I82
ttp28
ssS'org.robofab.fontlab.mark'
p29
I144
s."
LayerCount: 2
Fore
SplineSet
51 184 m 256
 51 278 98 336 167 362 c 257
 109 391 70 444 70 520 c 256
 70 630 123 710 277 710 c 256
 427 710 479 638 479 504 c 257
 389 504 l 257
 389 583 361 628 283 628 c 256
 198 628 171 583 171 513 c 256
 171 445 208 394 295 394 c 258
 621 394 l 257
 621 318 l 257
 512 318 l 257
 512 191 l 258
 512 55 464 -14 283 -14 c 256
 118 -14 51 64 51 184 c 256
152 187 m 256
 152 109 190 68 289 68 c 256
 388 68 422 112 422 191 c 258
 422 318 l 257
 286 318 l 258
 198 318 152 273 152 187 c 256
EndSplineSet
Validated: 1
EndChar

StartChar: anudattadeva
Encoding: 2386 2386 152
Width: 0
VWidth: 0
Flags: W
PickledData: "(dp1
S'org.robofab.postScriptHintData'
p2
(dp3
S'hHints'
p4
((I-165
I68
ttp5
ssS'org.robofab.fontlab.mark'
p6
I26
s."
LayerCount: 2
Fore
SplineSet
-622 -165 m 257
 -622 -97 l 257
 -108 -97 l 257
 -108 -165 l 257
 -622 -165 l 257
EndSplineSet
Validated: 1
EndChar

